<?xml version="1.0" encoding="UTF-8" standalone="no"?><svg xmlns="http://www.w3.org/2000/svg" xmlns:xlink="http://www.w3.org/1999/xlink" contentScriptType="application/ecmascript" contentStyleType="text/css" height="1314px" preserveAspectRatio="none" style="width:1045px;height:1314px;background:#F0F0F0;" version="1.1" viewBox="0 0 1045 1314" width="1045px" zoomAndPan="magnify"><defs><filter height="300%" id="frcef1emq8620" width="300%" x="-1" y="-1"><feGaussianBlur result="blurOut" stdDeviation="2.0"/><feColorMatrix in="blurOut" result="blurOut2" type="matrix" values="0 0 0 0 0 0 0 0 0 0 0 0 0 0 0 0 0 0 .4 0"/><feOffset dx="4.0" dy="4.0" in="blurOut2" result="blurOut3"/><feBlend in="SourceGraphic" in2="blurOut3" mode="normal"/></filter></defs><g><rect fill="#ADD8E6" filter="url(#frcef1emq8620)" height="33.9688" rx="12.5" ry="12.5" style="stroke: #A80036; stroke-width: 1.5;" width="72" x="271" y="10"/><text fill="#000000" font-family="sans-serif" font-size="12" lengthAdjust="spacingAndGlyphs" textLength="52" x="281" y="31.1387">528 MHz</text><rect fill="#FFFFFF" filter="url(#frcef1emq8620)" height="133.1016" style="stroke: #000000; stroke-width: 2.0;" width="955" x="26.5" y="54.7705"/><path d="M278.5,55.7705 L278.5,64.0674 L268.5,74.0674 L26.5,74.0674 " fill="none" style="stroke: #000000; stroke-width: 2.0;"/><text fill="#000000" font-family="sans-serif" font-size="14" font-weight="bold" lengthAdjust="spacingAndGlyphs" textLength="34" x="29.5" y="68.7656">loop</text><text fill="#000000" font-family="sans-serif" font-size="14" lengthAdjust="spacingAndGlyphs" textLength="204" x="67.5" y="68.7656">UpdateCpuFrequency interval</text><path d="M585.5,100.7705 L585.5,166.1689 L971.5,166.1689 L971.5,110.7705 L961.5,100.7705 L585.5,100.7705 " fill="#FBFB77" filter="url(#frcef1emq8620)" style="stroke: #A80036; stroke-width: 1.0;"/><path d="M961.5,100.7705 L961.5,110.7705 L971.5,110.7705 L961.5,100.7705 " fill="#FBFB77" style="stroke: #A80036; stroke-width: 1.0;"/><text fill="#000000" font-family="sans-serif" font-size="13" lengthAdjust="spacingAndGlyphs" textLength="162" x="591.5" y="117.8374">Minimum execution time:</text><text fill="#000000" font-family="sans-serif" font-size="13" lengthAdjust="spacingAndGlyphs" text-decoration="underline" textLength="165" x="591.5" y="132.9702">maxBelowThresholdCount</text><text fill="#000000" font-family="sans-serif" font-size="13" lengthAdjust="spacingAndGlyphs" textLength="7" x="760.5" y="132.9702">*</text><text fill="#000000" font-family="sans-serif" font-size="13" lengthAdjust="spacingAndGlyphs" text-decoration="underline" textLength="185" x="771.5" y="132.9702">UpdateCpuFrequencyInterval</text><line style="stroke: #A80036; stroke-width: 1.0;" x1="585.5" x2="971.5" y1="141.0361" y2="141.0361"/><line style="stroke: #A80036; stroke-width: 1.0;" x1="585.5" x2="971.5" y1="143.0361" y2="143.0361"/><text fill="#000000" font-family="sans-serif" font-size="13" lengthAdjust="spacingAndGlyphs" textLength="182" x="591.5" y="158.103">Currently it is 30 * 100 ms =</text><text fill="#000000" font-family="sans-serif" font-size="13" font-weight="bold" lengthAdjust="spacingAndGlyphs" textLength="17" x="782.5" y="158.103">3s</text><polygon fill="#FEFECE" filter="url(#frcef1emq8620)" points="72.5,91.0674,541.5,91.0674,553.5,103.0674,541.5,115.0674,72.5,115.0674,60.5,103.0674,72.5,91.0674" style="stroke: #A80036; stroke-width: 1.5;"/><text fill="#000000" font-family="sans-serif" font-size="11" lengthAdjust="spacingAndGlyphs" textLength="14" x="311" y="125.2778">no</text><text fill="#000000" font-family="sans-serif" font-size="11" lengthAdjust="spacingAndGlyphs" textLength="4" x="72.5" y="106.8755">(</text><text fill="#000000" font-family="sans-serif" font-size="11" lengthAdjust="spacingAndGlyphs" text-decoration="underline" textLength="47" x="76.5" y="106.8755">cpuLoad</text><text fill="#000000" font-family="sans-serif" font-size="11" lengthAdjust="spacingAndGlyphs" textLength="9" x="126.5" y="106.8755">&lt;</text><text fill="#000000" font-family="sans-serif" font-size="11" lengthAdjust="spacingAndGlyphs" text-decoration="underline" textLength="177" x="138.5" y="106.8755">frequencyShiftLowerThreshold)</text><text fill="#000000" font-family="sans-serif" font-size="11" lengthAdjust="spacingAndGlyphs" textLength="0" x="318.5" y="106.8755"/><text fill="#000000" font-family="sans-serif" font-size="11" lengthAdjust="spacingAndGlyphs" text-decoration="underline" textLength="148" x="318.5" y="106.8755">maxBelowThresholdCount</text><text fill="#000000" font-family="sans-serif" font-size="11" lengthAdjust="spacingAndGlyphs" textLength="72" x="469.5" y="106.8755">time in a row</text><text fill="#000000" font-family="sans-serif" font-size="11" lengthAdjust="spacingAndGlyphs" textLength="20" x="40.5" y="100.4731">yes</text><rect fill="#FEFECE" filter="url(#frcef1emq8620)" height="33.9688" rx="12.5" ry="12.5" style="stroke: #A80036; stroke-width: 1.5;" width="179" x="217.5" y="207.8721"/><text fill="#000000" font-family="sans-serif" font-size="12" lengthAdjust="spacingAndGlyphs" textLength="159" x="227.5" y="229.0107">DecreaseCpuFrequency()</text><rect fill="#ADD8E6" filter="url(#frcef1emq8620)" height="33.9688" rx="12.5" ry="12.5" style="stroke: #A80036; stroke-width: 1.5;" width="72" x="271" y="261.8408"/><text fill="#000000" font-family="sans-serif" font-size="12" lengthAdjust="spacingAndGlyphs" textLength="52" x="281" y="282.9795">264 MHz</text><rect fill="#FFFFFF" filter="url(#frcef1emq8620)" height="133.1016" style="stroke: #000000; stroke-width: 2.0;" width="1024" x="10" y="306.6113"/><path d="M262,307.6113 L262,315.9082 L252,325.9082 L10,325.9082 " fill="none" style="stroke: #000000; stroke-width: 2.0;"/><text fill="#000000" font-family="sans-serif" font-size="14" font-weight="bold" lengthAdjust="spacingAndGlyphs" textLength="34" x="13" y="320.6064">loop</text><text fill="#000000" font-family="sans-serif" font-size="14" lengthAdjust="spacingAndGlyphs" textLength="204" x="51" y="320.6064">UpdateCpuFrequency interval</text><path d="M602,352.6113 L602,418.0098 L1024,418.0098 L1024,362.6113 L1014,352.6113 L602,352.6113 " fill="#FBFB77" filter="url(#frcef1emq8620)" style="stroke: #A80036; stroke-width: 1.0;"/><path d="M1014,352.6113 L1014,362.6113 L1024,362.6113 L1014,352.6113 " fill="#FBFB77" style="stroke: #A80036; stroke-width: 1.0;"/><text fill="#000000" font-family="sans-serif" font-size="13" lengthAdjust="spacingAndGlyphs" textLength="162" x="608" y="369.6782">Minimum execution time:</text><text fill="#000000" font-family="sans-serif" font-size="13" lengthAdjust="spacingAndGlyphs" text-decoration="underline" textLength="201" x="608" y="384.811">maxBelowThresholdInRowCount</text><text fill="#000000" font-family="sans-serif" font-size="13" lengthAdjust="spacingAndGlyphs" textLength="7" x="813" y="384.811">*</text><text fill="#000000" font-family="sans-serif" font-size="13" lengthAdjust="spacingAndGlyphs" text-decoration="underline" textLength="185" x="824" y="384.811">UpdateCpuFrequencyInterval</text><line style="stroke: #A80036; stroke-width: 1.0;" x1="602" x2="1024" y1="392.877" y2="392.877"/><line style="stroke: #A80036; stroke-width: 1.0;" x1="602" x2="1024" y1="394.877" y2="394.877"/><text fill="#000000" font-family="sans-serif" font-size="13" lengthAdjust="spacingAndGlyphs" textLength="182" x="608" y="409.9438">Currently it is 10 * 100 ms =</text><text fill="#000000" font-family="sans-serif" font-size="13" font-weight="bold" lengthAdjust="spacingAndGlyphs" textLength="17" x="799" y="409.9438">1s</text><polygon fill="#FEFECE" filter="url(#frcef1emq8620)" points="56,342.9082,558,342.9082,570,354.9082,558,366.9082,56,366.9082,44,354.9082,56,342.9082" style="stroke: #A80036; stroke-width: 1.5;"/><text fill="#000000" font-family="sans-serif" font-size="11" lengthAdjust="spacingAndGlyphs" textLength="14" x="311" y="377.1187">no</text><text fill="#000000" font-family="sans-serif" font-size="11" lengthAdjust="spacingAndGlyphs" textLength="4" x="56" y="358.7163">(</text><text fill="#000000" font-family="sans-serif" font-size="11" lengthAdjust="spacingAndGlyphs" text-decoration="underline" textLength="47" x="60" y="358.7163">cpuLoad</text><text fill="#000000" font-family="sans-serif" font-size="11" lengthAdjust="spacingAndGlyphs" textLength="9" x="110" y="358.7163">&lt;</text><text fill="#000000" font-family="sans-serif" font-size="11" lengthAdjust="spacingAndGlyphs" text-decoration="underline" textLength="177" x="122" y="358.7163">frequencyShiftLowerThreshold)</text><text fill="#000000" font-family="sans-serif" font-size="11" lengthAdjust="spacingAndGlyphs" textLength="0" x="302" y="358.7163"/><text fill="#000000" font-family="sans-serif" font-size="11" lengthAdjust="spacingAndGlyphs" text-decoration="underline" textLength="181" x="302" y="358.7163">maxBelowThresholdInRowCount</text><text fill="#000000" font-family="sans-serif" font-size="11" lengthAdjust="spacingAndGlyphs" textLength="72" x="486" y="358.7163">time in a row</text><text fill="#000000" font-family="sans-serif" font-size="11" lengthAdjust="spacingAndGlyphs" textLength="20" x="24" y="352.314">yes</text><rect fill="#FEFECE" filter="url(#frcef1emq8620)" height="33.9688" rx="12.5" ry="12.5" style="stroke: #A80036; stroke-width: 1.5;" width="179" x="217.5" y="459.7129"/><text fill="#000000" font-family="sans-serif" font-size="12" lengthAdjust="spacingAndGlyphs" textLength="159" x="227.5" y="480.8516">DecreaseCpuFrequency()</text><rect fill="#ADD8E6" filter="url(#frcef1emq8620)" height="33.9688" rx="12.5" ry="12.5" style="stroke: #A80036; stroke-width: 1.5;" width="72" x="271" y="513.6816"/><text fill="#000000" font-family="sans-serif" font-size="12" lengthAdjust="spacingAndGlyphs" textLength="52" x="281" y="534.8203">132 MHz</text><rect fill="#FFFFFF" filter="url(#frcef1emq8620)" height="133.1016" style="stroke: #000000; stroke-width: 2.0;" width="1024" x="10" y="558.4521"/><path d="M262,559.4521 L262,567.749 L252,577.749 L10,577.749 " fill="none" style="stroke: #000000; stroke-width: 2.0;"/><text fill="#000000" font-family="sans-serif" font-size="14" font-weight="bold" lengthAdjust="spacingAndGlyphs" textLength="34" x="13" y="572.4473">loop</text><text fill="#000000" font-family="sans-serif" font-size="14" lengthAdjust="spacingAndGlyphs" textLength="204" x="51" y="572.4473">UpdateCpuFrequency interval</text><path d="M602,604.4521 L602,669.8506 L1024,669.8506 L1024,614.4521 L1014,604.4521 L602,604.4521 " fill="#FBFB77" filter="url(#frcef1emq8620)" style="stroke: #A80036; stroke-width: 1.0;"/><path d="M1014,604.4521 L1014,614.4521 L1024,614.4521 L1014,604.4521 " fill="#FBFB77" style="stroke: #A80036; stroke-width: 1.0;"/><text fill="#000000" font-family="sans-serif" font-size="13" lengthAdjust="spacingAndGlyphs" textLength="162" x="608" y="621.519">Minimum execution time:</text><text fill="#000000" font-family="sans-serif" font-size="13" lengthAdjust="spacingAndGlyphs" text-decoration="underline" textLength="201" x="608" y="636.6519">maxBelowThresholdInRowCount</text><text fill="#000000" font-family="sans-serif" font-size="13" lengthAdjust="spacingAndGlyphs" textLength="7" x="813" y="636.6519">*</text><text fill="#000000" font-family="sans-serif" font-size="13" lengthAdjust="spacingAndGlyphs" text-decoration="underline" textLength="185" x="824" y="636.6519">UpdateCpuFrequencyInterval</text><line style="stroke: #A80036; stroke-width: 1.0;" x1="602" x2="1024" y1="644.7178" y2="644.7178"/><line style="stroke: #A80036; stroke-width: 1.0;" x1="602" x2="1024" y1="646.7178" y2="646.7178"/><text fill="#000000" font-family="sans-serif" font-size="13" lengthAdjust="spacingAndGlyphs" textLength="182" x="608" y="661.7847">Currently it is 10 * 100 ms =</text><text fill="#000000" font-family="sans-serif" font-size="13" font-weight="bold" lengthAdjust="spacingAndGlyphs" textLength="17" x="799" y="661.7847">1s</text><polygon fill="#FEFECE" filter="url(#frcef1emq8620)" points="56,594.749,558,594.749,570,606.749,558,618.749,56,618.749,44,606.749,56,594.749" style="stroke: #A80036; stroke-width: 1.5;"/><text fill="#000000" font-family="sans-serif" font-size="11" lengthAdjust="spacingAndGlyphs" textLength="14" x="311" y="628.9595">no</text><text fill="#000000" font-family="sans-serif" font-size="11" lengthAdjust="spacingAndGlyphs" textLength="4" x="56" y="610.5571">(</text><text fill="#000000" font-family="sans-serif" font-size="11" lengthAdjust="spacingAndGlyphs" text-decoration="underline" textLength="47" x="60" y="610.5571">cpuLoad</text><text fill="#000000" font-family="sans-serif" font-size="11" lengthAdjust="spacingAndGlyphs" textLength="9" x="110" y="610.5571">&lt;</text><text fill="#000000" font-family="sans-serif" font-size="11" lengthAdjust="spacingAndGlyphs" text-decoration="underline" textLength="177" x="122" y="610.5571">frequencyShiftLowerThreshold)</text><text fill="#000000" font-family="sans-serif" font-size="11" lengthAdjust="spacingAndGlyphs" textLength="0" x="302" y="610.5571"/><text fill="#000000" font-family="sans-serif" font-size="11" lengthAdjust="spacingAndGlyphs" text-decoration="underline" textLength="181" x="302" y="610.5571">maxBelowThresholdInRowCount</text><text fill="#000000" font-family="sans-serif" font-size="11" lengthAdjust="spacingAndGlyphs" textLength="72" x="486" y="610.5571">time in a row</text><text fill="#000000" font-family="sans-serif" font-size="11" lengthAdjust="spacingAndGlyphs" textLength="20" x="24" y="604.1548">yes</text><rect fill="#FEFECE" filter="url(#frcef1emq8620)" height="33.9688" rx="12.5" ry="12.5" style="stroke: #A80036; stroke-width: 1.5;" width="179" x="217.5" y="711.5537"/><text fill="#000000" font-family="sans-serif" font-size="12" lengthAdjust="spacingAndGlyphs" textLength="159" x="227.5" y="732.6924">DecreaseCpuFrequency()</text><rect fill="#ADD8E6" filter="url(#frcef1emq8620)" height="33.9688" rx="12.5" ry="12.5" style="stroke: #A80036; stroke-width: 1.5;" width="64" x="275" y="765.5225"/><text fill="#000000" font-family="sans-serif" font-size="12" lengthAdjust="spacingAndGlyphs" textLength="44" x="285" y="786.6611">66 MHz</text><rect fill="#FFFFFF" filter="url(#frcef1emq8620)" height="133.1016" style="stroke: #000000; stroke-width: 2.0;" width="1024" x="10" y="810.293"/><path d="M262,811.293 L262,819.5898 L252,829.5898 L10,829.5898 " fill="none" style="stroke: #000000; stroke-width: 2.0;"/><text fill="#000000" font-family="sans-serif" font-size="14" font-weight="bold" lengthAdjust="spacingAndGlyphs" textLength="34" x="13" y="824.2881">loop</text><text fill="#000000" font-family="sans-serif" font-size="14" lengthAdjust="spacingAndGlyphs" textLength="204" x="51" y="824.2881">UpdateCpuFrequency interval</text><path d="M602,856.293 L602,921.6914 L1024,921.6914 L1024,866.293 L1014,856.293 L602,856.293 " fill="#FBFB77" filter="url(#frcef1emq8620)" style="stroke: #A80036; stroke-width: 1.0;"/><path d="M1014,856.293 L1014,866.293 L1024,866.293 L1014,856.293 " fill="#FBFB77" style="stroke: #A80036; stroke-width: 1.0;"/><text fill="#000000" font-family="sans-serif" font-size="13" lengthAdjust="spacingAndGlyphs" textLength="162" x="608" y="873.3599">Minimum execution time:</text><text fill="#000000" font-family="sans-serif" font-size="13" lengthAdjust="spacingAndGlyphs" text-decoration="underline" textLength="201" x="608" y="888.4927">maxBelowThresholdInRowCount</text><text fill="#000000" font-family="sans-serif" font-size="13" lengthAdjust="spacingAndGlyphs" textLength="7" x="813" y="888.4927">*</text><text fill="#000000" font-family="sans-serif" font-size="13" lengthAdjust="spacingAndGlyphs" text-decoration="underline" textLength="185" x="824" y="888.4927">UpdateCpuFrequencyInterval</text><line style="stroke: #A80036; stroke-width: 1.0;" x1="602" x2="1024" y1="896.5586" y2="896.5586"/><line style="stroke: #A80036; stroke-width: 1.0;" x1="602" x2="1024" y1="898.5586" y2="898.5586"/><text fill="#000000" font-family="sans-serif" font-size="13" lengthAdjust="spacingAndGlyphs" textLength="182" x="608" y="913.6255">Currently it is 10 * 100 ms =</text><text fill="#000000" font-family="sans-serif" font-size="13" font-weight="bold" lengthAdjust="spacingAndGlyphs" textLength="17" x="799" y="913.6255">1s</text><polygon fill="#FEFECE" filter="url(#frcef1emq8620)" points="56,846.5898,558,846.5898,570,858.5898,558,870.5898,56,870.5898,44,858.5898,56,846.5898" style="stroke: #A80036; stroke-width: 1.5;"/><text fill="#000000" font-family="sans-serif" font-size="11" lengthAdjust="spacingAndGlyphs" textLength="14" x="311" y="880.8003">no</text><text fill="#000000" font-family="sans-serif" font-size="11" lengthAdjust="spacingAndGlyphs" textLength="4" x="56" y="862.3979">(</text><text fill="#000000" font-family="sans-serif" font-size="11" lengthAdjust="spacingAndGlyphs" text-decoration="underline" textLength="47" x="60" y="862.3979">cpuLoad</text><text fill="#000000" font-family="sans-serif" font-size="11" lengthAdjust="spacingAndGlyphs" textLength="9" x="110" y="862.3979">&lt;</text><text fill="#000000" font-family="sans-serif" font-size="11" lengthAdjust="spacingAndGlyphs" text-decoration="underline" textLength="177" x="122" y="862.3979">frequencyShiftLowerThreshold)</text><text fill="#000000" font-family="sans-serif" font-size="11" lengthAdjust="spacingAndGlyphs" textLength="0" x="302" y="862.3979"/><text fill="#000000" font-family="sans-serif" font-size="11" lengthAdjust="spacingAndGlyphs" text-decoration="underline" textLength="181" x="302" y="862.3979">maxBelowThresholdInRowCount</text><text fill="#000000" font-family="sans-serif" font-size="11" lengthAdjust="spacingAndGlyphs" textLength="72" x="486" y="862.3979">time in a row</text><text fill="#000000" font-family="sans-serif" font-size="11" lengthAdjust="spacingAndGlyphs" textLength="20" x="24" y="855.9956">yes</text><rect fill="#FEFECE" filter="url(#frcef1emq8620)" height="33.9688" rx="12.5" ry="12.5" style="stroke: #A80036; stroke-width: 1.5;" width="179" x="217.5" y="963.3945"/><text fill="#000000" font-family="sans-serif" font-size="12" lengthAdjust="spacingAndGlyphs" textLength="159" x="227.5" y="984.5332">DecreaseCpuFrequency()</text><rect fill="#ADD8E6" filter="url(#frcef1emq8620)" height="33.9688" rx="12.5" ry="12.5" style="stroke: #A80036; stroke-width: 1.5;" width="64" x="275" y="1017.3633"/><text fill="#000000" font-family="sans-serif" font-size="12" lengthAdjust="spacingAndGlyphs" textLength="44" x="285" y="1038.502">24 MHz</text><rect fill="#FFFFFF" filter="url(#frcef1emq8620)" height="133.1016" style="stroke: #000000; stroke-width: 2.0;" width="1024" x="10" y="1062.1338"/><path d="M262,1063.1338 L262,1071.4307 L252,1081.4307 L10,1081.4307 " fill="none" style="stroke: #000000; stroke-width: 2.0;"/><text fill="#000000" font-family="sans-serif" font-size="14" font-weight="bold" lengthAdjust="spacingAndGlyphs" textLength="34" x="13" y="1076.1289">loop</text><text fill="#000000" font-family="sans-serif" font-size="14" lengthAdjust="spacingAndGlyphs" textLength="204" x="51" y="1076.1289">UpdateCpuFrequency interval</text><path d="M602,1108.1338 L602,1173.5322 L1024,1173.5322 L1024,1118.1338 L1014,1108.1338 L602,1108.1338 " fill="#FBFB77" filter="url(#frcef1emq8620)" style="stroke: #A80036; stroke-width: 1.0;"/><path d="M1014,1108.1338 L1014,1118.1338 L1024,1118.1338 L1014,1108.1338 " fill="#FBFB77" style="stroke: #A80036; stroke-width: 1.0;"/><text fill="#000000" font-family="sans-serif" font-size="13" lengthAdjust="spacingAndGlyphs" textLength="162" x="608" y="1125.2007">Minimum execution time:</text><text fill="#000000" font-family="sans-serif" font-size="13" lengthAdjust="spacingAndGlyphs" text-decoration="underline" textLength="201" x="608" y="1140.3335">maxBelowThresholdInRowCount</text><text fill="#000000" font-family="sans-serif" font-size="13" lengthAdjust="spacingAndGlyphs" textLength="7" x="813" y="1140.3335">*</text><text fill="#000000" font-family="sans-serif" font-size="13" lengthAdjust="spacingAndGlyphs" text-decoration="underline" textLength="185" x="824" y="1140.3335">UpdateCpuFrequencyInterval</text><line style="stroke: #A80036; stroke-width: 1.0;" x1="602" x2="1024" y1="1148.3994" y2="1148.3994"/><line style="stroke: #A80036; stroke-width: 1.0;" x1="602" x2="1024" y1="1150.3994" y2="1150.3994"/><text fill="#000000" font-family="sans-serif" font-size="13" lengthAdjust="spacingAndGlyphs" textLength="182" x="608" y="1165.4663">Currently it is 10 * 100 ms =</text><text fill="#000000" font-family="sans-serif" font-size="13" font-weight="bold" lengthAdjust="spacingAndGlyphs" textLength="17" x="799" y="1165.4663">1s</text><polygon fill="#FEFECE" filter="url(#frcef1emq8620)" points="56,1098.4307,558,1098.4307,570,1110.4307,558,1122.4307,56,1122.4307,44,1110.4307,56,1098.4307" style="stroke: #A80036; stroke-width: 1.5;"/><text fill="#000000" font-family="sans-serif" font-size="11" lengthAdjust="spacingAndGlyphs" textLength="14" x="311" y="1132.6411">no</text><text fill="#000000" font-family="sans-serif" font-size="11" lengthAdjust="spacingAndGlyphs" textLength="4" x="56" y="1114.2388">(</text><text fill="#000000" font-family="sans-serif" font-size="11" lengthAdjust="spacingAndGlyphs" text-decoration="underline" textLength="47" x="60" y="1114.2388">cpuLoad</text><text fill="#000000" font-family="sans-serif" font-size="11" lengthAdjust="spacingAndGlyphs" textLength="9" x="110" y="1114.2388">&lt;</text><text fill="#000000" font-family="sans-serif" font-size="11" lengthAdjust="spacingAndGlyphs" text-decoration="underline" textLength="177" x="122" y="1114.2388">frequencyShiftLowerThreshold)</text><text fill="#000000" font-family="sans-serif" font-size="11" lengthAdjust="spacingAndGlyphs" textLength="0" x="302" y="1114.2388"/><text fill="#000000" font-family="sans-serif" font-size="11" lengthAdjust="spacingAndGlyphs" text-decoration="underline" textLength="181" x="302" y="1114.2388">maxBelowThresholdInRowCount</text><text fill="#000000" font-family="sans-serif" font-size="11" lengthAdjust="spacingAndGlyphs" textLength="72" x="486" y="1114.2388">time in a row</text><text fill="#000000" font-family="sans-serif" font-size="11" lengthAdjust="spacingAndGlyphs" textLength="20" x="24" y="1107.8364">yes</text><rect fill="#FEFECE" filter="url(#frcef1emq8620)" height="33.9688" rx="12.5" ry="12.5" style="stroke: #A80036; stroke-width: 1.5;" width="179" x="217.5" y="1215.2354"/><text fill="#000000" font-family="sans-serif" font-size="12" lengthAdjust="spacingAndGlyphs" textLength="159" x="227.5" y="1236.374">DecreaseCpuFrequency()</text><rect fill="#ADD8E6" filter="url(#frcef1emq8620)" height="33.9688" rx="12.5" ry="12.5" style="stroke: #A80036; stroke-width: 1.5;" width="64" x="275" y="1269.2041"/><text fill="#000000" font-family="sans-serif" font-size="12" lengthAdjust="spacingAndGlyphs" textLength="44" x="285" y="1290.3428">12 MHz</text><line style="stroke: #A80036; stroke-width: 1.5;" x1="307" x2="307" y1="115.0674" y2="163.8721"/><line style="stroke: #A80036; stroke-width: 1.5;" x1="307" x2="565.5" y1="163.8721" y2="163.8721"/><polygon fill="#A80036" points="561.5,143.4697,565.5,133.4697,569.5,143.4697,565.5,139.4697" style="stroke: #A80036; stroke-width: 1.5;"/><line style="stroke: #A80036; stroke-width: 1.5;" x1="565.5" x2="565.5" y1="103.0674" y2="163.8721"/><line style="stroke: #A80036; stroke-width: 1.5;" x1="565.5" x2="553.5" y1="103.0674" y2="103.0674"/><polygon fill="#A80036" points="563.5,99.0674,553.5,103.0674,563.5,107.0674,559.5,103.0674" style="stroke: #A80036; stroke-width: 1.0;"/><line style="stroke: #A80036; stroke-width: 1.5;" x1="60.5" x2="48.5" y1="103.0674" y2="103.0674"/><polygon fill="#A80036" points="44.5,129.4697,48.5,139.4697,52.5,129.4697,48.5,133.4697" style="stroke: #A80036; stroke-width: 1.5;"/><line style="stroke: #A80036; stroke-width: 1.5;" x1="48.5" x2="48.5" y1="103.0674" y2="175.8721"/><line style="stroke: #A80036; stroke-width: 1.5;" x1="48.5" x2="307" y1="175.8721" y2="175.8721"/><line style="stroke: #A80036; stroke-width: 1.5;" x1="307" x2="307" y1="175.8721" y2="207.8721"/><polygon fill="#A80036" points="303,197.8721,307,207.8721,311,197.8721,307,201.8721" style="stroke: #A80036; stroke-width: 1.0;"/><line style="stroke: #A80036; stroke-width: 1.5;" x1="307" x2="307" y1="43.9688" y2="91.0674"/><polygon fill="#A80036" points="303,81.0674,307,91.0674,311,81.0674,307,85.0674" style="stroke: #A80036; stroke-width: 1.0;"/><line style="stroke: #A80036; stroke-width: 1.5;" x1="307" x2="307" y1="241.8408" y2="261.8408"/><polygon fill="#A80036" points="303,251.8408,307,261.8408,311,251.8408,307,255.8408" style="stroke: #A80036; stroke-width: 1.0;"/><line style="stroke: #A80036; stroke-width: 1.5;" x1="307" x2="307" y1="366.9082" y2="415.7129"/><line style="stroke: #A80036; stroke-width: 1.5;" x1="307" x2="582" y1="415.7129" y2="415.7129"/><polygon fill="#A80036" points="578,395.3105,582,385.3105,586,395.3105,582,391.3105" style="stroke: #A80036; stroke-width: 1.5;"/><line style="stroke: #A80036; stroke-width: 1.5;" x1="582" x2="582" y1="354.9082" y2="415.7129"/><line style="stroke: #A80036; stroke-width: 1.5;" x1="582" x2="570" y1="354.9082" y2="354.9082"/><polygon fill="#A80036" points="580,350.9082,570,354.9082,580,358.9082,576,354.9082" style="stroke: #A80036; stroke-width: 1.0;"/><line style="stroke: #A80036; stroke-width: 1.5;" x1="44" x2="32" y1="354.9082" y2="354.9082"/><polygon fill="#A80036" points="28,381.3105,32,391.3105,36,381.3105,32,385.3105" style="stroke: #A80036; stroke-width: 1.5;"/><line style="stroke: #A80036; stroke-width: 1.5;" x1="32" x2="32" y1="354.9082" y2="427.7129"/><line style="stroke: #A80036; stroke-width: 1.5;" x1="32" x2="307" y1="427.7129" y2="427.7129"/><line style="stroke: #A80036; stroke-width: 1.5;" x1="307" x2="307" y1="427.7129" y2="459.7129"/><polygon fill="#A80036" points="303,449.7129,307,459.7129,311,449.7129,307,453.7129" style="stroke: #A80036; stroke-width: 1.0;"/><line style="stroke: #A80036; stroke-width: 1.5;" x1="307" x2="307" y1="295.8096" y2="342.9082"/><polygon fill="#A80036" points="303,332.9082,307,342.9082,311,332.9082,307,336.9082" style="stroke: #A80036; stroke-width: 1.0;"/><line style="stroke: #A80036; stroke-width: 1.5;" x1="307" x2="307" y1="493.6816" y2="513.6816"/><polygon fill="#A80036" points="303,503.6816,307,513.6816,311,503.6816,307,507.6816" style="stroke: #A80036; stroke-width: 1.0;"/><line style="stroke: #A80036; stroke-width: 1.5;" x1="307" x2="307" y1="618.749" y2="667.5537"/><line style="stroke: #A80036; stroke-width: 1.5;" x1="307" x2="582" y1="667.5537" y2="667.5537"/><polygon fill="#A80036" points="578,647.1514,582,637.1514,586,647.1514,582,643.1514" style="stroke: #A80036; stroke-width: 1.5;"/><line style="stroke: #A80036; stroke-width: 1.5;" x1="582" x2="582" y1="606.749" y2="667.5537"/><line style="stroke: #A80036; stroke-width: 1.5;" x1="582" x2="570" y1="606.749" y2="606.749"/><polygon fill="#A80036" points="580,602.749,570,606.749,580,610.749,576,606.749" style="stroke: #A80036; stroke-width: 1.0;"/><line style="stroke: #A80036; stroke-width: 1.5;" x1="44" x2="32" y1="606.749" y2="606.749"/><polygon fill="#A80036" points="28,633.1514,32,643.1514,36,633.1514,32,637.1514" style="stroke: #A80036; stroke-width: 1.5;"/><line style="stroke: #A80036; stroke-width: 1.5;" x1="32" x2="32" y1="606.749" y2="679.5537"/><line style="stroke: #A80036; stroke-width: 1.5;" x1="32" x2="307" y1="679.5537" y2="679.5537"/><line style="stroke: #A80036; stroke-width: 1.5;" x1="307" x2="307" y1="679.5537" y2="711.5537"/><polygon fill="#A80036" points="303,701.5537,307,711.5537,311,701.5537,307,705.5537" style="stroke: #A80036; stroke-width: 1.0;"/><line style="stroke: #A80036; stroke-width: 1.5;" x1="307" x2="307" y1="547.6504" y2="594.749"/><polygon fill="#A80036" points="303,584.749,307,594.749,311,584.749,307,588.749" style="stroke: #A80036; stroke-width: 1.0;"/><line style="stroke: #A80036; stroke-width: 1.5;" x1="307" x2="307" y1="745.5225" y2="765.5225"/><polygon fill="#A80036" points="303,755.5225,307,765.5225,311,755.5225,307,759.5225" style="stroke: #A80036; stroke-width: 1.0;"/><line style="stroke: #A80036; stroke-width: 1.5;" x1="307" x2="307" y1="870.5898" y2="919.3945"/><line style="stroke: #A80036; stroke-width: 1.5;" x1="307" x2="582" y1="919.3945" y2="919.3945"/><polygon fill="#A80036" points="578,898.9922,582,888.9922,586,898.9922,582,894.9922" style="stroke: #A80036; stroke-width: 1.5;"/><line style="stroke: #A80036; stroke-width: 1.5;" x1="582" x2="582" y1="858.5898" y2="919.3945"/><line style="stroke: #A80036; stroke-width: 1.5;" x1="582" x2="570" y1="858.5898" y2="858.5898"/><polygon fill="#A80036" points="580,854.5898,570,858.5898,580,862.5898,576,858.5898" style="stroke: #A80036; stroke-width: 1.0;"/><line style="stroke: #A80036; stroke-width: 1.5;" x1="44" x2="32" y1="858.5898" y2="858.5898"/><polygon fill="#A80036" points="28,884.9922,32,894.9922,36,884.9922,32,888.9922" style="stroke: #A80036; stroke-width: 1.5;"/><line style="stroke: #A80036; stroke-width: 1.5;" x1="32" x2="32" y1="858.5898" y2="931.3945"/><line style="stroke: #A80036; stroke-width: 1.5;" x1="32" x2="307" y1="931.3945" y2="931.3945"/><line style="stroke: #A80036; stroke-width: 1.5;" x1="307" x2="307" y1="931.3945" y2="963.3945"/><polygon fill="#A80036" points="303,953.3945,307,963.3945,311,953.3945,307,957.3945" style="stroke: #A80036; stroke-width: 1.0;"/><line style="stroke: #A80036; stroke-width: 1.5;" x1="307" x2="307" y1="799.4912" y2="846.5898"/><polygon fill="#A80036" points="303,836.5898,307,846.5898,311,836.5898,307,840.5898" style="stroke: #A80036; stroke-width: 1.0;"/><line style="stroke: #A80036; stroke-width: 1.5;" x1="307" x2="307" y1="997.3633" y2="1017.3633"/><polygon fill="#A80036" points="303,1007.3633,307,1017.3633,311,1007.3633,307,1011.3633" style="stroke: #A80036; stroke-width: 1.0;"/><line style="stroke: #A80036; stroke-width: 1.5;" x1="307" x2="307" y1="1122.4307" y2="1171.2354"/><line style="stroke: #A80036; stroke-width: 1.5;" x1="307" x2="582" y1="1171.2354" y2="1171.2354"/><polygon fill="#A80036" points="578,1150.833,582,1140.833,586,1150.833,582,1146.833" style="stroke: #A80036; stroke-width: 1.5;"/><line style="stroke: #A80036; stroke-width: 1.5;" x1="582" x2="582" y1="1110.4307" y2="1171.2354"/><line style="stroke: #A80036; stroke-width: 1.5;" x1="582" x2="570" y1="1110.4307" y2="1110.4307"/><polygon fill="#A80036" points="580,1106.4307,570,1110.4307,580,1114.4307,576,1110.4307" style="stroke: #A80036; stroke-width: 1.0;"/><line style="stroke: #A80036; stroke-width: 1.5;" x1="44" x2="32" y1="1110.4307" y2="1110.4307"/><polygon fill="#A80036" points="28,1136.833,32,1146.833,36,1136.833,32,1140.833" style="stroke: #A80036; stroke-width: 1.5;"/><line style="stroke: #A80036; stroke-width: 1.5;" x1="32" x2="32" y1="1110.4307" y2="1183.2354"/><line style="stroke: #A80036; stroke-width: 1.5;" x1="32" x2="307" y1="1183.2354" y2="1183.2354"/><line style="stroke: #A80036; stroke-width: 1.5;" x1="307" x2="307" y1="1183.2354" y2="1215.2354"/><polygon fill="#A80036" points="303,1205.2354,307,1215.2354,311,1205.2354,307,1209.2354" style="stroke: #A80036; stroke-width: 1.0;"/><line style="stroke: #A80036; stroke-width: 1.5;" x1="307" x2="307" y1="1051.332" y2="1098.4307"/><polygon fill="#A80036" points="303,1088.4307,307,1098.4307,311,1088.4307,307,1092.4307" style="stroke: #A80036; stroke-width: 1.0;"/><line style="stroke: #A80036; stroke-width: 1.5;" x1="307" x2="307" y1="1249.2041" y2="1269.2041"/><polygon fill="#A80036" points="303,1259.2041,307,1269.2041,311,1259.2041,307,1263.2041" style="stroke: #A80036; stroke-width: 1.0;"/><!--MD5=[ede616fe7ee515aa5e6c312d4507ff91]
@startuml
skinparam BackgroundColor F0F0F0

#lightblue :528 MHz;

partition "**loop** UpdateCpuFrequency interval" {
	while ((__cpuLoad__ < __frequencyShiftLowerThreshold)__ __maxBelowThresholdCount__ time in a row) is (no)
	
	endwhile (yes)
	
	note right
	  Minimum execution time:
	  __maxBelowThresholdCount__ * __UpdateCpuFrequencyInterval__
	  ====
	  Currently it is 30 * 100 ms = <b> 3s </b>
	end note
}

:DecreaseCpuFrequency();

#lightblue :264 MHz;

partition "**loop** UpdateCpuFrequency interval" {
	while ((__cpuLoad__ < __frequencyShiftLowerThreshold)__ __maxBelowThresholdInRowCount__ time in a row) is (no)
	
	endwhile (yes)
	
	note right
	  Minimum execution time:
	  __maxBelowThresholdInRowCount__ * __UpdateCpuFrequencyInterval__
	  ====
	  Currently it is 10 * 100 ms = <b> 1s </b>
	end note
}

:DecreaseCpuFrequency();

#lightblue :132 MHz;

partition "**loop** UpdateCpuFrequency interval" {
	while ((__cpuLoad__ < __frequencyShiftLowerThreshold)__ __maxBelowThresholdInRowCount__ time in a row) is (no)
	
	endwhile (yes)
	
	note right
	  Minimum execution time:
	  __maxBelowThresholdInRowCount__ * __UpdateCpuFrequencyInterval__
	  ====
	  Currently it is 10 * 100 ms = <b> 1s </b>
	end note	
}
:DecreaseCpuFrequency();

#lightblue :66 MHz;

partition "**loop** UpdateCpuFrequency interval" {
	while ((__cpuLoad__ < __frequencyShiftLowerThreshold)__ __maxBelowThresholdInRowCount__ time in a row) is (no)
	
	endwhile (yes)
	
	note right
	  Minimum execution time:
	  __maxBelowThresholdInRowCount__ * __UpdateCpuFrequencyInterval__
	  ====
	  Currently it is 10 * 100 ms = <b> 1s </b>
	end note	
}
:DecreaseCpuFrequency();

#lightblue :24 MHz;

partition "**loop** UpdateCpuFrequency interval" {
	while ((__cpuLoad__ < __frequencyShiftLowerThreshold)__ __maxBelowThresholdInRowCount__ time in a row) is (no)
	
	endwhile (yes)
	
	note right
	  Minimum execution time:
	  __maxBelowThresholdInRowCount__ * __UpdateCpuFrequencyInterval__
	  ====
	  Currently it is 10 * 100 ms = <b> 1s </b>
	end note	
}
:DecreaseCpuFrequency();

#lightblue :12 MHz;


@enduml

PlantUML version 1.2020.02(Sun Mar 01 05:22:07 EST 2020)
(GPL source distribution)
Java Runtime: OpenJDK Runtime Environment
JVM: OpenJDK 64-Bit Server VM
Java Version: 11.0.14.1+1-post-Debian-1
Operating System: Linux
Default Encoding: UTF-8
Language: en
Country: US
--></g></svg>