<?xml version="1.0" encoding="UTF-8" standalone="no"?><svg xmlns="http://www.w3.org/2000/svg" xmlns:xlink="http://www.w3.org/1999/xlink" contentScriptType="application/ecmascript" contentStyleType="text/css" height="306px" preserveAspectRatio="none" style="width:973px;height:306px;background:#F0F0F0;" version="1.1" viewBox="0 0 973 306" width="973px" zoomAndPan="magnify"><defs><filter height="300%" id="fli7vxdfilfd" width="300%" x="-1" y="-1"><feGaussianBlur result="blurOut" stdDeviation="2.0"/><feColorMatrix in="blurOut" result="blurOut2" type="matrix" values="0 0 0 0 0 0 0 0 0 0 0 0 0 0 0 0 0 0 .4 0"/><feOffset dx="4.0" dy="4.0" in="blurOut2" result="blurOut3"/><feBlend in="SourceGraphic" in2="blurOut3" mode="normal"/></filter></defs><g><rect fill="#ADD8E6" filter="url(#fli7vxdfilfd)" height="33.9688" rx="12.5" ry="12.5" style="stroke: #A80036; stroke-width: 1.5;" width="64" x="258.5" y="10"/><text fill="#000000" font-family="sans-serif" font-size="12" lengthAdjust="spacingAndGlyphs" textLength="44" x="268.5" y="31.1387">12 MHz</text><rect fill="#FFFFFF" filter="url(#fli7vxdfilfd)" height="133.1016" style="stroke: #000000; stroke-width: 2.0;" width="952" x="10" y="54.7705"/><path d="M262,55.7705 L262,64.0674 L252,74.0674 L10,74.0674 " fill="none" style="stroke: #000000; stroke-width: 2.0;"/><text fill="#000000" font-family="sans-serif" font-size="14" font-weight="bold" lengthAdjust="spacingAndGlyphs" textLength="34" x="13" y="68.7656">loop</text><text fill="#000000" font-family="sans-serif" font-size="14" lengthAdjust="spacingAndGlyphs" textLength="204" x="51" y="68.7656">UpdateCpuFrequency interval</text><path d="M563,100.7705 L563,166.1689 L952,166.1689 L952,110.7705 L942,100.7705 L563,100.7705 " fill="#FBFB77" filter="url(#fli7vxdfilfd)" style="stroke: #A80036; stroke-width: 1.0;"/><path d="M942,100.7705 L942,110.7705 L952,110.7705 L942,100.7705 " fill="#FBFB77" style="stroke: #A80036; stroke-width: 1.0;"/><text fill="#000000" font-family="sans-serif" font-size="13" lengthAdjust="spacingAndGlyphs" textLength="162" x="569" y="117.8374">Minimum execution time:</text><text fill="#000000" font-family="sans-serif" font-size="13" lengthAdjust="spacingAndGlyphs" text-decoration="underline" textLength="168" x="569" y="132.9702">maxAboveThresholdCount</text><text fill="#000000" font-family="sans-serif" font-size="13" lengthAdjust="spacingAndGlyphs" textLength="7" x="741" y="132.9702">*</text><text fill="#000000" font-family="sans-serif" font-size="13" lengthAdjust="spacingAndGlyphs" text-decoration="underline" textLength="185" x="752" y="132.9702">UpdateCpuFrequencyInterval</text><line style="stroke: #A80036; stroke-width: 1.0;" x1="563" x2="952" y1="141.0361" y2="141.0361"/><line style="stroke: #A80036; stroke-width: 1.0;" x1="563" x2="952" y1="143.0361" y2="143.0361"/><text fill="#000000" font-family="sans-serif" font-size="13" lengthAdjust="spacingAndGlyphs" textLength="174" x="569" y="158.103">Currently it is 3 * 100 ms =</text><text fill="#000000" font-family="sans-serif" font-size="13" font-weight="bold" lengthAdjust="spacingAndGlyphs" textLength="49" x="752" y="158.103">300ms</text><polygon fill="#FEFECE" filter="url(#fli7vxdfilfd)" points="56,91.0674,525,91.0674,537,103.0674,525,115.0674,56,115.0674,44,103.0674,56,91.0674" style="stroke: #A80036; stroke-width: 1.5;"/><text fill="#000000" font-family="sans-serif" font-size="11" lengthAdjust="spacingAndGlyphs" textLength="14" x="294.5" y="125.2778">no</text><text fill="#000000" font-family="sans-serif" font-size="11" lengthAdjust="spacingAndGlyphs" textLength="4" x="56" y="106.8755">(</text><text fill="#000000" font-family="sans-serif" font-size="11" lengthAdjust="spacingAndGlyphs" text-decoration="underline" textLength="47" x="60" y="106.8755">cpuLoad</text><text fill="#000000" font-family="sans-serif" font-size="11" lengthAdjust="spacingAndGlyphs" textLength="9" x="110" y="106.8755">&gt;</text><text fill="#000000" font-family="sans-serif" font-size="11" lengthAdjust="spacingAndGlyphs" text-decoration="underline" textLength="177" x="122" y="106.8755">frequencyShiftUpperThreshold)</text><text fill="#000000" font-family="sans-serif" font-size="11" lengthAdjust="spacingAndGlyphs" textLength="0" x="302" y="106.8755"/><text fill="#000000" font-family="sans-serif" font-size="11" lengthAdjust="spacingAndGlyphs" text-decoration="underline" textLength="148" x="302" y="106.8755">maxAboveThresholdCount</text><text fill="#000000" font-family="sans-serif" font-size="11" lengthAdjust="spacingAndGlyphs" textLength="72" x="453" y="106.8755">time in a row</text><text fill="#000000" font-family="sans-serif" font-size="11" lengthAdjust="spacingAndGlyphs" textLength="20" x="24" y="100.4731">yes</text><rect fill="#FEFECE" filter="url(#fli7vxdfilfd)" height="33.9688" rx="12.5" ry="12.5" style="stroke: #A80036; stroke-width: 1.5;" width="173" x="204" y="207.8721"/><text fill="#000000" font-family="sans-serif" font-size="12" lengthAdjust="spacingAndGlyphs" textLength="153" x="214" y="229.0107">IncreaseCpuFrequency()</text><rect fill="#ADD8E6" filter="url(#fli7vxdfilfd)" height="33.9688" rx="12.5" ry="12.5" style="stroke: #A80036; stroke-width: 1.5;" width="72" x="254.5" y="261.8408"/><text fill="#000000" font-family="sans-serif" font-size="12" lengthAdjust="spacingAndGlyphs" textLength="52" x="264.5" y="282.9795">528 MHz</text><line style="stroke: #A80036; stroke-width: 1.5;" x1="290.5" x2="290.5" y1="115.0674" y2="163.8721"/><line style="stroke: #A80036; stroke-width: 1.5;" x1="290.5" x2="549" y1="163.8721" y2="163.8721"/><polygon fill="#A80036" points="545,143.4697,549,133.4697,553,143.4697,549,139.4697" style="stroke: #A80036; stroke-width: 1.5;"/><line style="stroke: #A80036; stroke-width: 1.5;" x1="549" x2="549" y1="103.0674" y2="163.8721"/><line style="stroke: #A80036; stroke-width: 1.5;" x1="549" x2="537" y1="103.0674" y2="103.0674"/><polygon fill="#A80036" points="547,99.0674,537,103.0674,547,107.0674,543,103.0674" style="stroke: #A80036; stroke-width: 1.0;"/><line style="stroke: #A80036; stroke-width: 1.5;" x1="44" x2="32" y1="103.0674" y2="103.0674"/><polygon fill="#A80036" points="28,129.4697,32,139.4697,36,129.4697,32,133.4697" style="stroke: #A80036; stroke-width: 1.5;"/><line style="stroke: #A80036; stroke-width: 1.5;" x1="32" x2="32" y1="103.0674" y2="175.8721"/><line style="stroke: #A80036; stroke-width: 1.5;" x1="32" x2="290.5" y1="175.8721" y2="175.8721"/><line style="stroke: #A80036; stroke-width: 1.5;" x1="290.5" x2="290.5" y1="175.8721" y2="207.8721"/><polygon fill="#A80036" points="286.5,197.8721,290.5,207.8721,294.5,197.8721,290.5,201.8721" style="stroke: #A80036; stroke-width: 1.0;"/><line style="stroke: #A80036; stroke-width: 1.5;" x1="290.5" x2="290.5" y1="43.9688" y2="91.0674"/><polygon fill="#A80036" points="286.5,81.0674,290.5,91.0674,294.5,81.0674,290.5,85.0674" style="stroke: #A80036; stroke-width: 1.0;"/><line style="stroke: #A80036; stroke-width: 1.5;" x1="290.5" x2="290.5" y1="241.8408" y2="261.8408"/><polygon fill="#A80036" points="286.5,251.8408,290.5,261.8408,294.5,251.8408,290.5,255.8408" style="stroke: #A80036; stroke-width: 1.0;"/><!--MD5=[d5f5b4e4a4fbdaee3f59daa047c052a4]
@startuml
skinparam BackgroundColor F0F0F0

#lightblue :12 MHz;

partition "**loop** UpdateCpuFrequency interval" {
	while ((__cpuLoad__ > __frequencyShiftUpperThreshold)__ __maxAboveThresholdCount__ time in a row) is (no)
	
	endwhile (yes)
	
	note right
	  Minimum execution time:
	  __maxAboveThresholdCount__ * __UpdateCpuFrequencyInterval__
	  ====
	  Currently it is 3 * 100 ms = <b> 300ms </b>
	end note
}
:IncreaseCpuFrequency();

#lightblue :528 MHz;
@enduml

PlantUML version 1.2020.02(Sun Mar 01 05:22:07 EST 2020)
(GPL source distribution)
Java Runtime: OpenJDK Runtime Environment
JVM: OpenJDK 64-Bit Server VM
Java Version: 11.0.14.1+1-post-Debian-1
Operating System: Linux
Default Encoding: UTF-8
Language: en
Country: US
--></g></svg>