<?xml version="1.0" encoding="UTF-8" standalone="no"?><svg xmlns="http://www.w3.org/2000/svg" xmlns:xlink="http://www.w3.org/1999/xlink" contentScriptType="application/ecmascript" contentStyleType="text/css" height="250px" preserveAspectRatio="none" style="width:389px;height:250px;background:#F0F0F0;" version="1.1" viewBox="0 0 389 250" width="389px" zoomAndPan="magnify"><defs><filter height="300%" id="fqlbc8rcchc4r" width="300%" x="-1" y="-1"><feGaussianBlur result="blurOut" stdDeviation="2.0"/><feColorMatrix in="blurOut" result="blurOut2" type="matrix" values="0 0 0 0 0 0 0 0 0 0 0 0 0 0 0 0 0 0 .4 0"/><feOffset dx="4.0" dy="4.0" in="blurOut2" result="blurOut3"/><feBlend in="SourceGraphic" in2="blurOut3" mode="normal"/></filter></defs><g><rect fill="#ADD8E6" filter="url(#fqlbc8rcchc4r)" height="33.9688" rx="12.5" ry="12.5" style="stroke: #A80036; stroke-width: 1.5;" width="64" x="137.5" y="10"/><text fill="#000000" font-family="sans-serif" font-size="12" lengthAdjust="spacingAndGlyphs" textLength="44" x="147.5" y="31.1387">12 MHz</text><rect fill="#FFFFFF" filter="url(#fqlbc8rcchc4r)" height="130.668" style="stroke: #000000; stroke-width: 2.0;" width="368" x="10" y="54.7705"/><path d="M119,55.7705 L119,64.0674 L109,74.0674 L10,74.0674 " fill="none" style="stroke: #000000; stroke-width: 2.0;"/><text fill="#000000" font-family="sans-serif" font-size="14" font-weight="bold" lengthAdjust="spacingAndGlyphs" textLength="94" x="13" y="68.7656">immediately</text><rect fill="#FEFECE" filter="url(#fqlbc8rcchc4r)" height="33.9688" rx="12.5" ry="12.5" style="stroke: #A80036; stroke-width: 1.5;" width="177" x="81" y="139.4697"/><text fill="#000000" font-family="sans-serif" font-size="12" lengthAdjust="spacingAndGlyphs" textLength="153" x="95" y="160.6084">IncreaseCpuFrequency()</text><polygon fill="#FEFECE" filter="url(#fqlbc8rcchc4r)" points="32,91.0674,307,91.0674,319,103.0674,307,115.0674,32,115.0674,20,103.0674,32,91.0674" style="stroke: #A80036; stroke-width: 1.5;"/><text fill="#000000" font-family="sans-serif" font-size="11" lengthAdjust="spacingAndGlyphs" textLength="20" x="173.5" y="125.2778">yes</text><text fill="#000000" font-family="sans-serif" font-size="11" lengthAdjust="spacingAndGlyphs" textLength="275" x="32" y="106.8755">minFrequencyRequested &gt; currentCpuFrequency</text><text fill="#000000" font-family="sans-serif" font-size="11" lengthAdjust="spacingAndGlyphs" textLength="14" x="319" y="100.4731">no</text><ellipse cx="355" cy="103.0674" fill="#FFFFFF" filter="url(#fqlbc8rcchc4r)" rx="11" ry="11" style="stroke: #000000; stroke-width: 1.0;"/><ellipse cx="355" cy="103.0674" fill="#000000" rx="6" ry="6" style="stroke: #7F7F7F; stroke-width: 1.0;"/><rect fill="#ADD8E6" filter="url(#fqlbc8rcchc4r)" height="33.9688" rx="12.5" ry="12.5" style="stroke: #A80036; stroke-width: 1.5;" width="175" x="82" y="205.4385"/><text fill="#000000" font-family="sans-serif" font-size="12" lengthAdjust="spacingAndGlyphs" textLength="155" x="92" y="226.5771">minFrequencyRequested</text><line style="stroke: #A80036; stroke-width: 1.5;" x1="169.5" x2="169.5" y1="115.0674" y2="139.4697"/><polygon fill="#A80036" points="165.5,129.4697,169.5,139.4697,173.5,129.4697,169.5,133.4697" style="stroke: #A80036; stroke-width: 1.0;"/><line style="stroke: #A80036; stroke-width: 1.5;" x1="319" x2="344" y1="103.0674" y2="103.0674"/><polygon fill="#A80036" points="334,99.0674,344,103.0674,334,107.0674,338,103.0674" style="stroke: #A80036; stroke-width: 1.0;"/><line style="stroke: #A80036; stroke-width: 1.5;" x1="169.5" x2="169.5" y1="173.4385" y2="205.4385"/><polygon fill="#A80036" points="165.5,195.4385,169.5,205.4385,173.5,195.4385,169.5,199.4385" style="stroke: #A80036; stroke-width: 1.0;"/><line style="stroke: #A80036; stroke-width: 1.5;" x1="169.5" x2="169.5" y1="43.9688" y2="91.0674"/><polygon fill="#A80036" points="165.5,81.0674,169.5,91.0674,173.5,81.0674,169.5,85.0674" style="stroke: #A80036; stroke-width: 1.0;"/><!--MD5=[1fb87b3a314622c9fbaa7aaf55f7f17e]
@startuml
skinparam BackgroundColor F0F0F0

#lightblue :12 MHz;

partition "**immediately **" {
   if (minFrequencyRequested > currentCpuFrequency) then (yes)
  : IncreaseCpuFrequency();
  else (no) 
  stop;
  endif
}


#lightblue :minFrequencyRequested;
@enduml

PlantUML version 1.2020.02(Sun Mar 01 05:22:07 EST 2020)
(GPL source distribution)
Java Runtime: OpenJDK Runtime Environment
JVM: OpenJDK 64-Bit Server VM
Java Version: 11.0.14.1+1-post-Debian-1
Operating System: Linux
Default Encoding: UTF-8
Language: en
Country: US
--></g></svg>