<?xml version="1.0" encoding="UTF-8" standalone="no"?><svg xmlns="http://www.w3.org/2000/svg" xmlns:xlink="http://www.w3.org/1999/xlink" contentScriptType="application/ecmascript" contentStyleType="text/css" height="584px" preserveAspectRatio="none" style="width:459px;height:584px;background:#F0F0F0;" version="1.1" viewBox="0 0 459 584" width="459px" zoomAndPan="magnify"><defs><filter height="300%" id="f84ra1tfd8g9e" width="300%" x="-1" y="-1"><feGaussianBlur result="blurOut" stdDeviation="2.0"/><feColorMatrix in="blurOut" result="blurOut2" type="matrix" values="0 0 0 0 0 0 0 0 0 0 0 0 0 0 0 0 0 0 .4 0"/><feOffset dx="4.0" dy="4.0" in="blurOut2" result="blurOut3"/><feBlend in="SourceGraphic" in2="blurOut3" mode="normal"/></filter></defs><g><rect fill="#FFFFFF" filter="url(#f84ra1tfd8g9e)" height="54.1328" style="stroke: #A80036; stroke-width: 1.0;" width="10" x="278.5" y="286.125"/><rect fill="#F0F0F0" filter="url(#f84ra1tfd8g9e)" height="75.3984" style="stroke: #000000; stroke-width: 2.0;" width="394" x="54" y="380.2578"/><line style="stroke: #A80036; stroke-width: 1.0; stroke-dasharray: 5.0,5.0;" x1="31" x2="31" y1="86.2969" y2="497.6563"/><line style="stroke: #A80036; stroke-width: 1.0; stroke-dasharray: 5.0,5.0;" x1="130" x2="130" y1="86.2969" y2="497.6563"/><line style="stroke: #A80036; stroke-width: 1.0; stroke-dasharray: 5.0,5.0;" x1="283" x2="283" y1="173.2109" y2="497.6563"/><line style="stroke: #A80036; stroke-width: 1.0; stroke-dasharray: 5.0,5.0;" x1="404" x2="404" y1="86.2969" y2="497.6563"/><text fill="#000000" font-family="sans-serif" font-size="14" lengthAdjust="spacingAndGlyphs" textLength="40" x="8" y="82.9951">Driver</text><ellipse cx="31" cy="13" fill="#FEFECE" filter="url(#f84ra1tfd8g9e)" rx="8" ry="8" style="stroke: #A80036; stroke-width: 2.0;"/><path d="M31,21 L31,48 M18,29 L44,29 M31,48 L18,63 M31,48 L44,63 " fill="none" filter="url(#f84ra1tfd8g9e)" style="stroke: #A80036; stroke-width: 2.0;"/><text fill="#000000" font-family="sans-serif" font-size="14" lengthAdjust="spacingAndGlyphs" textLength="40" x="8" y="509.6514">Driver</text><ellipse cx="31" cy="522.9531" fill="#FEFECE" filter="url(#f84ra1tfd8g9e)" rx="8" ry="8" style="stroke: #A80036; stroke-width: 2.0;"/><path d="M31,530.9531 L31,557.9531 M18,538.9531 L44,538.9531 M31,557.9531 L18,572.9531 M31,557.9531 L44,572.9531 " fill="none" filter="url(#f84ra1tfd8g9e)" style="stroke: #A80036; stroke-width: 2.0;"/><rect fill="#FEFECE" filter="url(#f84ra1tfd8g9e)" height="30.2969" style="stroke: #A80036; stroke-width: 1.5;" width="129" x="64" y="51"/><text fill="#000000" font-family="sans-serif" font-size="14" lengthAdjust="spacingAndGlyphs" textLength="115" x="71" y="70.9951">System Manager</text><rect fill="#FEFECE" filter="url(#f84ra1tfd8g9e)" height="30.2969" style="stroke: #A80036; stroke-width: 1.5;" width="129" x="64" y="496.6563"/><text fill="#000000" font-family="sans-serif" font-size="14" lengthAdjust="spacingAndGlyphs" textLength="115" x="71" y="516.6514">System Manager</text><rect fill="#FEFECE" filter="url(#f84ra1tfd8g9e)" height="30.2969" style="stroke: #A80036; stroke-width: 1.5;" width="149" x="207" y="496.6563"/><text fill="#000000" font-family="sans-serif" font-size="14" lengthAdjust="spacingAndGlyphs" textLength="135" x="214" y="516.6514">Dependency Graph</text><rect fill="#FEFECE" filter="url(#f84ra1tfd8g9e)" height="30.2969" style="stroke: #A80036; stroke-width: 1.5;" width="64" x="370" y="51"/><text fill="#000000" font-family="sans-serif" font-size="14" lengthAdjust="spacingAndGlyphs" textLength="50" x="377" y="70.9951">Service</text><rect fill="#FEFECE" filter="url(#f84ra1tfd8g9e)" height="30.2969" style="stroke: #A80036; stroke-width: 1.5;" width="64" x="370" y="496.6563"/><text fill="#000000" font-family="sans-serif" font-size="14" lengthAdjust="spacingAndGlyphs" textLength="50" x="377" y="516.6514">Service</text><rect fill="#FFFFFF" filter="url(#f84ra1tfd8g9e)" height="54.1328" style="stroke: #A80036; stroke-width: 1.0;" width="10" x="278.5" y="286.125"/><polygon fill="#A80036" points="118.5,128.5625,128.5,132.5625,118.5,136.5625,122.5,132.5625" style="stroke: #A80036; stroke-width: 1.0;"/><line style="stroke: #A80036; stroke-width: 1.0;" x1="31" x2="124.5" y1="132.5625" y2="132.5625"/><text fill="#000000" font-family="sans-serif" font-size="13" lengthAdjust="spacingAndGlyphs" textLength="64" x="38" y="112.3638">Pass a list</text><text fill="#000000" font-family="sans-serif" font-size="13" lengthAdjust="spacingAndGlyphs" textLength="68" x="38" y="127.4966">of services</text><polygon fill="#A80036" points="195,157.6953,205,161.6953,195,165.6953,199,161.6953" style="stroke: #A80036; stroke-width: 1.0;"/><line style="stroke: #A80036; stroke-width: 1.0;" x1="130.5" x2="201" y1="161.6953" y2="161.6953"/><text fill="#000000" font-family="sans-serif" font-size="13" lengthAdjust="spacingAndGlyphs" textLength="41" x="137.5" y="156.6294">create</text><rect fill="#FEFECE" filter="url(#f84ra1tfd8g9e)" height="30.2969" style="stroke: #A80036; stroke-width: 1.5;" width="149" x="207" y="140.5625"/><text fill="#000000" font-family="sans-serif" font-size="14" lengthAdjust="spacingAndGlyphs" textLength="135" x="214" y="160.5576">Dependency Graph</text><polygon fill="#A80036" points="271.5,227.9922,281.5,231.9922,271.5,235.9922,275.5,231.9922" style="stroke: #A80036; stroke-width: 1.0;"/><line style="stroke: #A80036; stroke-width: 1.0;" x1="130.5" x2="277.5" y1="231.9922" y2="231.9922"/><text fill="#000000" font-family="sans-serif" font-size="13" lengthAdjust="spacingAndGlyphs" textLength="88" x="137.5" y="226.9263">addServices()</text><polygon fill="#A80036" points="266.5,282.125,276.5,286.125,266.5,290.125,270.5,286.125" style="stroke: #A80036; stroke-width: 1.0;"/><line style="stroke: #A80036; stroke-width: 1.0;" x1="130.5" x2="272.5" y1="286.125" y2="286.125"/><text fill="#000000" font-family="sans-serif" font-size="13" lengthAdjust="spacingAndGlyphs" textLength="106" x="137.5" y="281.0591">topologicalSort()</text><polygon fill="#A80036" points="141.5,336.2578,131.5,340.2578,141.5,344.2578,137.5,340.2578" style="stroke: #A80036; stroke-width: 1.0;"/><line style="stroke: #A80036; stroke-width: 1.0; stroke-dasharray: 2.0,2.0;" x1="135.5" x2="282.5" y1="340.2578" y2="340.2578"/><text fill="#000000" font-family="sans-serif" font-size="13" lengthAdjust="spacingAndGlyphs" textLength="97" x="147.5" y="335.1919">sorted services</text><line style="stroke: #A80036; stroke-width: 2.0;" x1="274.5" x2="292.5" y1="331.2578" y2="349.2578"/><line style="stroke: #A80036; stroke-width: 2.0;" x1="274.5" x2="292.5" y1="349.2578" y2="331.2578"/><path d="M54,380.2578 L131,380.2578 L131,387.2578 L121,397.2578 L54,397.2578 L54,380.2578 " fill="#EEEEEE" style="stroke: #000000; stroke-width: 1.0;"/><rect fill="none" height="75.3984" style="stroke: #000000; stroke-width: 2.0;" width="394" x="54" y="380.2578"/><text fill="#000000" font-family="sans-serif" font-size="13" font-weight="bold" lengthAdjust="spacingAndGlyphs" textLength="32" x="69" y="393.3247">loop</text><text fill="#000000" font-family="sans-serif" font-size="11" font-weight="bold" lengthAdjust="spacingAndGlyphs" textLength="231" x="146" y="392.4683">[for each service in sorted services]</text><polygon fill="#A80036" points="392,414.5234,402,418.5234,392,422.5234,396,418.5234" style="stroke: #A80036; stroke-width: 1.0;"/><line style="stroke: #A80036; stroke-width: 1.0;" x1="130.5" x2="398" y1="418.5234" y2="418.5234"/><text fill="#000000" font-family="sans-serif" font-size="13" lengthAdjust="spacingAndGlyphs" textLength="32" x="137.5" y="413.4575">Start</text><polygon fill="#A80036" points="141.5,443.6563,131.5,447.6563,141.5,451.6563,137.5,447.6563" style="stroke: #A80036; stroke-width: 1.0;"/><line style="stroke: #A80036; stroke-width: 1.0; stroke-dasharray: 2.0,2.0;" x1="135.5" x2="403" y1="447.6563" y2="447.6563"/><text fill="#000000" font-family="sans-serif" font-size="13" lengthAdjust="spacingAndGlyphs" textLength="82" x="147.5" y="442.5903">Confirmation</text><!--MD5=[7dc83128a6903fe45929d32a5aa3b16b]
@startuml
skinparam BackgroundColor F0F0F0

actor Driver
participant "System Manager" as sysmgr
participant "Dependency Graph" as graph
participant Service as srv

Driver -> sysmgr: Pass a list\nof services
sysmgr -> graph **: create

|||
sysmgr -> graph: addServices()

|||
sysmgr -> graph: topologicalSort()

|||
activate graph
graph - -> sysmgr: sorted services
deactivate graph
destroy graph
|||

loop for each service in sorted services
sysmgr -> srv: Start
srv - -> sysmgr: Confirmation
end
|||

@enduml

PlantUML version 1.2020.02(Sun Mar 01 05:22:07 EST 2020)
(GPL source distribution)
Java Runtime: OpenJDK Runtime Environment
JVM: OpenJDK 64-Bit Server VM
Java Version: 11.0.14.1+1-post-Debian-1
Operating System: Linux
Default Encoding: UTF-8
Language: en
Country: US
--></g></svg>