<?xml version="1.0" encoding="UTF-8" standalone="no"?><svg xmlns="http://www.w3.org/2000/svg" xmlns:xlink="http://www.w3.org/1999/xlink" contentScriptType="application/ecmascript" contentStyleType="text/css" height="558px" preserveAspectRatio="none" style="width:400px;height:558px;background:#F0F0F0;" version="1.1" viewBox="0 0 400 558" width="400px" zoomAndPan="magnify"><defs><filter height="300%" id="frumzay836624" width="300%" x="-1" y="-1"><feGaussianBlur result="blurOut" stdDeviation="2.0"/><feColorMatrix in="blurOut" result="blurOut2" type="matrix" values="0 0 0 0 0 0 0 0 0 0 0 0 0 0 0 0 0 0 .4 0"/><feOffset dx="4.0" dy="4.0" in="blurOut2" result="blurOut3"/><feBlend in="SourceGraphic" in2="blurOut3" mode="normal"/></filter></defs><g><!--MD5=[8909005f5aef5572453598ef5dc578cd]
class handlerInt--><rect fill="#FEFECE" filter="url(#frumzay836624)" height="86.4141" id="handlerInt" style="stroke: #A80036; stroke-width: 1.5;" width="221" x="31.5" y="327"/><ellipse cx="59.1" cy="343" fill="#B4A7E5" rx="11" ry="11" style="stroke: #A80036; stroke-width: 1.0;"/><path d="M55.0219,338.7656 L55.0219,336.6094 L62.4125,336.6094 L62.4125,338.7656 L59.9438,338.7656 L59.9438,346.8438 L62.4125,346.8438 L62.4125,349 L55.0219,349 L55.0219,346.8438 L57.4906,346.8438 L57.4906,338.7656 L55.0219,338.7656 Z "/><text fill="#000000" font-family="sans-serif" font-size="12" font-style="italic" lengthAdjust="spacingAndGlyphs" textLength="161" x="75.9" y="347.1543">LockPolicyHandlerInterface</text><line style="stroke: #A80036; stroke-width: 1.5;" x1="32.5" x2="251.5" y1="359" y2="359"/><line style="stroke: #A80036; stroke-width: 1.5;" x1="32.5" x2="251.5" y1="367" y2="367"/><polygon fill="#FFFF44" points="42.5,373,46.5,377,42.5,381,38.5,377" style="stroke: #B38D22; stroke-width: 1.0;"/><text fill="#000000" font-family="sans-serif" font-size="11" font-style="italic" lengthAdjust="spacingAndGlyphs" textLength="195" x="51.5" y="381.2104">bool preventsAutoLockByWindow()</text><polygon fill="#FFFF44" points="42.5,385.8047,46.5,389.8047,42.5,393.8047,38.5,389.8047" style="stroke: #B38D22; stroke-width: 1.0;"/><text fill="#000000" font-family="sans-serif" font-size="11" font-style="italic" lengthAdjust="spacingAndGlyphs" textLength="180" x="51.5" y="394.0151">bool preventsAutoLockByState()</text><ellipse cx="42.5" cy="403.6094" fill="#84BE84" rx="3" ry="3" style="stroke: #038048; stroke-width: 1.0;"/><text fill="#000000" font-family="sans-serif" font-size="11" lengthAdjust="spacingAndGlyphs" textLength="152" x="51.5" y="406.8198">bool preventsAutoLocking()</text><!--MD5=[f0b36ea040dad50e65ce4d637621ca4c]
class access--><rect fill="#FEFECE" filter="url(#frumzay836624)" height="86.4141" id="access" style="stroke: #A80036; stroke-width: 1.5;" width="188" x="82" y="133"/><ellipse cx="97" cy="149" fill="#B4A7E5" rx="11" ry="11" style="stroke: #A80036; stroke-width: 1.0;"/><path d="M92.9219,144.7656 L92.9219,142.6094 L100.3125,142.6094 L100.3125,144.7656 L97.8438,144.7656 L97.8438,152.8438 L100.3125,152.8438 L100.3125,155 L92.9219,155 L92.9219,152.8438 L95.3906,152.8438 L95.3906,144.7656 L92.9219,144.7656 Z "/><text fill="#000000" font-family="sans-serif" font-size="12" font-style="italic" lengthAdjust="spacingAndGlyphs" textLength="156" x="111" y="153.1543">LockPolicyAccessInterface</text><line style="stroke: #A80036; stroke-width: 1.5;" x1="83" x2="269" y1="165" y2="165"/><rect fill="none" height="6" style="stroke: #C82930; stroke-width: 1.0;" width="6" x="90" y="173"/><text fill="#000000" font-family="sans-serif" font-size="11" lengthAdjust="spacingAndGlyphs" textLength="117" x="102" y="179.2104">AutoLockPolicy policy</text><line style="stroke: #A80036; stroke-width: 1.5;" x1="83" x2="269" y1="185.8047" y2="185.8047"/><rect fill="#F24D5C" height="6" style="stroke: #C82930; stroke-width: 1.0;" width="6" x="90" y="193.8047"/><text fill="#000000" font-family="sans-serif" font-size="11" lengthAdjust="spacingAndGlyphs" textLength="52" x="102" y="200.0151">void set()</text><ellipse cx="93" cy="209.6094" fill="#84BE84" rx="3" ry="3" style="stroke: #038048; stroke-width: 1.0;"/><text fill="#000000" font-family="sans-serif" font-size="11" lengthAdjust="spacingAndGlyphs" textLength="52" x="102" y="212.8198">void get()</text><!--MD5=[30f0d63ce302d2bf17e9e696c3b69008]
class handler--><rect fill="#FEFECE" filter="url(#frumzay836624)" height="73.6094" id="handler" style="stroke: #A80036; stroke-width: 1.5;" width="281" x="91.5" y="474"/><ellipse cx="171.75" cy="490" fill="#ADD1B2" rx="11" ry="11" style="stroke: #A80036; stroke-width: 1.0;"/><path d="M174.7188,495.6406 Q174.1406,495.9375 173.5,496.0781 Q172.8594,496.2344 172.1563,496.2344 Q169.6563,496.2344 168.3281,494.5938 Q167.0156,492.9375 167.0156,489.8125 Q167.0156,486.6875 168.3281,485.0313 Q169.6563,483.375 172.1563,483.375 Q172.8594,483.375 173.5,483.5313 Q174.1563,483.6875 174.7188,483.9844 L174.7188,486.7031 Q174.0938,486.125 173.5,485.8594 Q172.9063,485.5781 172.2813,485.5781 Q170.9375,485.5781 170.25,486.6563 Q169.5625,487.7188 169.5625,489.8125 Q169.5625,491.9063 170.25,492.9844 Q170.9375,494.0469 172.2813,494.0469 Q172.9063,494.0469 173.5,493.7813 Q174.0938,493.5 174.7188,492.9219 L174.7188,495.6406 Z "/><text fill="#000000" font-family="sans-serif" font-size="12" lengthAdjust="spacingAndGlyphs" textLength="112" x="192.25" y="494.1543">LockPolicyHandler</text><line style="stroke: #A80036; stroke-width: 1.5;" x1="92.5" x2="371.5" y1="506" y2="506"/><rect fill="none" height="6" style="stroke: #C82930; stroke-width: 1.0;" width="6" x="99.5" y="514"/><text fill="#000000" font-family="sans-serif" font-size="11" lengthAdjust="spacingAndGlyphs" textLength="191" x="111.5" y="520.2104">preventsAutoLockByStateCallback</text><line style="stroke: #A80036; stroke-width: 1.5;" x1="92.5" x2="371.5" y1="526.8047" y2="526.8047"/><ellipse cx="102.5" cy="537.8047" fill="#84BE84" rx="3" ry="3" style="stroke: #038048; stroke-width: 1.0;"/><text fill="#000000" font-family="sans-serif" font-size="11" lengthAdjust="spacingAndGlyphs" textLength="255" x="111.5" y="541.0151">void setPreventsAutoLockByStateCallback(...)</text><!--MD5=[7dbd75b9b82aacf4c2b09a3278a282e5]
class launcher--><rect fill="#FEFECE" filter="url(#frumzay836624)" height="48" id="launcher" style="stroke: #A80036; stroke-width: 1.5;" width="191" x="80.5" y="8"/><ellipse cx="95.5" cy="24" fill="#ADD1B2" rx="11" ry="11" style="stroke: #A80036; stroke-width: 1.0;"/><path d="M98.4688,29.6406 Q97.8906,29.9375 97.25,30.0781 Q96.6094,30.2344 95.9063,30.2344 Q93.4063,30.2344 92.0781,28.5938 Q90.7656,26.9375 90.7656,23.8125 Q90.7656,20.6875 92.0781,19.0313 Q93.4063,17.375 95.9063,17.375 Q96.6094,17.375 97.25,17.5313 Q97.9063,17.6875 98.4688,17.9844 L98.4688,20.7031 Q97.8438,20.125 97.25,19.8594 Q96.6563,19.5781 96.0313,19.5781 Q94.6875,19.5781 94,20.6563 Q93.3125,21.7188 93.3125,23.8125 Q93.3125,25.9063 94,26.9844 Q94.6875,28.0469 96.0313,28.0469 Q96.6563,28.0469 97.25,27.7813 Q97.8438,27.5 98.4688,26.9219 L98.4688,29.6406 Z "/><text fill="#000000" font-family="sans-serif" font-size="12" lengthAdjust="spacingAndGlyphs" textLength="159" x="109.5" y="28.1543">app::ApplicationLauncher</text><line style="stroke: #A80036; stroke-width: 1.5;" x1="81.5" x2="270.5" y1="40" y2="40"/><line style="stroke: #A80036; stroke-width: 1.5;" x1="81.5" x2="270.5" y1="48" y2="48"/><!--MD5=[d26137e5d461602f48e26353ca7979f6]
class app--><rect fill="#FEFECE" filter="url(#frumzay836624)" height="48" id="app" style="stroke: #A80036; stroke-width: 1.5;" width="133" x="256.5" y="249"/><ellipse cx="271.5" cy="265" fill="#ADD1B2" rx="11" ry="11" style="stroke: #A80036; stroke-width: 1.0;"/><path d="M274.4688,270.6406 Q273.8906,270.9375 273.25,271.0781 Q272.6094,271.2344 271.9063,271.2344 Q269.4063,271.2344 268.0781,269.5938 Q266.7656,267.9375 266.7656,264.8125 Q266.7656,261.6875 268.0781,260.0313 Q269.4063,258.375 271.9063,258.375 Q272.6094,258.375 273.25,258.5313 Q273.9063,258.6875 274.4688,258.9844 L274.4688,261.7031 Q273.8438,261.125 273.25,260.8594 Q272.6563,260.5781 272.0313,260.5781 Q270.6875,260.5781 270,261.6563 Q269.3125,262.7188 269.3125,264.8125 Q269.3125,266.9063 270,267.9844 Q270.6875,269.0469 272.0313,269.0469 Q272.6563,269.0469 273.25,268.7813 Q273.8438,268.5 274.4688,267.9219 L274.4688,270.6406 Z "/><text fill="#000000" font-family="sans-serif" font-size="12" lengthAdjust="spacingAndGlyphs" textLength="101" x="285.5" y="269.1543">app::Application</text><line style="stroke: #A80036; stroke-width: 1.5;" x1="257.5" x2="388.5" y1="281" y2="281"/><line style="stroke: #A80036; stroke-width: 1.5;" x1="257.5" x2="388.5" y1="289" y2="289"/><!--MD5=[c9393f36dcd655bb531f9f5cdc49ec10]
reverse link access to handlerInt--><path d="M167.25,239.05 C167.25,239.05 167.25,326.73 167.25,326.73 " fill="none" id="access&lt;-handlerInt" style="stroke: #A80036; stroke-width: 1.0;"/><polygon fill="none" points="160.25,239.05,167.25,219.05,174.25,239.05,160.25,239.05" style="stroke: #A80036; stroke-width: 1.0;"/><!--MD5=[ed104bc6b12fbc96d5e1e24353bee221]
reverse link handlerInt to handler--><path d="M172,433.07 C172,433.07 172,473.91 172,473.91 " fill="none" id="handlerInt&lt;-handler" style="stroke: #A80036; stroke-width: 1.0;"/><polygon fill="none" points="165,433.07,172,413.07,179,433.07,165,433.07" style="stroke: #A80036; stroke-width: 1.0;"/><!--MD5=[0a92c29c73b36b68060891527f9e7146]
link launcher to app--><path d="M271.65,32 C303.26,32 330.5,32 330.5,32 C330.5,32 330.5,243.57 330.5,243.57 " fill="none" id="launcher-&gt;app" style="stroke: #A80036; stroke-width: 1.0; stroke-dasharray: 7.0,7.0;"/><polygon fill="#A80036" points="330.5,248.57,334.5,239.57,330.5,243.57,326.5,239.57,330.5,248.57" style="stroke: #A80036; stroke-width: 1.0;"/><text fill="#000000" font-family="sans-serif" font-size="13" lengthAdjust="spacingAndGlyphs" textLength="64" x="324" y="99.0669">«creates»</text><!--MD5=[2428aacdc7f89a10c285f96224597aa3]
link launcher to access--><path d="M176,56.1 C176,56.1 176,127.87 176,127.87 " fill="none" id="launcher-&gt;access" style="stroke: #A80036; stroke-width: 1.0;"/><polygon fill="#A80036" points="176,132.87,180,123.87,176,127.87,172,123.87,176,132.87" style="stroke: #A80036; stroke-width: 1.0;"/><text fill="#000000" font-family="sans-serif" font-size="13" lengthAdjust="spacingAndGlyphs" textLength="52" x="177" y="99.0669">«friend»</text><!--MD5=[95f8af4092caa30e62ed80d5e98155c7]
link launcher to handlerInt--><path d="M80.28,32 C66.03,32 56,32 56,32 C56,32 56,321.85 56,321.85 " fill="none" id="launcher-&gt;handlerInt" style="stroke: #A80036; stroke-width: 1.0;"/><polygon fill="#A80036" points="56,326.85,60,317.85,56,321.85,52,317.85,56,326.85" style="stroke: #A80036; stroke-width: 1.0;"/><text fill="#000000" font-family="sans-serif" font-size="13" lengthAdjust="spacingAndGlyphs" textLength="39" x="7" y="180.5669">«use»</text><!--MD5=[bcf77131f8f138e9b28de1b5545a4bca]
link app to handler--><path d="M314.5,297.13 C314.5,297.13 314.5,468.58 314.5,468.58 " fill="none" id="app-&gt;handler" style="stroke: #A80036; stroke-width: 1.0; stroke-dasharray: 7.0,7.0;"/><polygon fill="#A80036" points="314.5,473.58,318.5,464.58,314.5,468.58,310.5,464.58,314.5,473.58" style="stroke: #A80036; stroke-width: 1.0;"/><text fill="#000000" font-family="sans-serif" font-size="13" lengthAdjust="spacingAndGlyphs" textLength="64" x="324" y="374.5669">«creates»</text><!--MD5=[32dd08c4f6c08aa4274a05aceb2e96fe]
@startuml
skinparam BackgroundColor F0F0F0

skinparam linetype ortho

interface "LockPolicyHandlerInterface" as handlerInt
{
    {method}{abstract} # bool preventsAutoLockByWindow()
    {method}{abstract} # bool preventsAutoLockByState()
    {method} + bool preventsAutoLocking()
}

interface "LockPolicyAccessInterface" as access
{
    {field} - AutoLockPolicy policy
    {method} - void set()
    {method} + void get()
}

class "LockPolicyHandler" as handler
{
    {field} - preventsAutoLockByStateCallback
    {method} + void setPreventsAutoLockByStateCallback(...)
}

class "app::ApplicationLauncher" as launcher

class "app::Application" as app

access <|- - handlerInt
handlerInt <|- - handler

launcher..>app : <<creates>>
launcher- ->access : <<friend>>
launcher- ->handlerInt : <<use>>
app..>handler : <<creates>>

@enduml

PlantUML version 1.2020.02(Sun Mar 01 05:22:07 EST 2020)
(GPL source distribution)
Java Runtime: OpenJDK Runtime Environment
JVM: OpenJDK 64-Bit Server VM
Java Version: 11.0.12+7-post-Debian-2
Operating System: Linux
Default Encoding: UTF-8
Language: en
Country: US
--></g></svg>