<?xml version="1.0" encoding="UTF-8" standalone="no"?><svg xmlns="http://www.w3.org/2000/svg" xmlns:xlink="http://www.w3.org/1999/xlink" contentScriptType="application/ecmascript" contentStyleType="text/css" height="558px" preserveAspectRatio="none" style="width:408px;height:558px;" version="1.1" viewBox="0 0 408 558" width="408px" zoomAndPan="magnify"><defs><filter height="300%" id="f17wzgsgh6vm0a" width="300%" x="-1" y="-1"><feGaussianBlur result="blurOut" stdDeviation="2.0"/><feColorMatrix in="blurOut" result="blurOut2" type="matrix" values="0 0 0 0 0 0 0 0 0 0 0 0 0 0 0 0 0 0 .4 0"/><feOffset dx="4.0" dy="4.0" in="blurOut2" result="blurOut3"/><feBlend in="SourceGraphic" in2="blurOut3" mode="normal"/></filter></defs><g><!--class handlerInt--><rect fill="#FEFECE" filter="url(#f17wzgsgh6vm0a)" height="86.4141" id="handlerInt" style="stroke: #A80036; stroke-width: 1.5;" width="222" x="39" y="327"/><ellipse cx="63" cy="343" fill="#B4A7E5" rx="11" ry="11" style="stroke: #A80036; stroke-width: 1.0;"/><path d="M58.9219,338.7656 L58.9219,336.6094 L66.3125,336.6094 L66.3125,338.7656 L63.8438,338.7656 L63.8438,346.8438 L66.3125,346.8438 L66.3125,349 L58.9219,349 L58.9219,346.8438 L61.3906,346.8438 L61.3906,338.7656 L58.9219,338.7656 Z "/><text fill="#000000" font-family="sans-serif" font-size="12" font-style="italic" lengthAdjust="spacingAndGlyphs" textLength="170" x="79" y="347.1543">LockPolicyHandlerInterface</text><line style="stroke: #A80036; stroke-width: 1.5;" x1="40" x2="260" y1="359" y2="359"/><line style="stroke: #A80036; stroke-width: 1.5;" x1="40" x2="260" y1="367" y2="367"/><polygon fill="#FFFF44" points="50,373.9023,54,377.9023,50,381.9023,46,377.9023" style="stroke: #B38D22; stroke-width: 1.0;"/><text fill="#000000" font-family="sans-serif" font-size="11" font-style="italic" lengthAdjust="spacingAndGlyphs" textLength="196" x="59" y="381.2104">bool preventsAutoLockByWindow()</text><polygon fill="#FFFF44" points="50,386.707,54,390.707,50,394.707,46,390.707" style="stroke: #B38D22; stroke-width: 1.0;"/><text fill="#000000" font-family="sans-serif" font-size="11" font-style="italic" lengthAdjust="spacingAndGlyphs" textLength="181" x="59" y="394.0151">bool preventsAutoLockByState()</text><ellipse cx="50" cy="404.5117" fill="#84BE84" rx="3" ry="3" style="stroke: #038048; stroke-width: 1.0;"/><text fill="#000000" font-family="sans-serif" font-size="11" lengthAdjust="spacingAndGlyphs" textLength="153" x="59" y="406.8198">bool preventsAutoLocking()</text><!--class access--><rect fill="#FEFECE" filter="url(#f17wzgsgh6vm0a)" height="86.4141" id="access" style="stroke: #A80036; stroke-width: 1.5;" width="195" x="82.5" y="133"/><ellipse cx="97.5" cy="149" fill="#B4A7E5" rx="11" ry="11" style="stroke: #A80036; stroke-width: 1.0;"/><path d="M93.4219,144.7656 L93.4219,142.6094 L100.8125,142.6094 L100.8125,144.7656 L98.3438,144.7656 L98.3438,152.8438 L100.8125,152.8438 L100.8125,155 L93.4219,155 L93.4219,152.8438 L95.8906,152.8438 L95.8906,144.7656 L93.4219,144.7656 Z "/><text fill="#000000" font-family="sans-serif" font-size="12" font-style="italic" lengthAdjust="spacingAndGlyphs" textLength="163" x="111.5" y="153.1543">LockPolicyAccessInterface</text><line style="stroke: #A80036; stroke-width: 1.5;" x1="83.5" x2="276.5" y1="165" y2="165"/><rect fill="none" height="6" style="stroke: #C82930; stroke-width: 1.0;" width="6" x="90.5" y="173.9023"/><text fill="#000000" font-family="sans-serif" font-size="11" lengthAdjust="spacingAndGlyphs" textLength="118" x="102.5" y="179.2104">AutoLockPolicy policy</text><line style="stroke: #A80036; stroke-width: 1.5;" x1="83.5" x2="276.5" y1="185.8047" y2="185.8047"/><rect fill="#F24D5C" height="6" style="stroke: #C82930; stroke-width: 1.0;" width="6" x="90.5" y="194.707"/><text fill="#000000" font-family="sans-serif" font-size="11" lengthAdjust="spacingAndGlyphs" textLength="53" x="102.5" y="200.0151">void set()</text><ellipse cx="93.5" cy="210.5117" fill="#84BE84" rx="3" ry="3" style="stroke: #038048; stroke-width: 1.0;"/><text fill="#000000" font-family="sans-serif" font-size="11" lengthAdjust="spacingAndGlyphs" textLength="53" x="102.5" y="212.8198">void get()</text><!--class handler--><rect fill="#FEFECE" filter="url(#f17wzgsgh6vm0a)" height="73.6094" id="handler" style="stroke: #A80036; stroke-width: 1.5;" width="282" x="99" y="474"/><ellipse cx="179.75" cy="490" fill="#ADD1B2" rx="11" ry="11" style="stroke: #A80036; stroke-width: 1.0;"/><path d="M182.7188,495.6406 Q182.1406,495.9375 181.5,496.0781 Q180.8594,496.2344 180.1563,496.2344 Q177.6563,496.2344 176.3281,494.5938 Q175.0156,492.9375 175.0156,489.8125 Q175.0156,486.6875 176.3281,485.0313 Q177.6563,483.375 180.1563,483.375 Q180.8594,483.375 181.5,483.5313 Q182.1563,483.6875 182.7188,483.9844 L182.7188,486.7031 Q182.0938,486.125 181.5,485.8594 Q180.9063,485.5781 180.2813,485.5781 Q178.9375,485.5781 178.25,486.6563 Q177.5625,487.7188 177.5625,489.8125 Q177.5625,491.9063 178.25,492.9844 Q178.9375,494.0469 180.2813,494.0469 Q180.9063,494.0469 181.5,493.7813 Q182.0938,493.5 182.7188,492.9219 L182.7188,495.6406 Z "/><text fill="#000000" font-family="sans-serif" font-size="12" lengthAdjust="spacingAndGlyphs" textLength="112" x="200.25" y="494.1543">LockPolicyHandler</text><line style="stroke: #A80036; stroke-width: 1.5;" x1="100" x2="380" y1="506" y2="506"/><rect fill="none" height="6" style="stroke: #C82930; stroke-width: 1.0;" width="6" x="107" y="514.9023"/><text fill="#000000" font-family="sans-serif" font-size="11" lengthAdjust="spacingAndGlyphs" textLength="191" x="119" y="520.2104">preventsAutoLockByStateCallback</text><line style="stroke: #A80036; stroke-width: 1.5;" x1="100" x2="380" y1="526.8047" y2="526.8047"/><ellipse cx="110" cy="538.707" fill="#84BE84" rx="3" ry="3" style="stroke: #038048; stroke-width: 1.0;"/><text fill="#000000" font-family="sans-serif" font-size="11" lengthAdjust="spacingAndGlyphs" textLength="256" x="119" y="541.0151">void setPreventsAutoLockByStateCallback(...)</text><!--class launcher--><rect fill="#FEFECE" filter="url(#f17wzgsgh6vm0a)" height="48" id="launcher" style="stroke: #A80036; stroke-width: 1.5;" width="191" x="84.5" y="8"/><ellipse cx="99.5" cy="24" fill="#ADD1B2" rx="11" ry="11" style="stroke: #A80036; stroke-width: 1.0;"/><path d="M102.4688,29.6406 Q101.8906,29.9375 101.25,30.0781 Q100.6094,30.2344 99.9063,30.2344 Q97.4063,30.2344 96.0781,28.5938 Q94.7656,26.9375 94.7656,23.8125 Q94.7656,20.6875 96.0781,19.0313 Q97.4063,17.375 99.9063,17.375 Q100.6094,17.375 101.25,17.5313 Q101.9063,17.6875 102.4688,17.9844 L102.4688,20.7031 Q101.8438,20.125 101.25,19.8594 Q100.6563,19.5781 100.0313,19.5781 Q98.6875,19.5781 98,20.6563 Q97.3125,21.7188 97.3125,23.8125 Q97.3125,25.9063 98,26.9844 Q98.6875,28.0469 100.0313,28.0469 Q100.6563,28.0469 101.25,27.7813 Q101.8438,27.5 102.4688,26.9219 L102.4688,29.6406 Z "/><text fill="#000000" font-family="sans-serif" font-size="12" lengthAdjust="spacingAndGlyphs" textLength="159" x="113.5" y="28.1543">app::ApplicationLauncher</text><line style="stroke: #A80036; stroke-width: 1.5;" x1="85.5" x2="274.5" y1="40" y2="40"/><line style="stroke: #A80036; stroke-width: 1.5;" x1="85.5" x2="274.5" y1="48" y2="48"/><!--class app--><rect fill="#FEFECE" filter="url(#f17wzgsgh6vm0a)" height="48" id="app" style="stroke: #A80036; stroke-width: 1.5;" width="133" x="264.5" y="249"/><ellipse cx="279.5" cy="265" fill="#ADD1B2" rx="11" ry="11" style="stroke: #A80036; stroke-width: 1.0;"/><path d="M282.4688,270.6406 Q281.8906,270.9375 281.25,271.0781 Q280.6094,271.2344 279.9063,271.2344 Q277.4063,271.2344 276.0781,269.5938 Q274.7656,267.9375 274.7656,264.8125 Q274.7656,261.6875 276.0781,260.0313 Q277.4063,258.375 279.9063,258.375 Q280.6094,258.375 281.25,258.5313 Q281.9063,258.6875 282.4688,258.9844 L282.4688,261.7031 Q281.8438,261.125 281.25,260.8594 Q280.6563,260.5781 280.0313,260.5781 Q278.6875,260.5781 278,261.6563 Q277.3125,262.7188 277.3125,264.8125 Q277.3125,266.9063 278,267.9844 Q278.6875,269.0469 280.0313,269.0469 Q280.6563,269.0469 281.25,268.7813 Q281.8438,268.5 282.4688,267.9219 L282.4688,270.6406 Z "/><text fill="#000000" font-family="sans-serif" font-size="12" lengthAdjust="spacingAndGlyphs" textLength="101" x="293.5" y="269.1543">app::Application</text><line style="stroke: #A80036; stroke-width: 1.5;" x1="265.5" x2="396.5" y1="281" y2="281"/><line style="stroke: #A80036; stroke-width: 1.5;" x1="265.5" x2="396.5" y1="289" y2="289"/><!--link access to handlerInt--><path d="M171.75,239.05 C171.75,239.05 171.75,326.73 171.75,326.73 " fill="none" id="access-handlerInt" style="stroke: #A80036; stroke-width: 1.0;"/><polygon fill="none" points="164.75,239.05,171.75,219.05,178.75,239.05,164.75,239.05" style="stroke: #A80036; stroke-width: 1.0;"/><!--link handlerInt to handler--><path d="M180,433.07 C180,433.07 180,473.91 180,473.91 " fill="none" id="handlerInt-handler" style="stroke: #A80036; stroke-width: 1.0;"/><polygon fill="none" points="173,433.07,180,413.07,187,433.07,173,433.07" style="stroke: #A80036; stroke-width: 1.0;"/><!--link launcher to app--><path d="M275.7,32 C308.68,32 337.5,32 337.5,32 C337.5,32 337.5,243.57 337.5,243.57 " fill="none" id="launcher-app" style="stroke: #A80036; stroke-width: 1.0; stroke-dasharray: 7.0,7.0;"/><polygon fill="#A80036" points="337.5,248.57,341.5,239.57,337.5,243.57,333.5,239.57,337.5,248.57" style="stroke: #A80036; stroke-width: 1.0;"/><text fill="#000000" font-family="sans-serif" font-size="13" lengthAdjust="spacingAndGlyphs" textLength="64" x="332" y="99.0669">«creates»</text><!--link launcher to access--><path d="M180,56.1 C180,56.1 180,127.87 180,127.87 " fill="none" id="launcher-access" style="stroke: #A80036; stroke-width: 1.0;"/><polygon fill="#A80036" points="180,132.87,184,123.87,180,127.87,176,123.87,180,132.87" style="stroke: #A80036; stroke-width: 1.0;"/><text fill="#000000" font-family="sans-serif" font-size="13" lengthAdjust="spacingAndGlyphs" textLength="52" x="181" y="99.0669">«friend»</text><!--link launcher to handlerInt--><path d="M84.31,32 C70.45,32 60.75,32 60.75,32 C60.75,32 60.75,321.85 60.75,321.85 " fill="none" id="launcher-handlerInt" style="stroke: #A80036; stroke-width: 1.0;"/><polygon fill="#A80036" points="60.75,326.85,64.75,317.85,60.75,321.85,56.75,317.85,60.75,326.85" style="stroke: #A80036; stroke-width: 1.0;"/><text fill="#000000" font-family="sans-serif" font-size="13" lengthAdjust="spacingAndGlyphs" textLength="39" x="7" y="180.5669">«use»</text><!--link app to handler--><path d="M322.75,297.13 C322.75,297.13 322.75,468.58 322.75,468.58 " fill="none" id="app-handler" style="stroke: #A80036; stroke-width: 1.0; stroke-dasharray: 7.0,7.0;"/><polygon fill="#A80036" points="322.75,473.58,326.75,464.58,322.75,468.58,318.75,464.58,322.75,473.58" style="stroke: #A80036; stroke-width: 1.0;"/><text fill="#000000" font-family="sans-serif" font-size="13" lengthAdjust="spacingAndGlyphs" textLength="64" x="332" y="374.5669">«creates»</text><!--
@startuml

skinparam linetype ortho

interface "LockPolicyHandlerInterface" as handlerInt
{
    {method}{abstract} # bool preventsAutoLockByWindow()
    {method}{abstract} # bool preventsAutoLockByState()
    {method} + bool preventsAutoLocking()
}

interface "LockPolicyAccessInterface" as access
{
    {field} - AutoLockPolicy policy
    {method} - void set()
    {method} + void get()
}

class "LockPolicyHandler" as handler
{
    {field} - preventsAutoLockByStateCallback
    {method} + void setPreventsAutoLockByStateCallback(...)
}

class "app::ApplicationLauncher" as launcher

class "app::Application" as app

access <|- - handlerInt
handlerInt <|- - handler

launcher..>app : <<creates>>
launcher- ->access : <<friend>>
launcher- ->handlerInt : <<use>>
app..>handler : <<creates>>

@enduml

PlantUML version 1.2018.13(Mon Nov 26 18:11:51 CET 2018)
(GPL source distribution)
Java Runtime: OpenJDK Runtime Environment
JVM: OpenJDK 64-Bit Server VM
Java Version: 11.0.11+9-Ubuntu-0ubuntu2.20.04
Operating System: Linux
OS Version: 5.8.0-53-generic
Default Encoding: UTF-8
Language: en
Country: US
--></g></svg>