<?xml version="1.0" encoding="UTF-8" standalone="no"?><svg xmlns="http://www.w3.org/2000/svg" xmlns:xlink="http://www.w3.org/1999/xlink" contentScriptType="application/ecmascript" contentStyleType="text/css" height="362px" preserveAspectRatio="none" style="width:237px;height:362px;background:#F0F0F0;" version="1.1" viewBox="0 0 237 362" width="237px" zoomAndPan="magnify"><defs><filter height="300%" id="fopi8trgpo6gf" width="300%" x="-1" y="-1"><feGaussianBlur result="blurOut" stdDeviation="2.0"/><feColorMatrix in="blurOut" result="blurOut2" type="matrix" values="0 0 0 0 0 0 0 0 0 0 0 0 0 0 0 0 0 0 .4 0"/><feOffset dx="4.0" dy="4.0" in="blurOut2" result="blurOut3"/><feBlend in="SourceGraphic" in2="blurOut3" mode="normal"/></filter></defs><g><path d="M147.5,10 L147.5,18.5664 L127.5,22.5664 L147.5,26.5664 L147.5,35.1328 A0,0 0 0 0 147.5,35.1328 L214.5,35.1328 A0,0 0 0 0 214.5,35.1328 L214.5,20 L204.5,10 L147.5,10 A0,0 0 0 0 147.5,10 " fill="#FBFB77" filter="url(#fopi8trgpo6gf)" style="stroke: #A80036; stroke-width: 1.0;"/><path d="M204.5,10 L204.5,20 L214.5,20 L204.5,10 " fill="#FBFB77" style="stroke: #A80036; stroke-width: 1.0;"/><text fill="#000000" font-family="sans-serif" font-size="13" lengthAdjust="spacingAndGlyphs" textLength="46" x="153.5" y="27.0669">Ringing</text><ellipse cx="117.5" cy="22.5664" fill="#000000" filter="url(#fopi8trgpo6gf)" rx="10" ry="10" style="stroke: none; stroke-width: 1.0;"/><rect fill="#FEFECE" filter="url(#fopi8trgpo6gf)" height="33.9688" rx="12.5" ry="12.5" style="stroke: #A80036; stroke-width: 1.5;" width="147" x="44" y="159.2456"/><text fill="#000000" font-family="sans-serif" font-size="12" lengthAdjust="spacingAndGlyphs" textLength="127" x="54" y="180.3843">SCO link established</text><polygon fill="#FEFECE" filter="url(#fopi8trgpo6gf)" points="80.5,110.8433,154.5,110.8433,166.5,122.8433,154.5,134.8433,80.5,134.8433,68.5,122.8433,80.5,110.8433" style="stroke: #A80036; stroke-width: 1.5;"/><text fill="#000000" font-family="sans-serif" font-size="11" lengthAdjust="spacingAndGlyphs" textLength="20" x="121.5" y="145.0537">yes</text><text fill="#000000" font-family="sans-serif" font-size="11" lengthAdjust="spacingAndGlyphs" textLength="74" x="80.5" y="126.6514">Answer a call</text><text fill="#000000" font-family="sans-serif" font-size="11" lengthAdjust="spacingAndGlyphs" textLength="14" x="166.5" y="120.249">no</text><polygon fill="#FEFECE" filter="url(#fopi8trgpo6gf)" points="74.5,55.1328,160.5,55.1328,172.5,67.1328,160.5,79.1328,74.5,79.1328,62.5,67.1328,74.5,55.1328" style="stroke: #A80036; stroke-width: 1.5;"/><text fill="#000000" font-family="sans-serif" font-size="11" lengthAdjust="spacingAndGlyphs" textLength="14" x="121.5" y="89.3433">no</text><text fill="#000000" font-family="sans-serif" font-size="11" lengthAdjust="spacingAndGlyphs" textLength="86" x="74.5" y="70.9409">Call terminated</text><rect fill="#FEFECE" filter="url(#fopi8trgpo6gf)" height="33.9688" rx="12.5" ry="12.5" style="stroke: #A80036; stroke-width: 1.5;" width="99" x="68" y="275.2144"/><text fill="#000000" font-family="sans-serif" font-size="12" lengthAdjust="spacingAndGlyphs" textLength="79" x="78" y="296.353">Stop Ringing</text><ellipse cx="117.5" cy="340.1831" fill="#FFFFFF" filter="url(#fopi8trgpo6gf)" rx="11" ry="11" style="stroke: #000000; stroke-width: 1.0;"/><ellipse cx="117.5" cy="340.1831" fill="#000000" rx="6" ry="6" style="stroke: #7F7F7F; stroke-width: 1.0;"/><line style="stroke: #A80036; stroke-width: 1.5;" x1="117.5" x2="117.5" y1="193.2144" y2="207.2144"/><line style="stroke: #A80036; stroke-width: 1.5;" x1="117.5" x2="24" y1="207.2144" y2="207.2144"/><polygon fill="#A80036" points="34,203.2144,24,207.2144,34,211.2144,30,207.2144" style="stroke: #A80036; stroke-width: 1.0;"/><line style="stroke: #A80036; stroke-width: 1.5;" x1="117.5" x2="117.5" y1="134.8433" y2="159.2456"/><polygon fill="#A80036" points="113.5,149.2456,117.5,159.2456,121.5,149.2456,117.5,153.2456" style="stroke: #A80036; stroke-width: 1.0;"/><line style="stroke: #A80036; stroke-width: 1.5;" x1="166.5" x2="225" y1="122.8433" y2="122.8433"/><line style="stroke: #A80036; stroke-width: 1.5;" x1="225" x2="225" y1="67.1328" y2="122.8433"/><line style="stroke: #A80036; stroke-width: 1.5;" x1="225" x2="172.5" y1="67.1328" y2="67.1328"/><polygon fill="#A80036" points="182.5,63.1328,172.5,67.1328,182.5,71.1328,178.5,67.1328" style="stroke: #A80036; stroke-width: 1.0;"/><line style="stroke: #A80036; stroke-width: 1.5;" x1="117.5" x2="117.5" y1="79.1328" y2="110.8433"/><polygon fill="#A80036" points="113.5,100.8433,117.5,110.8433,121.5,100.8433,117.5,104.8433" style="stroke: #A80036; stroke-width: 1.0;"/><line style="stroke: #A80036; stroke-width: 1.5;" x1="62.5" x2="24" y1="67.1328" y2="67.1328"/><polygon fill="#A80036" points="20,162.3276,24,172.3276,28,162.3276,24,166.3276" style="stroke: #A80036; stroke-width: 1.5;"/><line style="stroke: #A80036; stroke-width: 1.5;" x1="24" x2="24" y1="67.1328" y2="255.2144"/><line style="stroke: #A80036; stroke-width: 1.5;" x1="24" x2="117.5" y1="255.2144" y2="255.2144"/><line style="stroke: #A80036; stroke-width: 1.5;" x1="117.5" x2="117.5" y1="255.2144" y2="275.2144"/><polygon fill="#A80036" points="113.5,265.2144,117.5,275.2144,121.5,265.2144,117.5,269.2144" style="stroke: #A80036; stroke-width: 1.0;"/><line style="stroke: #A80036; stroke-width: 1.5;" x1="117.5" x2="117.5" y1="32.5664" y2="55.1328"/><polygon fill="#A80036" points="113.5,45.1328,117.5,55.1328,121.5,45.1328,117.5,49.1328" style="stroke: #A80036; stroke-width: 1.0;"/><line style="stroke: #A80036; stroke-width: 1.5;" x1="117.5" x2="117.5" y1="309.1831" y2="329.1831"/><polygon fill="#A80036" points="113.5,319.1831,117.5,329.1831,121.5,319.1831,117.5,323.1831" style="stroke: #A80036; stroke-width: 1.0;"/><!--MD5=[7d93f955655a9cc8777686abb9ad7007]
@startuml
skinparam BackgroundColor F0F0F0
start
note right
    Ringing
end note
while (Call terminated) is (no)
    if (Answer a call) then (no)
    else (yes)
        :SCO link established;
        break;
    endif
endwhile
:Stop Ringing;
stop
@enduml

PlantUML version 1.2020.02(Sun Mar 01 05:22:07 EST 2020)
(GPL source distribution)
Java Runtime: OpenJDK Runtime Environment
JVM: OpenJDK 64-Bit Server VM
Java Version: 11.0.12+7-post-Debian-2
Operating System: Linux
Default Encoding: UTF-8
Language: en
Country: US
--></g></svg>