<?xml version="1.0" encoding="UTF-8" standalone="no"?><svg xmlns="http://www.w3.org/2000/svg" xmlns:xlink="http://www.w3.org/1999/xlink" contentScriptType="application/ecmascript" contentStyleType="text/css" height="448px" preserveAspectRatio="none" style="width:263px;height:448px;" version="1.1" viewBox="0 0 263 448" width="263px" zoomAndPan="magnify"><defs><filter height="300%" id="fxo3rzh2br75o" width="300%" x="-1" y="-1"><feGaussianBlur result="blurOut" stdDeviation="2.0"/><feColorMatrix in="blurOut" result="blurOut2" type="matrix" values="0 0 0 0 0 0 0 0 0 0 0 0 0 0 0 0 0 0 .4 0"/><feOffset dx="4.0" dy="4.0" in="blurOut2" result="blurOut3"/><feBlend in="SourceGraphic" in2="blurOut3" mode="normal"/></filter></defs><g><path d="M145,10 L145,18.5664 L125,22.5664 L145,26.5664 L145,35.1328 A0,0 0 0 0 145,35.1328 L251,35.1328 A0,0 0 0 0 251,35.1328 L251,20 L241,10 L145,10 A0,0 0 0 0 145,10 " fill="#FBFB77" filter="url(#fxo3rzh2br75o)" style="stroke: #A80036; stroke-width: 1.0;"/><path d="M241,10 L241,20 L251,20 L241,10 " fill="#FBFB77" style="stroke: #A80036; stroke-width: 1.0;"/><text fill="#000000" font-family="sans-serif" font-size="13" lengthAdjust="spacingAndGlyphs" textLength="85" x="151" y="27.0669">Call incoming</text><ellipse cx="115" cy="22.5664" fill="#000000" filter="url(#fxo3rzh2br75o)" rx="10" ry="10" style="stroke: none; stroke-width: 1.0;"/><rect fill="#FEFECE" filter="url(#fxo3rzh2br75o)" height="33.9688" rx="12.5" ry="12.5" style="stroke: #A80036; stroke-width: 1.5;" width="115" x="57.5" y="55.1328"/><text fill="#000000" font-family="sans-serif" font-size="12" lengthAdjust="spacingAndGlyphs" textLength="95" x="67.5" y="76.2715">Service Cellular</text><rect fill="#FEFECE" filter="url(#fxo3rzh2br75o)" height="33.9688" rx="12.5" ry="12.5" style="stroke: #A80036; stroke-width: 1.5;" width="114" x="58" y="109.1016"/><text fill="#000000" font-family="sans-serif" font-size="12" lengthAdjust="spacingAndGlyphs" textLength="94" x="68" y="130.2402">Application call</text><rect fill="#FEFECE" filter="url(#fxo3rzh2br75o)" height="33.9688" rx="12.5" ry="12.5" style="stroke: #A80036; stroke-width: 1.5;" width="104" x="63" y="163.0703"/><text fill="#000000" font-family="sans-serif" font-size="12" lengthAdjust="spacingAndGlyphs" textLength="84" x="73" y="184.209">Service Audio</text><rect fill="#FEFECE" filter="url(#fxo3rzh2br75o)" height="33.9688" rx="12.5" ry="12.5" style="stroke: #A80036; stroke-width: 1.5;" width="130" x="50" y="217.0391"/><text fill="#000000" font-family="sans-serif" font-size="12" lengthAdjust="spacingAndGlyphs" textLength="110" x="60" y="238.1777">Service Bluetooth</text><rect fill="#FEFECE" filter="url(#fxo3rzh2br75o)" height="33.9688" rx="12.5" ry="12.5" style="stroke: #A80036; stroke-width: 1.5;" width="47" x="91.5" y="319.4102"/><text fill="#000000" font-family="sans-serif" font-size="12" lengthAdjust="spacingAndGlyphs" textLength="27" x="101.5" y="340.5488">Ring</text><polygon fill="#FEFECE" filter="url(#fxo3rzh2br75o)" points="32,271.0078,198,271.0078,210,283.0078,198,295.0078,32,295.0078,20,283.0078,32,271.0078" style="stroke: #A80036; stroke-width: 1.5;"/><text fill="#000000" font-family="sans-serif" font-size="11" lengthAdjust="spacingAndGlyphs" textLength="20" x="119" y="305.2183">yes</text><text fill="#000000" font-family="sans-serif" font-size="11" lengthAdjust="spacingAndGlyphs" textLength="166" x="32" y="286.8159">Current profile allows ringing</text><polygon fill="#FEFECE" filter="url(#fxo3rzh2br75o)" points="115,373.3789,127,385.3789,115,397.3789,103,385.3789,115,373.3789" style="stroke: #A80036; stroke-width: 1.5;"/><ellipse cx="115" cy="427.3789" fill="none" filter="url(#fxo3rzh2br75o)" rx="10" ry="10" style="stroke: #000000; stroke-width: 1.0;"/><ellipse cx="115.5" cy="427.8789" fill="#000000" filter="url(#fxo3rzh2br75o)" rx="6" ry="6" style="stroke: none; stroke-width: 1.0;"/><line style="stroke: #A80036; stroke-width: 1.5;" x1="115" x2="115" y1="32.5664" y2="55.1328"/><polygon fill="#A80036" points="111,45.1328,115,55.1328,119,45.1328,115,49.1328" style="stroke: #A80036; stroke-width: 1.0;"/><line style="stroke: #A80036; stroke-width: 1.5;" x1="115" x2="115" y1="89.1016" y2="109.1016"/><polygon fill="#A80036" points="111,99.1016,115,109.1016,119,99.1016,115,103.1016" style="stroke: #A80036; stroke-width: 1.0;"/><line style="stroke: #A80036; stroke-width: 1.5;" x1="115" x2="115" y1="143.0703" y2="163.0703"/><polygon fill="#A80036" points="111,153.0703,115,163.0703,119,153.0703,115,157.0703" style="stroke: #A80036; stroke-width: 1.0;"/><line style="stroke: #A80036; stroke-width: 1.5;" x1="115" x2="115" y1="197.0391" y2="217.0391"/><polygon fill="#A80036" points="111,207.0391,115,217.0391,119,207.0391,115,211.0391" style="stroke: #A80036; stroke-width: 1.0;"/><line style="stroke: #A80036; stroke-width: 1.5;" x1="115" x2="115" y1="295.0078" y2="319.4102"/><polygon fill="#A80036" points="111,309.4102,115,319.4102,119,309.4102,115,313.4102" style="stroke: #A80036; stroke-width: 1.0;"/><line style="stroke: #A80036; stroke-width: 1.5;" x1="210" x2="222" y1="283.0078" y2="283.0078"/><polygon fill="#A80036" points="218,326.3945,222,336.3945,226,326.3945,222,330.3945" style="stroke: #A80036; stroke-width: 1.5;"/><line style="stroke: #A80036; stroke-width: 1.5;" x1="222" x2="222" y1="283.0078" y2="385.3789"/><line style="stroke: #A80036; stroke-width: 1.5;" x1="222" x2="127" y1="385.3789" y2="385.3789"/><polygon fill="#A80036" points="137,381.3789,127,385.3789,137,389.3789,133,385.3789" style="stroke: #A80036; stroke-width: 1.0;"/><line style="stroke: #A80036; stroke-width: 1.5;" x1="115" x2="115" y1="353.3789" y2="373.3789"/><polygon fill="#A80036" points="111,363.3789,115,373.3789,119,363.3789,115,367.3789" style="stroke: #A80036; stroke-width: 1.0;"/><line style="stroke: #A80036; stroke-width: 1.5;" x1="115" x2="115" y1="251.0078" y2="271.0078"/><polygon fill="#A80036" points="111,261.0078,115,271.0078,119,261.0078,115,265.0078" style="stroke: #A80036; stroke-width: 1.0;"/><line style="stroke: #A80036; stroke-width: 1.5;" x1="115" x2="115" y1="397.3789" y2="417.3789"/><polygon fill="#A80036" points="111,407.3789,115,417.3789,119,407.3789,115,411.3789" style="stroke: #A80036; stroke-width: 1.0;"/><!--
@startuml
start
note right
    Call incoming
end note
:Service Cellular;
:Application call;
:Service Audio;
:Service Bluetooth;
if (Current profile allows ringing) then (yes)
    :Ring;
endif
stop
@enduml

PlantUML version 1.2018.13(Mon Nov 26 18:11:51 CET 2018)
(GPL source distribution)
Java Runtime: OpenJDK Runtime Environment
JVM: OpenJDK 64-Bit Server VM
Java Version: 11.0.10+9-Ubuntu-0ubuntu1.20.04
Operating System: Linux
OS Version: 5.8.0-50-generic
Default Encoding: UTF-8
Language: en
Country: US
--></g></svg>