<?xml version="1.0" encoding="UTF-8" standalone="no"?><svg xmlns="http://www.w3.org/2000/svg" xmlns:xlink="http://www.w3.org/1999/xlink" contentScriptType="application/ecmascript" contentStyleType="text/css" height="450px" preserveAspectRatio="none" style="width:261px;height:450px;background:#F0F0F0;" version="1.1" viewBox="0 0 261 450" width="261px" zoomAndPan="magnify"><defs><filter height="300%" id="f4973nzqfu49m" width="300%" x="-1" y="-1"><feGaussianBlur result="blurOut" stdDeviation="2.0"/><feColorMatrix in="blurOut" result="blurOut2" type="matrix" values="0 0 0 0 0 0 0 0 0 0 0 0 0 0 0 0 0 0 .4 0"/><feOffset dx="4.0" dy="4.0" in="blurOut2" result="blurOut3"/><feBlend in="SourceGraphic" in2="blurOut3" mode="normal"/></filter></defs><g><path d="M143.5,10 L143.5,18.5664 L123.5,22.5664 L143.5,26.5664 L143.5,35.1328 A0,0 0 0 0 143.5,35.1328 L249.5,35.1328 A0,0 0 0 0 249.5,35.1328 L249.5,20 L239.5,10 L143.5,10 A0,0 0 0 0 143.5,10 " fill="#FBFB77" filter="url(#f4973nzqfu49m)" style="stroke: #A80036; stroke-width: 1.0;"/><path d="M239.5,10 L239.5,20 L249.5,20 L239.5,10 " fill="#FBFB77" style="stroke: #A80036; stroke-width: 1.0;"/><text fill="#000000" font-family="sans-serif" font-size="13" lengthAdjust="spacingAndGlyphs" textLength="85" x="149.5" y="27.0669">Call incoming</text><ellipse cx="113.5" cy="22.5664" fill="#000000" filter="url(#f4973nzqfu49m)" rx="10" ry="10" style="stroke: none; stroke-width: 1.0;"/><rect fill="#FEFECE" filter="url(#f4973nzqfu49m)" height="33.9688" rx="12.5" ry="12.5" style="stroke: #A80036; stroke-width: 1.5;" width="115" x="56" y="55.1328"/><text fill="#000000" font-family="sans-serif" font-size="12" lengthAdjust="spacingAndGlyphs" textLength="95" x="66" y="76.2715">Service Cellular</text><rect fill="#FEFECE" filter="url(#f4973nzqfu49m)" height="33.9688" rx="12.5" ry="12.5" style="stroke: #A80036; stroke-width: 1.5;" width="114" x="56.5" y="109.1016"/><text fill="#000000" font-family="sans-serif" font-size="12" lengthAdjust="spacingAndGlyphs" textLength="94" x="66.5" y="130.2402">Application call</text><rect fill="#FEFECE" filter="url(#f4973nzqfu49m)" height="33.9688" rx="12.5" ry="12.5" style="stroke: #A80036; stroke-width: 1.5;" width="104" x="61.5" y="163.0703"/><text fill="#000000" font-family="sans-serif" font-size="12" lengthAdjust="spacingAndGlyphs" textLength="84" x="71.5" y="184.209">Service Audio</text><rect fill="#FEFECE" filter="url(#f4973nzqfu49m)" height="33.9688" rx="12.5" ry="12.5" style="stroke: #A80036; stroke-width: 1.5;" width="130" x="48.5" y="217.0391"/><text fill="#000000" font-family="sans-serif" font-size="12" lengthAdjust="spacingAndGlyphs" textLength="110" x="58.5" y="238.1777">Service Bluetooth</text><rect fill="#FEFECE" filter="url(#f4973nzqfu49m)" height="33.9688" rx="12.5" ry="12.5" style="stroke: #A80036; stroke-width: 1.5;" width="47" x="90" y="319.4102"/><text fill="#000000" font-family="sans-serif" font-size="12" lengthAdjust="spacingAndGlyphs" textLength="27" x="100" y="340.5488">Ring</text><polygon fill="#FEFECE" filter="url(#f4973nzqfu49m)" points="32,271.0078,195,271.0078,207,283.0078,195,295.0078,32,295.0078,20,283.0078,32,271.0078" style="stroke: #A80036; stroke-width: 1.5;"/><text fill="#000000" font-family="sans-serif" font-size="11" lengthAdjust="spacingAndGlyphs" textLength="20" x="117.5" y="305.2183">yes</text><text fill="#000000" font-family="sans-serif" font-size="11" lengthAdjust="spacingAndGlyphs" textLength="163" x="32" y="286.8159">Current profile allows ringing</text><polygon fill="#FEFECE" filter="url(#f4973nzqfu49m)" points="113.5,373.3789,125.5,385.3789,113.5,397.3789,101.5,385.3789,113.5,373.3789" style="stroke: #A80036; stroke-width: 1.5;"/><ellipse cx="113.5" cy="428.3789" fill="#FFFFFF" filter="url(#f4973nzqfu49m)" rx="11" ry="11" style="stroke: #000000; stroke-width: 1.0;"/><ellipse cx="113.5" cy="428.3789" fill="#000000" rx="6" ry="6" style="stroke: #7F7F7F; stroke-width: 1.0;"/><line style="stroke: #A80036; stroke-width: 1.5;" x1="113.5" x2="113.5" y1="32.5664" y2="55.1328"/><polygon fill="#A80036" points="109.5,45.1328,113.5,55.1328,117.5,45.1328,113.5,49.1328" style="stroke: #A80036; stroke-width: 1.0;"/><line style="stroke: #A80036; stroke-width: 1.5;" x1="113.5" x2="113.5" y1="89.1016" y2="109.1016"/><polygon fill="#A80036" points="109.5,99.1016,113.5,109.1016,117.5,99.1016,113.5,103.1016" style="stroke: #A80036; stroke-width: 1.0;"/><line style="stroke: #A80036; stroke-width: 1.5;" x1="113.5" x2="113.5" y1="143.0703" y2="163.0703"/><polygon fill="#A80036" points="109.5,153.0703,113.5,163.0703,117.5,153.0703,113.5,157.0703" style="stroke: #A80036; stroke-width: 1.0;"/><line style="stroke: #A80036; stroke-width: 1.5;" x1="113.5" x2="113.5" y1="197.0391" y2="217.0391"/><polygon fill="#A80036" points="109.5,207.0391,113.5,217.0391,117.5,207.0391,113.5,211.0391" style="stroke: #A80036; stroke-width: 1.0;"/><line style="stroke: #A80036; stroke-width: 1.5;" x1="113.5" x2="113.5" y1="295.0078" y2="319.4102"/><polygon fill="#A80036" points="109.5,309.4102,113.5,319.4102,117.5,309.4102,113.5,313.4102" style="stroke: #A80036; stroke-width: 1.0;"/><line style="stroke: #A80036; stroke-width: 1.5;" x1="207" x2="219" y1="283.0078" y2="283.0078"/><polygon fill="#A80036" points="215,326.3945,219,336.3945,223,326.3945,219,330.3945" style="stroke: #A80036; stroke-width: 1.5;"/><line style="stroke: #A80036; stroke-width: 1.5;" x1="219" x2="219" y1="283.0078" y2="385.3789"/><line style="stroke: #A80036; stroke-width: 1.5;" x1="219" x2="125.5" y1="385.3789" y2="385.3789"/><polygon fill="#A80036" points="135.5,381.3789,125.5,385.3789,135.5,389.3789,131.5,385.3789" style="stroke: #A80036; stroke-width: 1.0;"/><line style="stroke: #A80036; stroke-width: 1.5;" x1="113.5" x2="113.5" y1="353.3789" y2="373.3789"/><polygon fill="#A80036" points="109.5,363.3789,113.5,373.3789,117.5,363.3789,113.5,367.3789" style="stroke: #A80036; stroke-width: 1.0;"/><line style="stroke: #A80036; stroke-width: 1.5;" x1="113.5" x2="113.5" y1="251.0078" y2="271.0078"/><polygon fill="#A80036" points="109.5,261.0078,113.5,271.0078,117.5,261.0078,113.5,265.0078" style="stroke: #A80036; stroke-width: 1.0;"/><line style="stroke: #A80036; stroke-width: 1.5;" x1="113.5" x2="113.5" y1="397.3789" y2="417.3789"/><polygon fill="#A80036" points="109.5,407.3789,113.5,417.3789,117.5,407.3789,113.5,411.3789" style="stroke: #A80036; stroke-width: 1.0;"/><!--MD5=[16415447f94bb13b37d774431f1b067f]
@startuml
skinparam BackgroundColor F0F0F0
start
note right
    Call incoming
end note
:Service Cellular;
:Application call;
:Service Audio;
:Service Bluetooth;
if (Current profile allows ringing) then (yes)
    :Ring;
endif
stop
@enduml

PlantUML version 1.2020.02(Sun Mar 01 05:22:07 EST 2020)
(GPL source distribution)
Java Runtime: OpenJDK Runtime Environment
JVM: OpenJDK 64-Bit Server VM
Java Version: 11.0.12+7-post-Debian-2
Operating System: Linux
Default Encoding: UTF-8
Language: en
Country: US
--></g></svg>