<?xml version="1.0" encoding="UTF-8" standalone="no"?><svg xmlns="http://www.w3.org/2000/svg" xmlns:xlink="http://www.w3.org/1999/xlink" contentScriptType="application/ecmascript" contentStyleType="text/css" height="337px" preserveAspectRatio="none" style="width:902px;height:337px;" version="1.1" viewBox="0 0 902 337" width="902px" zoomAndPan="magnify"><defs><filter height="300%" id="f1ninxj1xw85cl" width="300%" x="-1" y="-1"><feGaussianBlur result="blurOut" stdDeviation="2.0"/><feColorMatrix in="blurOut" result="blurOut2" type="matrix" values="0 0 0 0 0 0 0 0 0 0 0 0 0 0 0 0 0 0 .4 0"/><feOffset dx="4.0" dy="4.0" in="blurOut2" result="blurOut3"/><feBlend in="SourceGraphic" in2="blurOut3" mode="normal"/></filter></defs><g><text fill="#000000" font-family="sans-serif" font-size="18" lengthAdjust="spacingAndGlyphs" textLength="313" x="298" y="16.708">BluetoothMessages - Class Diagram</text><!--MD5=[23fc707ad27c8e6ea052f1129144ac7b]
class BluetoothMessage--><rect fill="#FEFECE" filter="url(#f1ninxj1xw85cl)" height="48" id="BluetoothMessage" style="stroke: #A80036; stroke-width: 1.5;" width="149" x="413.5" y="153.9531"/><ellipse cx="428.5" cy="169.9531" fill="#ADD1B2" rx="11" ry="11" style="stroke: #A80036; stroke-width: 1.0;"/><path d="M431.4688,175.5938 Q430.8906,175.8906 430.25,176.0391 Q429.6094,176.1875 428.9063,176.1875 Q426.4063,176.1875 425.0859,174.5391 Q423.7656,172.8906 423.7656,169.7656 Q423.7656,166.6406 425.0859,164.9844 Q426.4063,163.3281 428.9063,163.3281 Q429.6094,163.3281 430.2578,163.4844 Q430.9063,163.6406 431.4688,163.9375 L431.4688,166.6563 Q430.8438,166.0781 430.25,165.8047 Q429.6563,165.5313 429.0313,165.5313 Q427.6875,165.5313 427,166.6016 Q426.3125,167.6719 426.3125,169.7656 Q426.3125,171.8594 427,172.9297 Q427.6875,174 429.0313,174 Q429.6563,174 430.25,173.7266 Q430.8438,173.4531 431.4688,172.875 L431.4688,175.5938 Z "/><text fill="#000000" font-family="sans-serif" font-size="12" lengthAdjust="spacingAndGlyphs" textLength="117" x="442.5" y="174.1074">BluetoothMessage</text><line style="stroke: #A80036; stroke-width: 1.5;" x1="414.5" x2="561.5" y1="185.9531" y2="185.9531"/><line style="stroke: #A80036; stroke-width: 1.5;" x1="414.5" x2="561.5" y1="193.9531" y2="193.9531"/><!--MD5=[b68a6893fb5fe43c9ba686fe799938b5]
class RequestBluetoothStatus--><rect fill="#FEFECE" filter="url(#f1ninxj1xw85cl)" height="48" id="RequestBluetoothStatus" style="stroke: #A80036; stroke-width: 1.5;" width="186" x="120" y="153.9531"/><ellipse cx="135" cy="169.9531" fill="#ADD1B2" rx="11" ry="11" style="stroke: #A80036; stroke-width: 1.0;"/><path d="M137.9688,175.5938 Q137.3906,175.8906 136.75,176.0391 Q136.1094,176.1875 135.4063,176.1875 Q132.9063,176.1875 131.5859,174.5391 Q130.2656,172.8906 130.2656,169.7656 Q130.2656,166.6406 131.5859,164.9844 Q132.9063,163.3281 135.4063,163.3281 Q136.1094,163.3281 136.7578,163.4844 Q137.4063,163.6406 137.9688,163.9375 L137.9688,166.6563 Q137.3438,166.0781 136.75,165.8047 Q136.1563,165.5313 135.5313,165.5313 Q134.1875,165.5313 133.5,166.6016 Q132.8125,167.6719 132.8125,169.7656 Q132.8125,171.8594 133.5,172.9297 Q134.1875,174 135.5313,174 Q136.1563,174 136.75,173.7266 Q137.3438,173.4531 137.9688,172.875 L137.9688,175.5938 Z "/><text fill="#000000" font-family="sans-serif" font-size="12" lengthAdjust="spacingAndGlyphs" textLength="154" x="149" y="174.1074">RequestBluetoothStatus</text><line style="stroke: #A80036; stroke-width: 1.5;" x1="121" x2="305" y1="185.9531" y2="185.9531"/><line style="stroke: #A80036; stroke-width: 1.5;" x1="121" x2="305" y1="193.9531" y2="193.9531"/><!--MD5=[cc960df078a163385707cbd025b1228e]
class RequestBondedDevices--><rect fill="#FEFECE" filter="url(#f1ninxj1xw85cl)" height="48" id="RequestBondedDevices" style="stroke: #A80036; stroke-width: 1.5;" width="180" x="711" y="28.9531"/><ellipse cx="726" cy="44.9531" fill="#ADD1B2" rx="11" ry="11" style="stroke: #A80036; stroke-width: 1.0;"/><path d="M728.9688,50.5938 Q728.3906,50.8906 727.75,51.0391 Q727.1094,51.1875 726.4063,51.1875 Q723.9063,51.1875 722.5859,49.5391 Q721.2656,47.8906 721.2656,44.7656 Q721.2656,41.6406 722.5859,39.9844 Q723.9063,38.3281 726.4063,38.3281 Q727.1094,38.3281 727.7578,38.4844 Q728.4063,38.6406 728.9688,38.9375 L728.9688,41.6563 Q728.3438,41.0781 727.75,40.8047 Q727.1563,40.5313 726.5313,40.5313 Q725.1875,40.5313 724.5,41.6016 Q723.8125,42.6719 723.8125,44.7656 Q723.8125,46.8594 724.5,47.9297 Q725.1875,49 726.5313,49 Q727.1563,49 727.75,48.7266 Q728.3438,48.4531 728.9688,47.875 L728.9688,50.5938 Z "/><text fill="#000000" font-family="sans-serif" font-size="12" lengthAdjust="spacingAndGlyphs" textLength="148" x="740" y="49.1074">RequestBondedDevices</text><line style="stroke: #A80036; stroke-width: 1.5;" x1="712" x2="890" y1="60.9531" y2="60.9531"/><line style="stroke: #A80036; stroke-width: 1.5;" x1="712" x2="890" y1="68.9531" y2="68.9531"/><!--MD5=[f1a36d6b3380e677ad379c4765f0f72c]
class RequestDeviceName--><rect fill="#FEFECE" filter="url(#f1ninxj1xw85cl)" height="48" id="RequestDeviceName" style="stroke: #A80036; stroke-width: 1.5;" width="161" x="514.5" y="28.9531"/><ellipse cx="529.5" cy="44.9531" fill="#ADD1B2" rx="11" ry="11" style="stroke: #A80036; stroke-width: 1.0;"/><path d="M532.4688,50.5938 Q531.8906,50.8906 531.25,51.0391 Q530.6094,51.1875 529.9063,51.1875 Q527.4063,51.1875 526.0859,49.5391 Q524.7656,47.8906 524.7656,44.7656 Q524.7656,41.6406 526.0859,39.9844 Q527.4063,38.3281 529.9063,38.3281 Q530.6094,38.3281 531.2578,38.4844 Q531.9063,38.6406 532.4688,38.9375 L532.4688,41.6563 Q531.8438,41.0781 531.25,40.8047 Q530.6563,40.5313 530.0313,40.5313 Q528.6875,40.5313 528,41.6016 Q527.3125,42.6719 527.3125,44.7656 Q527.3125,46.8594 528,47.9297 Q528.6875,49 530.0313,49 Q530.6563,49 531.25,48.7266 Q531.8438,48.4531 532.4688,47.875 L532.4688,50.5938 Z "/><text fill="#000000" font-family="sans-serif" font-size="12" lengthAdjust="spacingAndGlyphs" textLength="129" x="543.5" y="49.1074">RequestDeviceName</text><line style="stroke: #A80036; stroke-width: 1.5;" x1="515.5" x2="674.5" y1="60.9531" y2="60.9531"/><line style="stroke: #A80036; stroke-width: 1.5;" x1="515.5" x2="674.5" y1="68.9531" y2="68.9531"/><!--MD5=[997e5b1c613c646acbb63a9dc35e5d22]
class ResponseBluetoothStatus--><rect fill="#FEFECE" filter="url(#f1ninxj1xw85cl)" height="48" id="ResponseBluetoothStatus" style="stroke: #A80036; stroke-width: 1.5;" width="196" x="283" y="28.9531"/><ellipse cx="298" cy="44.9531" fill="#ADD1B2" rx="11" ry="11" style="stroke: #A80036; stroke-width: 1.0;"/><path d="M300.9688,50.5938 Q300.3906,50.8906 299.75,51.0391 Q299.1094,51.1875 298.4063,51.1875 Q295.9063,51.1875 294.5859,49.5391 Q293.2656,47.8906 293.2656,44.7656 Q293.2656,41.6406 294.5859,39.9844 Q295.9063,38.3281 298.4063,38.3281 Q299.1094,38.3281 299.7578,38.4844 Q300.4063,38.6406 300.9688,38.9375 L300.9688,41.6563 Q300.3438,41.0781 299.75,40.8047 Q299.1563,40.5313 298.5313,40.5313 Q297.1875,40.5313 296.5,41.6016 Q295.8125,42.6719 295.8125,44.7656 Q295.8125,46.8594 296.5,47.9297 Q297.1875,49 298.5313,49 Q299.1563,49 299.75,48.7266 Q300.3438,48.4531 300.9688,47.875 L300.9688,50.5938 Z "/><text fill="#000000" font-family="sans-serif" font-size="12" lengthAdjust="spacingAndGlyphs" textLength="164" x="312" y="49.1074">ResponseBluetoothStatus</text><line style="stroke: #A80036; stroke-width: 1.5;" x1="284" x2="478" y1="60.9531" y2="60.9531"/><line style="stroke: #A80036; stroke-width: 1.5;" x1="284" x2="478" y1="68.9531" y2="68.9531"/><!--MD5=[eb512bcfdbef1ba9066f1482e200ba23]
class ResponseBondedDevices--><rect fill="#FEFECE" filter="url(#f1ninxj1xw85cl)" height="48" id="ResponseBondedDevices" style="stroke: #A80036; stroke-width: 1.5;" width="190" x="58" y="28.9531"/><ellipse cx="73" cy="44.9531" fill="#ADD1B2" rx="11" ry="11" style="stroke: #A80036; stroke-width: 1.0;"/><path d="M75.9688,50.5938 Q75.3906,50.8906 74.75,51.0391 Q74.1094,51.1875 73.4063,51.1875 Q70.9063,51.1875 69.5859,49.5391 Q68.2656,47.8906 68.2656,44.7656 Q68.2656,41.6406 69.5859,39.9844 Q70.9063,38.3281 73.4063,38.3281 Q74.1094,38.3281 74.7578,38.4844 Q75.4063,38.6406 75.9688,38.9375 L75.9688,41.6563 Q75.3438,41.0781 74.75,40.8047 Q74.1563,40.5313 73.5313,40.5313 Q72.1875,40.5313 71.5,41.6016 Q70.8125,42.6719 70.8125,44.7656 Q70.8125,46.8594 71.5,47.9297 Q72.1875,49 73.5313,49 Q74.1563,49 74.75,48.7266 Q75.3438,48.4531 75.9688,47.875 L75.9688,50.5938 Z "/><text fill="#000000" font-family="sans-serif" font-size="12" lengthAdjust="spacingAndGlyphs" textLength="158" x="87" y="49.1074">ResponseBondedDevices</text><line style="stroke: #A80036; stroke-width: 1.5;" x1="59" x2="247" y1="60.9531" y2="60.9531"/><line style="stroke: #A80036; stroke-width: 1.5;" x1="59" x2="247" y1="68.9531" y2="68.9531"/><!--MD5=[3faab22c1f830479f961f6e769115a5d]
class ResponseDeviceName--><rect fill="#FEFECE" filter="url(#f1ninxj1xw85cl)" height="48" id="ResponseDeviceName" style="stroke: #A80036; stroke-width: 1.5;" width="171" x="670.5" y="153.9531"/><ellipse cx="685.5" cy="169.9531" fill="#ADD1B2" rx="11" ry="11" style="stroke: #A80036; stroke-width: 1.0;"/><path d="M688.4688,175.5938 Q687.8906,175.8906 687.25,176.0391 Q686.6094,176.1875 685.9063,176.1875 Q683.4063,176.1875 682.0859,174.5391 Q680.7656,172.8906 680.7656,169.7656 Q680.7656,166.6406 682.0859,164.9844 Q683.4063,163.3281 685.9063,163.3281 Q686.6094,163.3281 687.2578,163.4844 Q687.9063,163.6406 688.4688,163.9375 L688.4688,166.6563 Q687.8438,166.0781 687.25,165.8047 Q686.6563,165.5313 686.0313,165.5313 Q684.6875,165.5313 684,166.6016 Q683.3125,167.6719 683.3125,169.7656 Q683.3125,171.8594 684,172.9297 Q684.6875,174 686.0313,174 Q686.6563,174 687.25,173.7266 Q687.8438,173.4531 688.4688,172.875 L688.4688,175.5938 Z "/><text fill="#000000" font-family="sans-serif" font-size="12" lengthAdjust="spacingAndGlyphs" textLength="139" x="699.5" y="174.1074">ResponseDeviceName</text><line style="stroke: #A80036; stroke-width: 1.5;" x1="671.5" x2="840.5" y1="185.9531" y2="185.9531"/><line style="stroke: #A80036; stroke-width: 1.5;" x1="671.5" x2="840.5" y1="193.9531" y2="193.9531"/><!--MD5=[16efb683b245cffa4f1d0163265c1862]
class ResponseVisibleDevices--><rect fill="#FEFECE" filter="url(#f1ninxj1xw85cl)" height="48" id="ResponseVisibleDevices" style="stroke: #A80036; stroke-width: 1.5;" width="182" x="6" y="278.9531"/><ellipse cx="21" cy="294.9531" fill="#ADD1B2" rx="11" ry="11" style="stroke: #A80036; stroke-width: 1.0;"/><path d="M23.9688,300.5938 Q23.3906,300.8906 22.75,301.0391 Q22.1094,301.1875 21.4063,301.1875 Q18.9063,301.1875 17.5859,299.5391 Q16.2656,297.8906 16.2656,294.7656 Q16.2656,291.6406 17.5859,289.9844 Q18.9063,288.3281 21.4063,288.3281 Q22.1094,288.3281 22.7578,288.4844 Q23.4063,288.6406 23.9688,288.9375 L23.9688,291.6563 Q23.3438,291.0781 22.75,290.8047 Q22.1563,290.5313 21.5313,290.5313 Q20.1875,290.5313 19.5,291.6016 Q18.8125,292.6719 18.8125,294.7656 Q18.8125,296.8594 19.5,297.9297 Q20.1875,299 21.5313,299 Q22.1563,299 22.75,298.7266 Q23.3438,298.4531 23.9688,297.875 L23.9688,300.5938 Z "/><text fill="#000000" font-family="sans-serif" font-size="12" lengthAdjust="spacingAndGlyphs" textLength="150" x="35" y="299.1074">ResponseVisibleDevices</text><line style="stroke: #A80036; stroke-width: 1.5;" x1="7" x2="187" y1="310.9531" y2="310.9531"/><line style="stroke: #A80036; stroke-width: 1.5;" x1="7" x2="187" y1="318.9531" y2="318.9531"/><!--MD5=[55dcaea49b6f335663f06ba5e29d8711]
class SetBluetoothStatus--><rect fill="#FEFECE" filter="url(#f1ninxj1xw85cl)" height="48" id="SetBluetoothStatus" style="stroke: #A80036; stroke-width: 1.5;" width="155" x="223.5" y="278.9531"/><ellipse cx="238.5" cy="294.9531" fill="#ADD1B2" rx="11" ry="11" style="stroke: #A80036; stroke-width: 1.0;"/><path d="M241.4688,300.5938 Q240.8906,300.8906 240.25,301.0391 Q239.6094,301.1875 238.9063,301.1875 Q236.4063,301.1875 235.0859,299.5391 Q233.7656,297.8906 233.7656,294.7656 Q233.7656,291.6406 235.0859,289.9844 Q236.4063,288.3281 238.9063,288.3281 Q239.6094,288.3281 240.2578,288.4844 Q240.9063,288.6406 241.4688,288.9375 L241.4688,291.6563 Q240.8438,291.0781 240.25,290.8047 Q239.6563,290.5313 239.0313,290.5313 Q237.6875,290.5313 237,291.6016 Q236.3125,292.6719 236.3125,294.7656 Q236.3125,296.8594 237,297.9297 Q237.6875,299 239.0313,299 Q239.6563,299 240.25,298.7266 Q240.8438,298.4531 241.4688,297.875 L241.4688,300.5938 Z "/><text fill="#000000" font-family="sans-serif" font-size="12" lengthAdjust="spacingAndGlyphs" textLength="123" x="252.5" y="299.1074">SetBluetoothStatus</text><line style="stroke: #A80036; stroke-width: 1.5;" x1="224.5" x2="377.5" y1="310.9531" y2="310.9531"/><line style="stroke: #A80036; stroke-width: 1.5;" x1="224.5" x2="377.5" y1="318.9531" y2="318.9531"/><!--MD5=[75c2d557c56179bba89b9164f9048e30]
class SetBondedDevices--><rect fill="#FEFECE" filter="url(#f1ninxj1xw85cl)" height="48" id="SetBondedDevices" style="stroke: #A80036; stroke-width: 1.5;" width="149" x="413.5" y="278.9531"/><ellipse cx="428.5" cy="294.9531" fill="#ADD1B2" rx="11" ry="11" style="stroke: #A80036; stroke-width: 1.0;"/><path d="M431.4688,300.5938 Q430.8906,300.8906 430.25,301.0391 Q429.6094,301.1875 428.9063,301.1875 Q426.4063,301.1875 425.0859,299.5391 Q423.7656,297.8906 423.7656,294.7656 Q423.7656,291.6406 425.0859,289.9844 Q426.4063,288.3281 428.9063,288.3281 Q429.6094,288.3281 430.2578,288.4844 Q430.9063,288.6406 431.4688,288.9375 L431.4688,291.6563 Q430.8438,291.0781 430.25,290.8047 Q429.6563,290.5313 429.0313,290.5313 Q427.6875,290.5313 427,291.6016 Q426.3125,292.6719 426.3125,294.7656 Q426.3125,296.8594 427,297.9297 Q427.6875,299 429.0313,299 Q429.6563,299 430.25,298.7266 Q430.8438,298.4531 431.4688,297.875 L431.4688,300.5938 Z "/><text fill="#000000" font-family="sans-serif" font-size="12" lengthAdjust="spacingAndGlyphs" textLength="117" x="442.5" y="299.1074">SetBondedDevices</text><line style="stroke: #A80036; stroke-width: 1.5;" x1="414.5" x2="561.5" y1="310.9531" y2="310.9531"/><line style="stroke: #A80036; stroke-width: 1.5;" x1="414.5" x2="561.5" y1="318.9531" y2="318.9531"/><!--MD5=[8139fa2621595fc198f831176f26a933]
class SetDeviceName--><rect fill="#FEFECE" filter="url(#f1ninxj1xw85cl)" height="48" id="SetDeviceName" style="stroke: #A80036; stroke-width: 1.5;" width="130" x="598" y="278.9531"/><ellipse cx="613" cy="294.9531" fill="#ADD1B2" rx="11" ry="11" style="stroke: #A80036; stroke-width: 1.0;"/><path d="M615.9688,300.5938 Q615.3906,300.8906 614.75,301.0391 Q614.1094,301.1875 613.4063,301.1875 Q610.9063,301.1875 609.5859,299.5391 Q608.2656,297.8906 608.2656,294.7656 Q608.2656,291.6406 609.5859,289.9844 Q610.9063,288.3281 613.4063,288.3281 Q614.1094,288.3281 614.7578,288.4844 Q615.4063,288.6406 615.9688,288.9375 L615.9688,291.6563 Q615.3438,291.0781 614.75,290.8047 Q614.1563,290.5313 613.5313,290.5313 Q612.1875,290.5313 611.5,291.6016 Q610.8125,292.6719 610.8125,294.7656 Q610.8125,296.8594 611.5,297.9297 Q612.1875,299 613.5313,299 Q614.1563,299 614.75,298.7266 Q615.3438,298.4531 615.9688,297.875 L615.9688,300.5938 Z "/><text fill="#000000" font-family="sans-serif" font-size="12" lengthAdjust="spacingAndGlyphs" textLength="98" x="627" y="299.1074">SetDeviceName</text><line style="stroke: #A80036; stroke-width: 1.5;" x1="599" x2="727" y1="310.9531" y2="310.9531"/><line style="stroke: #A80036; stroke-width: 1.5;" x1="599" x2="727" y1="318.9531" y2="318.9531"/><!--MD5=[8cf19ae717c5ffa0942c17e0d92fc75b]
class SetScanState--><rect fill="#FEFECE" filter="url(#f1ninxj1xw85cl)" height="48" id="SetScanState" style="stroke: #A80036; stroke-width: 1.5;" width="118" x="763" y="278.9531"/><ellipse cx="778" cy="294.9531" fill="#ADD1B2" rx="11" ry="11" style="stroke: #A80036; stroke-width: 1.0;"/><path d="M780.9688,300.5938 Q780.3906,300.8906 779.75,301.0391 Q779.1094,301.1875 778.4063,301.1875 Q775.9063,301.1875 774.5859,299.5391 Q773.2656,297.8906 773.2656,294.7656 Q773.2656,291.6406 774.5859,289.9844 Q775.9063,288.3281 778.4063,288.3281 Q779.1094,288.3281 779.7578,288.4844 Q780.4063,288.6406 780.9688,288.9375 L780.9688,291.6563 Q780.3438,291.0781 779.75,290.8047 Q779.1563,290.5313 778.5313,290.5313 Q777.1875,290.5313 776.5,291.6016 Q775.8125,292.6719 775.8125,294.7656 Q775.8125,296.8594 776.5,297.9297 Q777.1875,299 778.5313,299 Q779.1563,299 779.75,298.7266 Q780.3438,298.4531 780.9688,297.875 L780.9688,300.5938 Z "/><text fill="#000000" font-family="sans-serif" font-size="12" lengthAdjust="spacingAndGlyphs" textLength="86" x="792" y="299.1074">SetScanState</text><line style="stroke: #A80036; stroke-width: 1.5;" x1="764" x2="880" y1="310.9531" y2="310.9531"/><line style="stroke: #A80036; stroke-width: 1.5;" x1="764" x2="880" y1="318.9531" y2="318.9531"/><!--MD5=[73ba01893e771b4f052bc4c2c3173fe2]
link RequestBluetoothStatus to BluetoothMessage--><path d="M306.1025,177.9531 C334.0526,177.9531 364.7445,177.9531 392.8265,177.9531 " fill="none" id="RequestBluetoothStatus-&gt;BluetoothMessage" style="stroke: #A80036; stroke-width: 1.0;"/><polygon fill="none" points="393.2183,170.953,413.2183,177.9531,393.2183,184.953,393.2183,170.953" style="stroke: #A80036; stroke-width: 1.0;"/><text fill="#000000" font-family="sans-serif" font-size="13" lengthAdjust="spacingAndGlyphs" textLength="71" x="324.25" y="171.02">Inheritance</text><!--MD5=[3552c17c7fd4794cfafc4959abe3dcdf]
link RequestBondedDevices to BluetoothMessage--><path d="M743.0636,77.0909 C709.5226,90.9745 666.4596,108.6459 628,123.9531 C609.3093,131.3921 589.156,139.2567 570.1232,146.6132 " fill="none" id="RequestBondedDevices-&gt;BluetoothMessage" style="stroke: #A80036; stroke-width: 1.0;"/><polygon fill="none" points="572.3622,153.252,551.1828,153.9104,567.329,140.1881,572.3622,153.252" style="stroke: #A80036; stroke-width: 1.0;"/><text fill="#000000" font-family="sans-serif" font-size="13" lengthAdjust="spacingAndGlyphs" textLength="71" x="667" y="120.02">Inheritance</text><!--MD5=[fd008eeed691456ddd735d4f025be011]
link RequestDeviceName to BluetoothMessage--><path d="M574.3693,77.0544 C559.4187,94.52 538.8769,118.5175 521.5774,138.7272 " fill="none" id="RequestDeviceName-&gt;BluetoothMessage" style="stroke: #A80036; stroke-width: 1.0;"/><polygon fill="none" points="526.891,143.2841,508.5673,153.9258,516.2554,134.1801,526.891,143.2841" style="stroke: #A80036; stroke-width: 1.0;"/><text fill="#000000" font-family="sans-serif" font-size="13" lengthAdjust="spacingAndGlyphs" textLength="71" x="548" y="120.02">Inheritance</text><!--MD5=[122c458fca63b9aff4b84eee201d8d52]
link ResponseBluetoothStatus to BluetoothMessage--><path d="M401.6307,77.0544 C416.5813,94.52 437.1231,118.5175 454.4226,138.7272 " fill="none" id="ResponseBluetoothStatus-&gt;BluetoothMessage" style="stroke: #A80036; stroke-width: 1.0;"/><polygon fill="none" points="459.7446,134.1801,467.4327,153.9258,449.109,143.2841,459.7446,134.1801" style="stroke: #A80036; stroke-width: 1.0;"/><text fill="#000000" font-family="sans-serif" font-size="13" lengthAdjust="spacingAndGlyphs" textLength="71" x="442" y="120.02">Inheritance</text><!--MD5=[103f9fc16a112e257e1cfe02f2b18527]
link ResponseBondedDevices to BluetoothMessage--><path d="M217.5914,77.0544 C270.8875,96.941 346.8783,125.2957 404.7387,146.8855 " fill="none" id="ResponseBondedDevices-&gt;BluetoothMessage" style="stroke: #A80036; stroke-width: 1.0;"/><polygon fill="none" points="407.316,140.3756,423.6069,153.9258,402.4217,153.4923,407.316,140.3756" style="stroke: #A80036; stroke-width: 1.0;"/><text fill="#000000" font-family="sans-serif" font-size="13" lengthAdjust="spacingAndGlyphs" textLength="71" x="342" y="120.02">Inheritance</text><!--MD5=[0df839f176d4e8747e1fa4ab5a231c8c]
reverse link BluetoothMessage to ResponseDeviceName--><path d="M582.8796,177.9531 C611.4009,177.9531 642.5139,177.9531 670.3971,177.9531 " fill="none" id="BluetoothMessage&lt;-ResponseDeviceName" style="stroke: #A80036; stroke-width: 1.0;"/><polygon fill="none" points="582.653,184.953,562.6529,177.9531,582.6529,170.953,582.653,184.953" style="stroke: #A80036; stroke-width: 1.0;"/><text fill="#000000" font-family="sans-serif" font-size="13" lengthAdjust="spacingAndGlyphs" textLength="71" x="581" y="171.02">Inheritance</text><!--MD5=[033a85fd32f3b3aef0299180834d08b5]
reverse link BluetoothMessage to ResponseVisibleDevices--><path d="M394.2498,204.3733 C364.9392,212.8864 332.5447,222.5557 303,231.9531 C256.497,246.7446 204.5524,264.6574 164.4585,278.79 " fill="none" id="BluetoothMessage&lt;-ResponseVisibleDevices" style="stroke: #A80036; stroke-width: 1.0;"/><polygon fill="none" points="392.3318,197.6412,413.4885,198.8216,396.2134,211.0924,392.3318,197.6412" style="stroke: #A80036; stroke-width: 1.0;"/><text fill="#000000" font-family="sans-serif" font-size="13" lengthAdjust="spacingAndGlyphs" textLength="71" x="304" y="245.02">Inheritance</text><!--MD5=[b1d91fbcaf829313f55081fceaec155a]
reverse link BluetoothMessage to SetBluetoothStatus--><path d="M434.9143,213.3197 C425.6087,219.526 416.0198,225.9257 407,231.9531 C383.6115,247.5822 357.3412,265.178 336.8045,278.9428 " fill="none" id="BluetoothMessage&lt;-SetBluetoothStatus" style="stroke: #A80036; stroke-width: 1.0;"/><polygon fill="none" points="431.1754,207.3993,451.6993,202.1293,438.9415,219.0479,431.1754,207.3993" style="stroke: #A80036; stroke-width: 1.0;"/><text fill="#000000" font-family="sans-serif" font-size="13" lengthAdjust="spacingAndGlyphs" textLength="71" x="408" y="245.02">Inheritance</text><!--MD5=[5be4832e50a96e9afd6716a5726789fc]
reverse link BluetoothMessage to SetBondedDevices--><path d="M488,222.1354 C488,241.245 488,262.8606 488,278.9258 " fill="none" id="BluetoothMessage&lt;-SetBondedDevices" style="stroke: #A80036; stroke-width: 1.0;"/><polygon fill="none" points="481.0001,222.0544,488,202.0544,495.0001,222.0543,481.0001,222.0544" style="stroke: #A80036; stroke-width: 1.0;"/><text fill="#000000" font-family="sans-serif" font-size="13" lengthAdjust="spacingAndGlyphs" textLength="71" x="489" y="245.02">Inheritance</text><!--MD5=[9e81130095896bc22196e3fc1c87645b]
reverse link BluetoothMessage to SetDeviceName--><path d="M541.6472,213.0735 C550.8355,219.2719 560.2398,225.7328 569,231.9531 C590.3444,247.109 613.8444,264.859 632.0083,278.82 " fill="none" id="BluetoothMessage&lt;-SetDeviceName" style="stroke: #A80036; stroke-width: 1.0;"/><polygon fill="none" points="537.7517,218.8894,525.0046,201.9627,545.5251,207.2458,537.7517,218.8894" style="stroke: #A80036; stroke-width: 1.0;"/><text fill="#000000" font-family="sans-serif" font-size="13" lengthAdjust="spacingAndGlyphs" textLength="71" x="590" y="245.02">Inheritance</text><!--MD5=[27d3195f2473dab648037e6c3b9e7d94]
reverse link BluetoothMessage to SetScanState--><path d="M582.0307,202.9603 C610.5784,211.3238 641.8337,221.2641 670,231.9531 C706.0809,245.6457 745.5313,264.1843 775.1976,278.8845 " fill="none" id="BluetoothMessage&lt;-SetScanState" style="stroke: #A80036; stroke-width: 1.0;"/><polygon fill="none" points="580.0635,209.6784,562.7708,197.4323,583.9259,196.2217,580.0635,209.6784" style="stroke: #A80036; stroke-width: 1.0;"/><text fill="#000000" font-family="sans-serif" font-size="13" lengthAdjust="spacingAndGlyphs" textLength="71" x="709" y="245.02">Inheritance</text><!--MD5=[c3530f9c1db8aa2bb047a02e3783307d]
@startuml
title BluetoothMessages - Class Diagram


class BluetoothMessage

class RequestBluetoothStatus
class RequestBondedDevices
class RequestDeviceName

class ResponseBluetoothStatus
class ResponseBondedDevices
class ResponseDeviceName
class ResponseVisibleDevices

class SetBluetoothStatus
class SetBondedDevices
class SetDeviceName
class SetScanState

BluetoothMessage <|-left- RequestBluetoothStatus: Inheritance
BluetoothMessage <|-up- RequestBondedDevices: Inheritance
BluetoothMessage <|-up- RequestDeviceName: Inheritance


BluetoothMessage <|-up- ResponseBluetoothStatus: Inheritance
BluetoothMessage <|-up- ResponseBondedDevices: Inheritance
BluetoothMessage <|-right- ResponseDeviceName: Inheritance
BluetoothMessage <|-down- ResponseVisibleDevices: Inheritance


BluetoothMessage <|-down- SetBluetoothStatus: Inheritance
BluetoothMessage <|-down- SetBondedDevices: Inheritance
BluetoothMessage <|-down- SetDeviceName: Inheritance
BluetoothMessage <|-down- SetScanState: Inheritance
@enduml

PlantUML version 1.2019.12(Sun Nov 03 10:24:54 UTC 2019)
(GPL source distribution)
Java Runtime: OpenJDK Runtime Environment
JVM: OpenJDK 64-Bit Server VM
Java Version: 1.8.0_232-heroku-b09
Operating System: Linux
Default Encoding: UTF-8
Language: en
Country: US
--></g></svg>