<?xml version="1.0" encoding="UTF-8" standalone="no"?><svg xmlns="http://www.w3.org/2000/svg" xmlns:xlink="http://www.w3.org/1999/xlink" contentScriptType="application/ecmascript" contentStyleType="text/css" height="55px" preserveAspectRatio="none" style="width:700px;height:55px;" version="1.1" viewBox="0 0 700 55" width="700px" zoomAndPan="magnify"><defs><filter height="300%" id="f11mf93z2o7zom" width="300%" x="-1" y="-1"><feGaussianBlur result="blurOut" stdDeviation="2.0"/><feColorMatrix in="blurOut" result="blurOut2" type="matrix" values="0 0 0 0 0 0 0 0 0 0 0 0 0 0 0 0 0 0 .4 0"/><feOffset dx="4.0" dy="4.0" in="blurOut2" result="blurOut3"/><feBlend in="SourceGraphic" in2="blurOut3" mode="normal"/></filter></defs><g><!--MD5=[4ff375fdd5a4c489d7dad352cbd5d06e]
entity srvcdb--><rect fill="#FEFECE" filter="url(#f11mf93z2o7zom)" height="36.2969" style="stroke: #A80036; stroke-width: 1.5;" width="95" x="6" y="8"/><rect fill="#FEFECE" height="5" style="stroke: #A80036; stroke-width: 1.5;" width="10" x="1" y="13"/><rect fill="#FEFECE" height="5" style="stroke: #A80036; stroke-width: 1.5;" width="10" x="1" y="34.2969"/><text fill="#000000" font-family="sans-serif" font-size="14" lengthAdjust="spacingAndGlyphs" textLength="75" x="16" y="30.9951">Service DB</text><!--MD5=[44cde863c342c45177f5f29f53d2de1e]
entity srvcbt--><rect fill="#FEFECE" filter="url(#f11mf93z2o7zom)" height="36.2969" style="stroke: #A80036; stroke-width: 1.5;" width="142" x="228.5" y="8"/><rect fill="#FEFECE" height="5" style="stroke: #A80036; stroke-width: 1.5;" width="10" x="223.5" y="13"/><rect fill="#FEFECE" height="5" style="stroke: #A80036; stroke-width: 1.5;" width="10" x="223.5" y="34.2969"/><text fill="#000000" font-family="sans-serif" font-size="14" lengthAdjust="spacingAndGlyphs" textLength="122" x="238.5" y="30.9951">Service Bluetooth</text><!--MD5=[ef233ba7a86bbf46a72532c6e29b3ed1]
entity appstngs--><rect fill="#FEFECE" filter="url(#f11mf93z2o7zom)" height="36.2969" style="stroke: #A80036; stroke-width: 1.5;" width="156" x="533.5" y="8"/><rect fill="#FEFECE" height="5" style="stroke: #A80036; stroke-width: 1.5;" width="10" x="528.5" y="13"/><rect fill="#FEFECE" height="5" style="stroke: #A80036; stroke-width: 1.5;" width="10" x="528.5" y="34.2969"/><text fill="#000000" font-family="sans-serif" font-size="14" lengthAdjust="spacingAndGlyphs" textLength="136" x="543.5" y="30.9951">Application Settings</text><!--MD5=[ea8f7f3546fb2fa8de5261aa4d1a6346]
link srvcdb to srvcbt--><path d="M106.3823,26 C140.4167,26 185.2057,26 223.0807,26 " fill="none" id="srvcdb-srvcbt" style="stroke: #A80036; stroke-width: 1.0;"/><polygon fill="#A80036" points="228.1388,26,219.1388,22,223.1388,26,219.1388,30,228.1388,26" style="stroke: #A80036; stroke-width: 1.0;"/><polygon fill="#A80036" points="101.223,26,110.223,30,106.223,26,110.223,22,101.223,26" style="stroke: #A80036; stroke-width: 1.0;"/><text fill="#000000" font-family="sans-serif" font-size="13" lengthAdjust="spacingAndGlyphs" textLength="91" x="119.25" y="19.0669">SettingsAgent</text><!--MD5=[e3bf7600b9ae2cb087876e44ae9bcba1]
link srvcbt to appstngs--><path d="M375.857,26 C421.9715,26 480.7743,26 528.1023,26 " fill="none" id="srvcbt-appstngs" style="stroke: #A80036; stroke-width: 1.0;"/><polygon fill="#A80036" points="533.2289,26,524.2289,22,528.2289,26,524.2289,30,533.2289,26" style="stroke: #A80036; stroke-width: 1.0;"/><polygon fill="#A80036" points="370.688,26,379.688,30,375.688,26,379.688,22,370.688,26" style="stroke: #A80036; stroke-width: 1.0;"/><text fill="#000000" font-family="sans-serif" font-size="13" lengthAdjust="spacingAndGlyphs" textLength="126" x="389" y="19.0669">BluetoothMessages</text><!--MD5=[edba85c2e849d6da9ab271417cd0b1bd]
@startuml
[Service DB] as srvcdb
[Service Bluetooth] as srvcbt
[Application Settings] as appstngs


srvcdb <-r-> srvcbt : SettingsAgent
srvcbt <-r-> appstngs : BluetoothMessages
@enduml

PlantUML version 1.2019.12(Sun Nov 03 10:24:54 UTC 2019)
(GPL source distribution)
Java Runtime: OpenJDK Runtime Environment
JVM: OpenJDK 64-Bit Server VM
Java Version: 1.8.0_232-heroku-b09
Operating System: Linux
Default Encoding: UTF-8
Language: en
Country: US
--></g></svg>
