<?xml version="1.0" encoding="UTF-8" standalone="no"?><svg xmlns="http://www.w3.org/2000/svg" xmlns:xlink="http://www.w3.org/1999/xlink" contentScriptType="application/ecmascript" contentStyleType="text/css" height="160px" preserveAspectRatio="none" style="width:376px;height:160px;background:#F0F0F0;" version="1.1" viewBox="0 0 376 160" width="376px" zoomAndPan="magnify"><defs><filter height="300%" id="f9phkc210ff16" width="300%" x="-1" y="-1"><feGaussianBlur result="blurOut" stdDeviation="2.0"/><feColorMatrix in="blurOut" result="blurOut2" type="matrix" values="0 0 0 0 0 0 0 0 0 0 0 0 0 0 0 0 0 0 .4 0"/><feOffset dx="4.0" dy="4.0" in="blurOut2" result="blurOut3"/><feBlend in="SourceGraphic" in2="blurOut3" mode="normal"/></filter></defs><g><!--MD5=[0548101af59ed75e13a0ca2991bca20a]
cluster ServiceBluetooth--><polygon fill="#F0F0F0" filter="url(#f9phkc210ff16)" points="22,24,163,24,170,46.2969,354,46.2969,354,148,22,148,22,24" style="stroke: #000000; stroke-width: 1.5;"/><line style="stroke: #000000; stroke-width: 1.5;" x1="22" x2="170" y1="46.2969" y2="46.2969"/><text fill="#000000" font-family="sans-serif" font-size="14" font-weight="bold" lengthAdjust="spacingAndGlyphs" textLength="135" x="26" y="38.9951">ServiceBluetooth</text><rect fill="#FEFECE" filter="url(#f9phkc210ff16)" height="72.5313" style="stroke: #A80036; stroke-width: 1.5;" width="127" x="210.5" y="59"/><text fill="#000000" font-family="sans-serif" font-size="12" lengthAdjust="spacingAndGlyphs" textLength="113" x="217.5" y="72.1387">BluetoothSettings</text><line style="stroke: #A80036; stroke-width: 1.5;" x1="211.5" x2="336.5" y1="76.9688" y2="76.9688"/><text fill="#000000" font-family="sans-serif" font-size="10" lengthAdjust="spacingAndGlyphs" textLength="73" x="216.5" y="90.251">bluetoothState</text><text fill="#000000" font-family="sans-serif" font-size="10" lengthAdjust="spacingAndGlyphs" textLength="74" x="216.5" y="101.8916">bondedDevices</text><text fill="#000000" font-family="sans-serif" font-size="10" lengthAdjust="spacingAndGlyphs" textLength="67" x="216.5" y="113.5322">deviceVisibilty</text><text fill="#000000" font-family="sans-serif" font-size="10" lengthAdjust="spacingAndGlyphs" textLength="61" x="216.5" y="125.1729">deviceName</text><!--MD5=[03d44597ab286d6d2e01a8c181857d8a]
class BluetoothWorker--><rect fill="#FEFECE" filter="url(#f9phkc210ff16)" height="48" id="BluetoothWorker" style="stroke: #A80036; stroke-width: 1.5;" width="137" x="38.5" y="71.5"/><ellipse cx="53.5" cy="87.5" fill="#ADD1B2" rx="11" ry="11" style="stroke: #A80036; stroke-width: 1.0;"/><path d="M56.4688,93.1406 Q55.8906,93.4375 55.25,93.5781 Q54.6094,93.7344 53.9063,93.7344 Q51.4063,93.7344 50.0781,92.0938 Q48.7656,90.4375 48.7656,87.3125 Q48.7656,84.1875 50.0781,82.5313 Q51.4063,80.875 53.9063,80.875 Q54.6094,80.875 55.25,81.0313 Q55.9063,81.1875 56.4688,81.4844 L56.4688,84.2031 Q55.8438,83.625 55.25,83.3594 Q54.6563,83.0781 54.0313,83.0781 Q52.6875,83.0781 52,84.1563 Q51.3125,85.2188 51.3125,87.3125 Q51.3125,89.4063 52,90.4844 Q52.6875,91.5469 54.0313,91.5469 Q54.6563,91.5469 55.25,91.2813 Q55.8438,91 56.4688,90.4219 L56.4688,93.1406 Z "/><text fill="#000000" font-family="sans-serif" font-size="12" lengthAdjust="spacingAndGlyphs" textLength="105" x="67.5" y="91.6543">BluetoothWorker</text><line style="stroke: #A80036; stroke-width: 1.5;" x1="39.5" x2="174.5" y1="103.5" y2="103.5"/><line style="stroke: #A80036; stroke-width: 1.5;" x1="39.5" x2="174.5" y1="111.5" y2="111.5"/><!--MD5=[a9850fad75709833ab4dea581674c7c2]
@startuml
skinparam BackgroundColor F0F0F0

package ServiceBluetooth {
  object BluetoothSettings {
  bluetoothState
  bondedDevices
  deviceVisibilty
  deviceName
}
  class BluetoothWorker{}
}

@enduml

PlantUML version 1.2020.02(Sun Mar 01 05:22:07 EST 2020)
(GPL source distribution)
Java Runtime: OpenJDK Runtime Environment
JVM: OpenJDK 64-Bit Server VM
Java Version: 11.0.12+7-post-Debian-2
Operating System: Linux
Default Encoding: UTF-8
Language: en
Country: US
--></g></svg>