<?xml version="1.0" encoding="UTF-8" standalone="no"?><svg xmlns="http://www.w3.org/2000/svg" xmlns:xlink="http://www.w3.org/1999/xlink" contentScriptType="application/ecmascript" contentStyleType="text/css" height="136px" preserveAspectRatio="none" style="width:352px;height:136px;" version="1.1" viewBox="0 0 352 136" width="352px" zoomAndPan="magnify"><defs><filter height="300%" id="fmppo68x28gj4" width="300%" x="-1" y="-1"><feGaussianBlur result="blurOut" stdDeviation="2.0"/><feColorMatrix in="blurOut" result="blurOut2" type="matrix" values="0 0 0 0 0 0 0 0 0 0 0 0 0 0 0 0 0 0 .4 0"/><feOffset dx="4.0" dy="4.0" in="blurOut2" result="blurOut3"/><feBlend in="SourceGraphic" in2="blurOut3" mode="normal"/></filter></defs><g><!--MD5=[0548101af59ed75e13a0ca2991bca20a]
cluster ServiceBluetooth--><polygon fill="#FFFFFF" filter="url(#fmppo68x28gj4)" points="14,16,155,16,162,38.2969,330,38.2969,330,124,14,124,14,16" style="stroke: #000000; stroke-width: 1.5;"/><line style="stroke: #000000; stroke-width: 1.5;" x1="14" x2="162" y1="38.2969" y2="38.2969"/><text fill="#000000" font-family="sans-serif" font-size="14" font-weight="bold" lengthAdjust="spacingAndGlyphs" textLength="135" x="18" y="30.9951">ServiceBluetooth</text><rect fill="#FEFECE" filter="url(#fmppo68x28gj4)" height="72.5313" style="stroke: #A80036; stroke-width: 1.5;" width="127" x="194.5" y="43"/><text fill="#000000" font-family="sans-serif" font-size="12" lengthAdjust="spacingAndGlyphs" textLength="113" x="201.5" y="56.1387">BluetoothSettings</text><line style="stroke: #A80036; stroke-width: 1.5;" x1="195.5" x2="320.5" y1="60.9688" y2="60.9688"/><text fill="#000000" font-family="sans-serif" font-size="10" lengthAdjust="spacingAndGlyphs" textLength="73" x="200.5" y="74.251">bluetoothState</text><text fill="#000000" font-family="sans-serif" font-size="10" lengthAdjust="spacingAndGlyphs" textLength="74" x="200.5" y="85.8916">bondedDevices</text><text fill="#000000" font-family="sans-serif" font-size="10" lengthAdjust="spacingAndGlyphs" textLength="67" x="200.5" y="97.5322">deviceVisibilty</text><text fill="#000000" font-family="sans-serif" font-size="10" lengthAdjust="spacingAndGlyphs" textLength="61" x="200.5" y="109.1729">deviceName</text><!--MD5=[03d44597ab286d6d2e01a8c181857d8a]
class BluetoothWorker--><rect fill="#FEFECE" filter="url(#fmppo68x28gj4)" height="48" id="BluetoothWorker" style="stroke: #A80036; stroke-width: 1.5;" width="137" x="22.5" y="55.5"/><ellipse cx="37.5" cy="71.5" fill="#ADD1B2" rx="11" ry="11" style="stroke: #A80036; stroke-width: 1.0;"/><path d="M40.4688,77.1406 Q39.8906,77.4375 39.25,77.5859 Q38.6094,77.7344 37.9063,77.7344 Q35.4063,77.7344 34.0859,76.0859 Q32.7656,74.4375 32.7656,71.3125 Q32.7656,68.1875 34.0859,66.5313 Q35.4063,64.875 37.9063,64.875 Q38.6094,64.875 39.2578,65.0313 Q39.9063,65.1875 40.4688,65.4844 L40.4688,68.2031 Q39.8438,67.625 39.25,67.3516 Q38.6563,67.0781 38.0313,67.0781 Q36.6875,67.0781 36,68.1484 Q35.3125,69.2188 35.3125,71.3125 Q35.3125,73.4063 36,74.4766 Q36.6875,75.5469 38.0313,75.5469 Q38.6563,75.5469 39.25,75.2734 Q39.8438,75 40.4688,74.4219 L40.4688,77.1406 Z "/><text fill="#000000" font-family="sans-serif" font-size="12" lengthAdjust="spacingAndGlyphs" textLength="105" x="51.5" y="75.6543">BluetoothWorker</text><line style="stroke: #A80036; stroke-width: 1.5;" x1="23.5" x2="158.5" y1="87.5" y2="87.5"/><line style="stroke: #A80036; stroke-width: 1.5;" x1="23.5" x2="158.5" y1="95.5" y2="95.5"/><!--MD5=[c20615217e79f31a2461766256926e8e]
@startuml
package ServiceBluetooth {
  object BluetoothSettings {
  bluetoothState
  bondedDevices
  deviceVisibilty
  deviceName
}
  class BluetoothWorker{}
}
@enduml

PlantUML version 1.2019.12(Sun Nov 03 10:24:54 UTC 2019)
(GPL source distribution)
Java Runtime: OpenJDK Runtime Environment
JVM: OpenJDK 64-Bit Server VM
Java Version: 1.8.0_232-heroku-b09
Operating System: Linux
Default Encoding: UTF-8
Language: en
Country: US
--></g></svg>
