<?xml version="1.0" encoding="UTF-8" standalone="no"?><svg xmlns="http://www.w3.org/2000/svg" xmlns:xlink="http://www.w3.org/1999/xlink" contentScriptType="application/ecmascript" contentStyleType="text/css" height="673px" preserveAspectRatio="none" style="width:1725px;height:673px;background:#FFFFFF;" version="1.1" viewBox="0 0 1725 673" width="1725px" zoomAndPan="magnify"><defs><filter height="300%" id="fagroh412bl9h" width="300%" x="-1" y="-1"><feGaussianBlur result="blurOut" stdDeviation="2.0"/><feColorMatrix in="blurOut" result="blurOut2" type="matrix" values="0 0 0 0 0 0 0 0 0 0 0 0 0 0 0 0 0 0 .4 0"/><feOffset dx="4.0" dy="4.0" in="blurOut2" result="blurOut3"/><feBlend in="SourceGraphic" in2="blurOut3" mode="normal"/></filter></defs><g><ellipse cx="689.42" cy="16" fill="#000000" filter="url(#fagroh412bl9h)" rx="10" ry="10" style="stroke:none;stroke-width:1.0;"/><g id="Idle"><rect fill="#FEFECE" filter="url(#fagroh412bl9h)" height="71.7561" rx="12.5" ry="12.5" style="stroke:#A80036;stroke-width:1.5;" width="108" x="635.42" y="87"/><line style="stroke:#A80036;stroke-width:1.5;" x1="635.42" x2="743.42" y1="116.0679" y2="116.0679"/><text fill="#000000" font-family="sans-serif" font-size="14" lengthAdjust="spacing" textLength="26" x="676.42" y="106.9659">Idle</text><text fill="#000000" font-family="sans-serif" font-size="12" lengthAdjust="spacing" textLength="55" x="640.42" y="133.896">on_entry /</text><text fill="#000000" font-family="sans-serif" font-size="12" lengthAdjust="spacing" textLength="85" x="643.42" y="150.2401">call::handle_init</text></g><g id="Ringing"><rect fill="#FEFECE" filter="url(#fagroh412bl9h)" height="50" rx="12.5" ry="12.5" style="stroke:#A80036;stroke-width:1.5;" width="73" x="207.92" y="276.5"/><line style="stroke:#A80036;stroke-width:1.5;" x1="207.92" x2="280.92" y1="305.5679" y2="305.5679"/><text fill="#000000" font-family="sans-serif" font-size="14" lengthAdjust="spacing" textLength="53" x="217.92" y="296.4659">Ringing</text></g><g id="HaveId"><rect fill="#FEFECE" filter="url(#fagroh412bl9h)" height="50" rx="12.5" ry="12.5" style="stroke:#A80036;stroke-width:1.5;" width="67" x="655.92" y="444"/><line style="stroke:#A80036;stroke-width:1.5;" x1="655.92" x2="722.92" y1="473.0679" y2="473.0679"/><text fill="#000000" font-family="sans-serif" font-size="14" lengthAdjust="spacing" textLength="47" x="665.92" y="463.9659">HaveId</text></g><g id="Starting"><rect fill="#FEFECE" filter="url(#fagroh412bl9h)" height="50" rx="12.5" ry="12.5" style="stroke:#A80036;stroke-width:1.5;" width="74" x="1216.42" y="444"/><line style="stroke:#A80036;stroke-width:1.5;" x1="1216.42" x2="1290.42" y1="473.0679" y2="473.0679"/><text fill="#000000" font-family="sans-serif" font-size="14" lengthAdjust="spacing" textLength="54" x="1226.42" y="463.9659">Starting</text></g><g id="Ongoing"><rect fill="#FEFECE" filter="url(#fagroh412bl9h)" height="50" rx="12.5" ry="12.5" style="stroke:#A80036;stroke-width:1.5;" width="79" x="1143.92" y="609"/><line style="stroke:#A80036;stroke-width:1.5;" x1="1143.92" x2="1222.92" y1="638.0679" y2="638.0679"/><text fill="#000000" font-family="sans-serif" font-size="14" lengthAdjust="spacing" textLength="59" x="1153.92" y="628.9659">Ongoing</text></g><!--MD5=[38f1f8b7f214ff6bc6d4b705f682283d]
link *start to Idle--><path d="M689.42,26.32 C689.42,38.72 689.42,61.43 689.42,81.62 " fill="none" id="*start-to-Idle" style="stroke:#A80036;stroke-width:1.0;"/><polygon fill="#A80036" points="689.42,86.69,693.4457,77.7015,689.4343,81.69,685.4457,77.6786,689.42,86.69" style="stroke:#A80036;stroke-width:1.0;"/><!--MD5=[4a14721c1eaf3d017c18f39545a6a6ef]
link Idle to Ringing--><path d="M635.22,126.97 C510.58,134.34 212.03,155.36 182.42,189 C166.28,207.35 172.55,221.64 182.42,244 C187.26,254.96 195.39,264.71 204.2,272.89 " fill="none" id="Idle-to-Ringing" style="stroke:#A80036;stroke-width:1.0;"/><polygon fill="#A80036" points="208.01,276.3,203.9599,267.3224,204.2801,272.9702,198.6323,273.2903,208.01,276.3" style="stroke:#A80036;stroke-width:1.0;"/><text fill="#000000" font-family="sans-serif" font-size="13" lengthAdjust="spacing" textLength="96" x="184.42" y="203.897">call::event::RING</text><text fill="#000000" font-family="sans-serif" font-size="13" lengthAdjust="spacing" textLength="72" x="197.92" y="221.603">[call::RING] /</text><text fill="#000000" font-family="sans-serif" font-size="13" lengthAdjust="spacing" textLength="95" x="186.42" y="239.309">call::HandleRing</text><!--MD5=[b445053e7a1d5b3c2afc54b1d6f0c485]
link Ringing to Idle--><path d="M262.94,276.26 C270.37,266.35 278.94,254.72 286.42,244 C303.15,220.04 298.04,205.09 322.42,189 C372.05,156.25 539.56,137.03 630.12,128.78 " fill="none" id="Ringing-to-Idle" style="stroke:#A80036;stroke-width:1.0;"/><polygon fill="#A80036" points="635.18,128.33,625.8614,125.142,630.1996,128.7724,626.5692,133.1106,635.18,128.33" style="stroke:#A80036;stroke-width:1.0;"/><text fill="#000000" font-family="sans-serif" font-size="13" lengthAdjust="spacing" textLength="109" x="332.92" y="212.897">call::event::Reject /</text><text fill="#000000" font-family="sans-serif" font-size="13" lengthAdjust="spacing" textLength="125" x="326.42" y="230.603">call::HandleRejectCall</text><!--MD5=[b445053e7a1d5b3c2afc54b1d6f0c485]
link Ringing to Idle--><path d="M281.16,298.6 C326.33,294.62 403.48,282.27 456.42,244 C480.1,226.89 469.25,206.8 492.42,189 C532.63,158.12 588.19,141.54 630.06,132.88 " fill="none" id="Ringing-to-Idle-1" style="stroke:#A80036;stroke-width:1.0;"/><polygon fill="#A80036" points="635.1,131.86,625.4879,129.7135,630.1982,132.8461,627.0656,137.5564,635.1,131.86" style="stroke:#A80036;stroke-width:1.0;"/><text fill="#000000" font-family="sans-serif" font-size="13" lengthAdjust="spacing" textLength="111" x="501.92" y="212.897">call::event::Ended /</text><text fill="#000000" font-family="sans-serif" font-size="13" lengthAdjust="spacing" textLength="125" x="496.42" y="230.603">call::HandleRejectCall</text><!--MD5=[b445053e7a1d5b3c2afc54b1d6f0c485]
link Ringing to Idle--><path d="M207.88,296.57 C150.88,289.62 45,273.04 22.42,244 C7.42,224.7 6,207.1 22.42,189 C62.87,144.43 473.7,129.44 629.74,125.34 " fill="none" id="Ringing-to-Idle-2" style="stroke:#A80036;stroke-width:1.0;"/><polygon fill="#A80036" points="635.18,125.19,626.0799,121.4233,630.1817,125.3189,626.2861,129.4207,635.18,125.19" style="stroke:#A80036;stroke-width:1.0;"/><text fill="#000000" font-family="sans-serif" font-size="13" lengthAdjust="spacing" textLength="92" x="47.92" y="203.897">call::event::CLIP</text><text fill="#000000" font-family="sans-serif" font-size="13" lengthAdjust="spacing" textLength="125" x="32.92" y="221.603">[call::ClipDND_NOK] /</text><text fill="#000000" font-family="sans-serif" font-size="13" lengthAdjust="spacing" textLength="138" x="26.42" y="239.309">call::HandleDND_Reject</text><!--MD5=[d9a236f899448a21faa88e2b2c7523ea]
link Idle to HaveId--><path d="M736.63,159.18 C768.99,186.44 809.23,227.35 827.42,274 C854.18,342.59 776.89,409.65 727.39,444.11 " fill="none" id="Idle-to-HaveId" style="stroke:#A80036;stroke-width:1.0;"/><polygon fill="#A80036" points="722.99,447.14,732.6725,445.3374,727.1102,444.3074,728.1403,438.7451,722.99,447.14" style="stroke:#A80036;stroke-width:1.0;"/><text fill="#000000" font-family="sans-serif" font-size="13" lengthAdjust="spacing" textLength="92" x="871.92" y="288.897">call::event::CLIP</text><text fill="#000000" font-family="sans-serif" font-size="13" lengthAdjust="spacing" textLength="128" x="855.42" y="306.603">[call::ClipConnected] /</text><text fill="#000000" font-family="sans-serif" font-size="13" lengthAdjust="spacing" textLength="166" x="836.42" y="324.309">call::HandleClipWithoutRing</text><!--MD5=[d9a236f899448a21faa88e2b2c7523ea]
link Idle to HaveId--><path d="M743.83,134.16 C853.13,157.1 1083.05,219.65 1011.42,329 C947.61,426.42 799.41,455.86 728.54,464.52 " fill="none" id="Idle-to-HaveId-1" style="stroke:#A80036;stroke-width:1.0;"/><polygon fill="#A80036" points="723.16,465.15,732.5662,468.0695,728.1257,464.565,731.6302,460.1244,723.16,465.15" style="stroke:#A80036;stroke-width:1.0;"/><text fill="#000000" font-family="sans-serif" font-size="13" lengthAdjust="spacing" textLength="92" x="1039.92" y="288.897">call::event::CLIP</text><text fill="#000000" font-family="sans-serif" font-size="13" lengthAdjust="spacing" textLength="115" x="1029.92" y="306.603">[call::ClipDND_OK] /</text><text fill="#000000" font-family="sans-serif" font-size="13" lengthAdjust="spacing" textLength="118" x="1028.42" y="324.309">call::HandleClipDND</text><!--MD5=[b42b0813981780530edef3df7548b0ab]
link HaveId to Idle--><path d="M666.4,443.93 C643.12,420.43 605.39,384.58 568.42,359 C544.56,342.49 525.51,353.79 510.42,329 C497.72,308.12 495.46,293.33 510.42,274 C543.03,231.89 584.69,277.08 626.42,244 C651.94,223.77 668.28,190.35 677.91,163.91 " fill="none" id="HaveId-to-Idle" style="stroke:#A80036;stroke-width:1.0;"/><polygon fill="#A80036" points="679.63,159.05,672.8525,166.196,677.9592,163.7626,680.3926,168.8693,679.63,159.05" style="stroke:#A80036;stroke-width:1.0;"/><text fill="#000000" font-family="sans-serif" font-size="13" lengthAdjust="spacing" textLength="111" x="522.92" y="297.897">call::event::Ended /</text><text fill="#000000" font-family="sans-serif" font-size="13" lengthAdjust="spacing" textLength="131" x="514.42" y="315.603">call::HandleMissedCall</text><!--MD5=[b42b0813981780530edef3df7548b0ab]
link HaveId to Idle--><path d="M689.42,443.6 C689.42,385.08 689.42,236.26 689.42,164.25 " fill="none" id="HaveId-to-Idle-1" style="stroke:#A80036;stroke-width:1.0;"/><polygon fill="#A80036" points="689.42,159.2,685.42,168.2,689.42,164.2,693.42,168.2,689.42,159.2" style="stroke:#A80036;stroke-width:1.0;"/><text fill="#000000" font-family="sans-serif" font-size="13" lengthAdjust="spacing" textLength="109" x="699.92" y="297.897">call::event::Reject /</text><text fill="#000000" font-family="sans-serif" font-size="13" lengthAdjust="spacing" textLength="125" x="693.42" y="315.603">call::HandleRejectCall</text><!--MD5=[4f7116d012c72546cb0d8b5f1cb34cc3]
link Idle to Idle--><path d="M743.74,110.63 C762.89,110.43 778.42,114.56 778.42,123 C778.42,130.65 765.66,134.76 749.02,135.31 " fill="none" id="Idle-to-Idle" style="stroke:#A80036;stroke-width:1.0;"/><polygon fill="#A80036" points="743.74,135.37,752.7851,139.2669,748.7397,135.3129,752.6937,131.2674,743.74,135.37" style="stroke:#A80036;stroke-width:1.0;"/><text fill="#000000" font-family="sans-serif" font-size="13" lengthAdjust="spacing" textLength="92" x="808.92" y="110.397">call::event::CLIP</text><text fill="#000000" font-family="sans-serif" font-size="13" lengthAdjust="spacing" textLength="125" x="793.92" y="128.103">[call::ClipDND_NOK] /</text><text fill="#000000" font-family="sans-serif" font-size="13" lengthAdjust="spacing" textLength="138" x="787.42" y="145.809">call::HandleDND_Reject</text><!--MD5=[5038e0717032de67f19838e91765af9d]
link Idle to Starting--><path d="M743.72,125.88 C840.16,132.19 1041.83,159.22 1155.42,274 C1202.99,322.07 1231.99,397.91 1245.1,439.08 " fill="none" id="Idle-to-Starting" style="stroke:#A80036;stroke-width:1.0;"/><polygon fill="#A80036" points="1246.62,443.93,1247.7368,434.1447,1245.1205,439.1601,1240.105,436.5439,1246.62,443.93" style="stroke:#A80036;stroke-width:1.0;"/><text fill="#000000" font-family="sans-serif" font-size="13" lengthAdjust="spacing" textLength="123" x="1195.42" y="297.897">call::event::StartCall /</text><text fill="#000000" font-family="sans-serif" font-size="13" lengthAdjust="spacing" textLength="118" x="1199.42" y="315.603">call::HandleStartCall</text><!--MD5=[a8a6e8911ee4b822779a5c15ea0fe9d5]
link Starting to Ongoing--><path d="M1290.55,489.72 C1303.05,498.42 1315.56,509.91 1322.42,524 C1333.13,545.97 1336.23,558.83 1322.42,579 C1301.4,609.72 1260.13,622.97 1228,628.68 " fill="none" id="Starting-to-Ongoing" style="stroke:#A80036;stroke-width:1.0;"/><polygon fill="#A80036" points="1222.93,629.53,1232.4686,631.9825,1227.8608,628.7011,1231.1423,624.0933,1222.93,629.53" style="stroke:#A80036;stroke-width:1.0;"/><text fill="#000000" font-family="sans-serif" font-size="13" lengthAdjust="spacing" textLength="111" x="1334.42" y="547.897">call::event::Ended /</text><text fill="#000000" font-family="sans-serif" font-size="13" lengthAdjust="spacing" textLength="112" x="1335.42" y="565.603">call::HandleEndCall</text><!--MD5=[a8a6e8911ee4b822779a5c15ea0fe9d5]
link Starting to Ongoing--><path d="M1216.08,473.25 C1157.2,479.22 1047.05,494.18 1023.42,524 C1008.24,543.16 1009.17,559.14 1023.42,579 C1049.34,615.09 1100.64,627.38 1138.19,631.39 " fill="none" id="Starting-to-Ongoing-1" style="stroke:#A80036;stroke-width:1.0;"/><polygon fill="#A80036" points="1143.63,631.93,1135.0616,627.0738,1138.6537,631.4438,1134.2837,635.0359,1143.63,631.93" style="stroke:#A80036;stroke-width:1.0;"/><text fill="#000000" font-family="sans-serif" font-size="13" lengthAdjust="spacing" textLength="109" x="1027.42" y="547.897">call::event::Reject /</text><text fill="#000000" font-family="sans-serif" font-size="13" lengthAdjust="spacing" textLength="112" x="1027.42" y="565.603">call::HandleEndCall</text><!--MD5=[a8a6e8911ee4b822779a5c15ea0fe9d5]
link Starting to Ongoing--><path d="M1216.16,486.4 C1200.94,495.19 1184.94,507.63 1176.42,524 C1163.57,548.71 1167.77,580.95 1173.69,603.94 " fill="none" id="Starting-to-Ongoing-2" style="stroke:#A80036;stroke-width:1.0;"/><polygon fill="#A80036" points="1175.05,609,1176.5727,599.2696,1173.7501,604.1719,1168.8478,601.3494,1175.05,609" style="stroke:#A80036;stroke-width:1.0;"/><text fill="#000000" font-family="sans-serif" font-size="13" lengthAdjust="spacing" textLength="117" x="1186.92" y="547.897">call::event::Answer /</text><text fill="#000000" font-family="sans-serif" font-size="13" lengthAdjust="spacing" textLength="133" x="1180.42" y="565.603">call::HandleStartedCall</text><!--MD5=[2cebd8ac44a4363bc14d79ffcc983203]
link Ringing to Ongoing--><path d="M229.14,326.58 C215.86,350.87 201.48,388.36 220.42,414 C368.8,614.81 513.34,526.44 757.42,579 C894.7,608.56 1060.6,623.86 1138.68,629.87 " fill="none" id="Ringing-to-Ongoing" style="stroke:#A80036;stroke-width:1.0;"/><polygon fill="#A80036" points="1143.69,630.26,1135.0253,625.5777,1138.7049,629.8743,1134.4083,633.5539,1143.69,630.26" style="stroke:#A80036;stroke-width:1.0;"/><text fill="#000000" font-family="sans-serif" font-size="13" lengthAdjust="spacing" textLength="117" x="305.92" y="465.397">call::event::Answer /</text><text fill="#000000" font-family="sans-serif" font-size="13" lengthAdjust="spacing" textLength="133" x="299.42" y="483.103">call::HandleAnswerCall</text><!--MD5=[1eb793f0abbdfe879580084477c36e66]
link Ringing to HaveId--><path d="M235.23,326.6 C227.43,351.64 220.48,390.38 241.42,414 C268.42,444.44 546.62,461.04 650.55,466.21 " fill="none" id="Ringing-to-HaveId" style="stroke:#A80036;stroke-width:1.0;"/><polygon fill="#A80036" points="655.66,466.46,646.8647,462.0281,650.6659,466.2174,646.4765,470.0187,655.66,466.46" style="stroke:#A80036;stroke-width:1.0;"/><text fill="#000000" font-family="sans-serif" font-size="13" lengthAdjust="spacing" textLength="92" x="275.42" y="373.897">call::event::CLIP</text><text fill="#000000" font-family="sans-serif" font-size="13" lengthAdjust="spacing" textLength="128" x="258.92" y="391.603">[call::ClipConnected] /</text><text fill="#000000" font-family="sans-serif" font-size="13" lengthAdjust="spacing" textLength="155" x="245.42" y="409.309">call::HandleClipConnected</text><!--MD5=[1eb793f0abbdfe879580084477c36e66]
link Ringing to HaveId--><path d="M280.94,308.31 C315.88,315.38 368.58,330.14 405.42,359 C428.43,377.01 417.36,397.44 441.42,414 C505.29,457.96 598.53,467 650.58,468.36 " fill="none" id="Ringing-to-HaveId-1" style="stroke:#A80036;stroke-width:1.0;"/><polygon fill="#A80036" points="655.8,468.47,646.8938,464.2654,650.8013,468.3557,646.7109,472.2633,655.8,468.47" style="stroke:#A80036;stroke-width:1.0;"/><text fill="#000000" font-family="sans-serif" font-size="13" lengthAdjust="spacing" textLength="92" x="456.92" y="373.897">call::event::CLIP</text><text fill="#000000" font-family="sans-serif" font-size="13" lengthAdjust="spacing" textLength="115" x="446.92" y="391.603">[call::ClipDND_OK] /</text><text fill="#000000" font-family="sans-serif" font-size="13" lengthAdjust="spacing" textLength="118" x="445.42" y="409.309">call::HandleClipDND</text><!--MD5=[5f70ee8c8facd2edf16dd4e5478bfbc0]
link HaveId to Ongoing--><path d="M719.92,494.04 C753.56,519.29 810.29,558.16 865.42,579 C958.54,614.19 1075.66,626.55 1138.56,630.81 " fill="none" id="HaveId-to-Ongoing" style="stroke:#A80036;stroke-width:1.0;"/><polygon fill="#A80036" points="1143.73,631.15,1135.0125,626.5668,1138.7408,630.8212,1134.4864,634.5495,1143.73,631.15" style="stroke:#A80036;stroke-width:1.0;"/><text fill="#000000" font-family="sans-serif" font-size="13" lengthAdjust="spacing" textLength="109" x="879.92" y="538.897">call::event::Answer</text><text fill="#000000" font-family="sans-serif" font-size="13" lengthAdjust="spacing" textLength="119" x="876.42" y="556.603">[call::CallIncoming] /</text><text fill="#000000" font-family="sans-serif" font-size="13" lengthAdjust="spacing" textLength="133" x="869.42" y="574.309">call::HandleAnswerCall</text><!--MD5=[97d569762578c974cd2dfaf5367bfc1a]
link Ongoing to Ongoing--><path d="M1223.28,628.98 C1241.77,628.43 1257.92,630.1 1257.92,634 C1257.92,637.53 1244.66,639.24 1228.41,639.12 " fill="none" id="Ongoing-to-Ongoing" style="stroke:#A80036;stroke-width:1.0;"/><polygon fill="#A80036" points="1223.28,639.02,1232.2101,643.1737,1228.2793,639.1057,1232.3472,635.1749,1223.28,639.02" style="stroke:#A80036;stroke-width:1.0;"/><text fill="#000000" font-family="sans-serif" font-size="13" lengthAdjust="spacing" textLength="100" x="1267.92" y="630.397">call::event::CLIP /</text><text fill="#000000" font-family="sans-serif" font-size="13" lengthAdjust="spacing" textLength="105" x="1266.92" y="648.103">call::HandleAddID</text><!--MD5=[97d569762578c974cd2dfaf5367bfc1a]
link Ongoing to Ongoing--><path d="M1223.24,626.86 C1282.93,621.02 1377.92,623.4 1377.92,634 C1377.92,644.29 1288.41,646.83 1228.57,641.63 " fill="none" id="Ongoing-to-Ongoing-1" style="stroke:#A80036;stroke-width:1.0;"/><polygon fill="#A80036" points="1223.24,641.14,1231.8359,645.9473,1228.219,641.5978,1232.5685,637.9809,1223.24,641.14" style="stroke:#A80036;stroke-width:1.0;"/><text fill="#000000" font-family="sans-serif" font-size="13" lengthAdjust="spacing" textLength="160" x="1383.92" y="630.397">call::event::OngoingTimer /</text><text fill="#000000" font-family="sans-serif" font-size="13" lengthAdjust="spacing" textLength="123" x="1403.92" y="648.103">call::HandleCallTimer</text><!--MD5=[97d569762578c974cd2dfaf5367bfc1a]
link Ongoing to Ongoing--><path d="M1223.2,625.93 C1322.77,613.99 1549.92,616.68 1549.92,634 C1549.92,651.03 1330.25,653.91 1228.26,642.65 " fill="none" id="Ongoing-to-Ongoing-2" style="stroke:#A80036;stroke-width:1.0;"/><polygon fill="#A80036" points="1223.2,642.07,1231.6844,647.0716,1228.1673,642.641,1232.5979,639.1239,1223.2,642.07" style="stroke:#A80036;stroke-width:1.0;"/><text fill="#000000" font-family="sans-serif" font-size="13" lengthAdjust="spacing" textLength="157" x="1555.92" y="630.397">call::event::AudioRequest /</text><text fill="#000000" font-family="sans-serif" font-size="13" lengthAdjust="spacing" textLength="152" x="1559.92" y="648.103">call::HandleAudioRequest</text><!--MD5=[08eaf5efa1f60c65a3812368f3ac4307]
link Ongoing to Idle--><path d="M1222.96,631.14 C1291.38,627 1427.33,614.42 1456.42,579 C1549.86,465.28 1437.6,371.59 1327.42,274 C1240.97,197.42 890.4,147.96 748.99,130.78 " fill="none" id="Ongoing-to-Idle" style="stroke:#A80036;stroke-width:1.0;"/><polygon fill="#A80036" points="743.64,130.13,752.0959,135.1796,748.604,130.7291,753.0544,127.2372,743.64,130.13" style="stroke:#A80036;stroke-width:1.0;"/><text fill="#000000" font-family="sans-serif" font-size="13" lengthAdjust="spacing" textLength="111" x="1466.42" y="382.897">call::event::Ended /</text><text fill="#000000" font-family="sans-serif" font-size="13" lengthAdjust="spacing" textLength="112" x="1467.42" y="400.603">call::HandleEndCall</text><!--MD5=[08eaf5efa1f60c65a3812368f3ac4307]
link Ongoing to Idle--><path d="M1222.92,630.44 C1297.14,624.96 1453.88,609.99 1497.42,579 C1537.16,550.72 1638.88,437.36 1588.42,359 C1489.57,205.48 1390.16,238.56 1214.42,189 C1050.08,142.65 847.54,129.34 748.96,125.53 " fill="none" id="Ongoing-to-Idle-1" style="stroke:#A80036;stroke-width:1.0;"/><polygon fill="#A80036" points="743.77,125.33,752.6153,129.6613,748.7666,125.5156,752.9123,121.6668,743.77,125.33" style="stroke:#A80036;stroke-width:1.0;"/><text fill="#000000" font-family="sans-serif" font-size="13" lengthAdjust="spacing" textLength="109" x="1605.42" y="382.897">call::event::Reject /</text><text fill="#000000" font-family="sans-serif" font-size="13" lengthAdjust="spacing" textLength="112" x="1605.42" y="400.603">call::HandleEndCall</text><!--MD5=[f81c42a19a41ff84caa28b19edd7dd9c]
@startuml

[*] - -> Idle
Idle : on_entry /\n call::handle_init
Idle - -> Ringing : call::event::RING\n [call::RING] /\n call::HandleRing
Idle - -> HaveId : call::event::CLIP\n [call::ClipConnected] /\n call::HandleClipWithoutRing
Idle - -> HaveId : call::event::CLIP\n [call::ClipDND_OK] /\n call::HandleClipDND
Idle - -> Idle : call::event::CLIP\n [call::ClipDND_NOK] /\n call::HandleDND_Reject
Idle - -> Starting : call::event::StartCall /\n call::HandleStartCall
Starting - -> Ongoing : call::event::Ended /\n call::HandleEndCall
Starting - -> Ongoing : call::event::Reject /\n call::HandleEndCall
Starting - -> Ongoing : call::event::Answer /\n call::HandleStartedCall
Ringing - -> Ongoing : call::event::Answer /\n call::HandleAnswerCall
Ringing - -> Idle : call::event::Reject /\n call::HandleRejectCall
Ringing - -> Idle : call::event::Ended /\n call::HandleRejectCall
Ringing - -> HaveId : call::event::CLIP\n [call::ClipConnected] /\n call::HandleClipConnected
Ringing - -> HaveId : call::event::CLIP\n [call::ClipDND_OK] /\n call::HandleClipDND
Ringing - -> Idle : call::event::CLIP\n [call::ClipDND_NOK] /\n call::HandleDND_Reject
HaveId - -> Ongoing : call::event::Answer\n [call::CallIncoming] /\n call::HandleAnswerCall
HaveId - -> Idle : call::event::Ended /\n call::HandleMissedCall
HaveId - -> Idle : call::event::Reject /\n call::HandleRejectCall
Ongoing - -> Ongoing : call::event::CLIP /\n call::HandleAddID
Ongoing - -> Ongoing : call::event::OngoingTimer /\n call::HandleCallTimer
Ongoing - -> Ongoing : call::event::AudioRequest /\n call::HandleAudioRequest
Ongoing - -> Idle : call::event::Ended /\n call::HandleEndCall
Ongoing - -> Idle : call::event::Reject /\n call::HandleEndCall

@enduml

PlantUML version 1.2021.9(Sun Jul 25 12:13:56 CEST 2021)
(GPL source distribution)
Java Runtime: OpenJDK Runtime Environment
JVM: OpenJDK 64-Bit Server VM
Default Encoding: UTF-8
Language: en
Country: US
--></g></svg>