<?xml version="1.0" encoding="UTF-8" standalone="no"?><svg xmlns="http://www.w3.org/2000/svg" xmlns:xlink="http://www.w3.org/1999/xlink" contentScriptType="application/ecmascript" contentStyleType="text/css" height="336px" preserveAspectRatio="none" style="width:324px;height:336px;" version="1.1" viewBox="0 0 324 336" width="324px" zoomAndPan="magnify"><defs><filter height="300%" id="f1t5fss58cooth" width="300%" x="-1" y="-1"><feGaussianBlur result="blurOut" stdDeviation="2.0"/><feColorMatrix in="blurOut" result="blurOut2" type="matrix" values="0 0 0 0 0 0 0 0 0 0 0 0 0 0 0 0 0 0 .4 0"/><feOffset dx="4.0" dy="4.0" in="blurOut2" result="blurOut3"/><feBlend in="SourceGraphic" in2="blurOut3" mode="normal"/></filter></defs><g><ellipse cx="207.363" cy="16" fill="#000000" filter="url(#f1t5fss58cooth)" rx="10" ry="10" style="stroke:none;stroke-width:1.0;"/><polygon fill="#FEFECE" filter="url(#f1t5fss58cooth)" points="207.363,67,219.363,79,207.363,91,195.363,79,207.363,67" style="stroke:#A80036;stroke-width:1.5;"/><polygon fill="#FEFECE" filter="url(#f1t5fss58cooth)" points="155.363,150,167.363,162,155.363,174,143.363,162,155.363,150" style="stroke:#A80036;stroke-width:1.5;"/><rect fill="#FEFECE" filter="url(#f1t5fss58cooth)" height="33.9688" rx="12.5" ry="12.5" style="stroke:#A80036;stroke-width:1.5;" width="101" x="209.863" y="145"/><text fill="#000000" font-family="sans-serif" font-size="12" lengthAdjust="spacingAndGlyphs" textLength="81" x="219.863" y="166.1387">update ramp</text><rect fill="#FEFECE" filter="url(#f1t5fss58cooth)" height="47.9375" rx="12.5" ry="12.5" style="stroke:#A80036;stroke-width:1.5;" width="108" x="101.363" y="275"/><text fill="#000000" font-family="sans-serif" font-size="12" lengthAdjust="spacingAndGlyphs" textLength="84" x="111.363" y="296.1387">RampValue =</text><text fill="#000000" font-family="sans-serif" font-size="12" lengthAdjust="spacingAndGlyphs" textLength="76" x="117.363" y="310.1074">RampTarget</text><!--MD5=[9e7bccaab94f33706b7c2613f3cc0026]
link start to #3--><path d="M207.363,26 C207.363,35.34 207.363,50.16 207.363,61.59 " fill="none" id="start-to-#3" style="stroke:#A80036;stroke-width:1.0;"/><polygon fill="#A80036" points="207.363,66.89,211.363,57.89,207.363,61.89,203.363,57.89,207.363,66.89" style="stroke:#A80036;stroke-width:1.0;"/><text fill="#000000" font-family="sans-serif" font-size="11" lengthAdjust="spacingAndGlyphs" textLength="126" x="61.2817" y="59.4561">Ramp target reached?</text><!--MD5=[2773403863a502716c38047ac44135d7]
link #3 to #6--><path d="M202.923,86.91 C193.943,100.89 173.533,132.69 162.603,149.72 " fill="none" id="#3-to-#6" style="stroke:#A80036;stroke-width:1.0;"/><polygon fill="#A80036" points="159.783,154.11,168.0145,148.7024,162.4868,149.9041,161.2851,144.3764,159.783,154.11" style="stroke:#A80036;stroke-width:1.0;"/><text fill="#000000" font-family="sans-serif" font-size="11" lengthAdjust="spacingAndGlyphs" textLength="120" x="8.5" y="115.3137">New target differs by</text><text fill="#000000" font-family="sans-serif" font-size="11" lengthAdjust="spacingAndGlyphs" textLength="125" x="6" y="128.1184">hysteresis value from</text><text fill="#000000" font-family="sans-serif" font-size="11" lengthAdjust="spacingAndGlyphs" textLength="70" x="35.5" y="140.9231">the old one?</text><!--MD5=[7cfa565d5a7a904cbabcd798f1ced685]
link #6 to ur--><path d="M167.403,162 C176.713,162 190.323,162 204.273,162 " fill="none" id="#6-to-ur" style="stroke:#A80036;stroke-width:1.0;"/><polygon fill="#A80036" points="209.423,162,200.423,158,204.423,162,200.423,166,209.423,162" style="stroke:#A80036;stroke-width:1.0;"/><text fill="#000000" font-family="sans-serif" font-size="11" lengthAdjust="spacingAndGlyphs" textLength="21" x="178.113" y="156.2104">Yes</text><!--MD5=[52e4b7cb87ab58fb7e68b8a1b8520dc5]
link #6 to RampValue = \nRampTarget--><path d="M155.363,174.05 C155.363,194.74 155.363,239.91 155.363,269.63 " fill="none" id="#6-to-RampValue = \nRampTarget" style="stroke:#A80036;stroke-width:1.0;"/><polygon fill="#A80036" points="155.363,274.99,159.363,265.99,155.363,269.99,151.363,265.99,155.363,274.99" style="stroke:#A80036;stroke-width:1.0;"/><text fill="#000000" font-family="sans-serif" font-size="11" lengthAdjust="spacingAndGlyphs" textLength="15" x="156.363" y="231.2104">No</text><!--MD5=[1fc0cef09484a68efdf13ae0dd1e584d]
link #3 to ur--><path d="M211.883,86.91 C219.583,98.69 235.563,123.09 247.063,140.68 " fill="none" id="#3-to-ur" style="stroke:#A80036;stroke-width:1.0;"/><polygon fill="#A80036" points="249.883,144.99,248.2958,135.2699,247.1425,140.8079,241.6045,139.6546,249.883,144.99" style="stroke:#A80036;stroke-width:1.0;"/><text fill="#000000" font-family="sans-serif" font-size="11" lengthAdjust="spacingAndGlyphs" textLength="15" x="237.363" y="122.2104">No</text><!--MD5=[eb3de5f3e5b05e23159ab560e1b3b1b4]
@startuml
(*) - -> If "Ramp target reached?" then
    If "New target differs by \nhysteresis value from \nthe old one?" then
    -> [Yes] "update ramp" as ur
    else
    - - -> [No] "RampValue = \nRampTarget"
    Endif
else
- -> [No] ur
Endif
@enduml

PlantUML version 1.2020.22(Sun Dec 06 10:36:27 CET 2020)
(GPL source distribution)
Java Runtime: OpenJDK Runtime Environment
JVM: OpenJDK 64-Bit Server VM
Default Encoding: UTF-8
Language: pl
Country: PL
--></g></svg>
