<?xml version="1.0" encoding="UTF-8" standalone="no"?><svg xmlns="http://www.w3.org/2000/svg" xmlns:xlink="http://www.w3.org/1999/xlink" contentScriptType="application/ecmascript" contentStyleType="text/css" height="1228px" preserveAspectRatio="none" style="width:1673px;height:1228px;" version="1.1" viewBox="0 0 1673 1228" width="1673px" zoomAndPan="magnify"><defs><filter height="300%" id="f1nwecmqn105lg" width="300%" x="-1" y="-1"><feGaussianBlur result="blurOut" stdDeviation="2.0"/><feColorMatrix in="blurOut" result="blurOut2" type="matrix" values="0 0 0 0 0 0 0 0 0 0 0 0 0 0 0 0 0 0 .4 0"/><feOffset dx="4.0" dy="4.0" in="blurOut2" result="blurOut3"/><feBlend in="SourceGraphic" in2="blurOut3" mode="normal"/></filter></defs><g><ellipse cx="96.5" cy="32" fill="#000000" filter="url(#f1nwecmqn105lg)" rx="10" ry="10" style="stroke:none;stroke-width:1.0;"/><g id="WaitForStartPermission"><rect fill="#FEFECE" filter="url(#f1nwecmqn105lg)" height="50" rx="12.5" ry="12.5" style="stroke:#A80036;stroke-width:1.5;" width="179" x="7" y="149"/><line style="stroke:#A80036;stroke-width:1.5;" x1="7" x2="186" y1="175.2969" y2="175.2969"/><text fill="#000000" font-family="sans-serif" font-size="14" lengthAdjust="spacingAndGlyphs" textLength="159" x="17" y="166.9951">WaitForStartPermission</text></g><g id="PowerDown"><rect fill="#FEFECE" filter="url(#f1nwecmqn105lg)" height="50" rx="12.5" ry="12.5" style="stroke:#A80036;stroke-width:1.5;" width="103" x="480" y="149"/><line style="stroke:#A80036;stroke-width:1.5;" x1="480" x2="583" y1="175.2969" y2="175.2969"/><text fill="#000000" font-family="sans-serif" font-size="14" lengthAdjust="spacingAndGlyphs" textLength="83" x="490" y="166.9951">PowerDown</text></g><g id="PowerUpRequest"><rect fill="#FEFECE" filter="url(#f1nwecmqn105lg)" height="50" rx="12.5" ry="12.5" style="stroke:#A80036;stroke-width:1.5;" width="141" x="472" y="291"/><line style="stroke:#A80036;stroke-width:1.5;" x1="472" x2="613" y1="317.2969" y2="317.2969"/><text fill="#000000" font-family="sans-serif" font-size="14" lengthAdjust="spacingAndGlyphs" textLength="121" x="482" y="308.9951">PowerUpRequest</text></g><g id="PowerUpProcedure"><rect fill="#FEFECE" filter="url(#f1nwecmqn105lg)" height="50" rx="12.5" ry="12.5" style="stroke:#A80036;stroke-width:1.5;" width="154" x="727.5" y="418"/><line style="stroke:#A80036;stroke-width:1.5;" x1="727.5" x2="881.5" y1="444.2969" y2="444.2969"/><text fill="#000000" font-family="sans-serif" font-size="14" lengthAdjust="spacingAndGlyphs" textLength="134" x="737.5" y="435.9951">PowerUpProcedure</text></g><g id="StatusCheck"><rect fill="#FEFECE" filter="url(#f1nwecmqn105lg)" height="50" rx="12.5" ry="12.5" style="stroke:#A80036;stroke-width:1.5;" width="108" x="488.5" y="418"/><line style="stroke:#A80036;stroke-width:1.5;" x1="488.5" x2="596.5" y1="444.2969" y2="444.2969"/><text fill="#000000" font-family="sans-serif" font-size="14" lengthAdjust="spacingAndGlyphs" textLength="88" x="498.5" y="435.9951">StatusCheck</text></g><g id="PowerUpInPorgress"><rect fill="#FEFECE" filter="url(#f1nwecmqn105lg)" height="50" rx="12.5" ry="12.5" style="stroke:#A80036;stroke-width:1.5;" width="156" x="704.5" y="545"/><line style="stroke:#A80036;stroke-width:1.5;" x1="704.5" x2="860.5" y1="571.2969" y2="571.2969"/><text fill="#000000" font-family="sans-serif" font-size="14" lengthAdjust="spacingAndGlyphs" textLength="136" x="714.5" y="562.9951">PowerUpInPorgress</text></g><g id="CellularConfProcedure"><rect fill="#FEFECE" filter="url(#f1nwecmqn105lg)" height="50" rx="12.5" ry="12.5" style="stroke:#A80036;stroke-width:1.5;" width="174" x="1127.5" y="672"/><line style="stroke:#A80036;stroke-width:1.5;" x1="1127.5" x2="1301.5" y1="698.2969" y2="698.2969"/><text fill="#000000" font-family="sans-serif" font-size="14" lengthAdjust="spacingAndGlyphs" textLength="154" x="1137.5" y="689.9951">CellularConfProcedure</text></g><g id="BaudDetect"><rect fill="#FEFECE" filter="url(#f1nwecmqn105lg)" height="50" rx="12.5" ry="12.5" style="stroke:#A80036;stroke-width:1.5;" width="103" x="849" y="672"/><line style="stroke:#A80036;stroke-width:1.5;" x1="849" x2="952" y1="698.2969" y2="698.2969"/><text fill="#000000" font-family="sans-serif" font-size="14" lengthAdjust="spacingAndGlyphs" textLength="83" x="859" y="689.9951">BaudDetect</text></g><g id="ModemFatalFailure"><rect fill="#FEFECE" filter="url(#f1nwecmqn105lg)" height="50" rx="12.5" ry="12.5" style="stroke:#A80036;stroke-width:1.5;" width="149" x="910" y="1164"/><line style="stroke:#A80036;stroke-width:1.5;" x1="910" x2="1059" y1="1190.2969" y2="1190.2969"/><text fill="#000000" font-family="sans-serif" font-size="14" lengthAdjust="spacingAndGlyphs" textLength="129" x="920" y="1181.9951">ModemFatalFailure</text></g><g id="AudioConfigurationProcedure"><rect fill="#FEFECE" filter="url(#f1nwecmqn105lg)" height="50" rx="12.5" ry="12.5" style="stroke:#A80036;stroke-width:1.5;" width="223" x="1103" y="799"/><line style="stroke:#A80036;stroke-width:1.5;" x1="1103" x2="1326" y1="825.2969" y2="825.2969"/><text fill="#000000" font-family="sans-serif" font-size="14" lengthAdjust="spacingAndGlyphs" textLength="203" x="1113" y="816.9951">AudioConfigurationProcedure</text></g><g id="Failed"><rect fill="#FEFECE" filter="url(#f1nwecmqn105lg)" height="50" rx="12.5" ry="12.5" style="stroke:#A80036;stroke-width:1.5;" width="60" x="1433.5" y="926"/><line style="stroke:#A80036;stroke-width:1.5;" x1="1433.5" x2="1493.5" y1="952.2969" y2="952.2969"/><text fill="#000000" font-family="sans-serif" font-size="14" lengthAdjust="spacingAndGlyphs" textLength="40" x="1443.5" y="943.9951">Failed</text></g><g id="Idle"><rect fill="#FEFECE" filter="url(#f1nwecmqn105lg)" height="50" rx="12.5" ry="12.5" style="stroke:#A80036;stroke-width:1.5;" width="50" x="1260.5" y="1037"/><line style="stroke:#A80036;stroke-width:1.5;" x1="1260.5" x2="1310.5" y1="1063.2969" y2="1063.2969"/><text fill="#000000" font-family="sans-serif" font-size="14" lengthAdjust="spacingAndGlyphs" textLength="24" x="1273.5" y="1054.9951">Idle</text></g><g id="APNConfProcedure"><rect fill="#FEFECE" filter="url(#f1nwecmqn105lg)" height="50" rx="12.5" ry="12.5" style="stroke:#A80036;stroke-width:1.5;" width="152" x="1063.5" y="926"/><line style="stroke:#A80036;stroke-width:1.5;" x1="1063.5" x2="1215.5" y1="952.2969" y2="952.2969"/><text fill="#000000" font-family="sans-serif" font-size="14" lengthAdjust="spacingAndGlyphs" textLength="132" x="1073.5" y="943.9951">APNConfProcedure</text></g><g id="SanityCheck"><rect fill="#FEFECE" filter="url(#f1nwecmqn105lg)" height="50" rx="12.5" ry="12.5" style="stroke:#A80036;stroke-width:1.5;" width="105" x="1087" y="1037"/><line style="stroke:#A80036;stroke-width:1.5;" x1="1087" x2="1192" y1="1063.2969" y2="1063.2969"/><text fill="#000000" font-family="sans-serif" font-size="14" lengthAdjust="spacingAndGlyphs" textLength="85" x="1097" y="1054.9951">SanityCheck</text></g><g id="ModemOn"><rect fill="#FEFECE" filter="url(#f1nwecmqn105lg)" height="50" rx="12.5" ry="12.5" style="stroke:#A80036;stroke-width:1.5;" width="92" x="1094.5" y="1164"/><line style="stroke:#A80036;stroke-width:1.5;" x1="1094.5" x2="1186.5" y1="1190.2969" y2="1190.2969"/><text fill="#000000" font-family="sans-serif" font-size="14" lengthAdjust="spacingAndGlyphs" textLength="72" x="1104.5" y="1181.9951">ModemOn</text></g><g id="URCReady"><rect fill="#FEFECE" filter="url(#f1nwecmqn105lg)" height="50" rx="12.5" ry="12.5" style="stroke:#A80036;stroke-width:1.5;" width="93" x="1222" y="1164"/><line style="stroke:#A80036;stroke-width:1.5;" x1="1222" x2="1315" y1="1190.2969" y2="1190.2969"/><text fill="#000000" font-family="sans-serif" font-size="14" lengthAdjust="spacingAndGlyphs" textLength="73" x="1232" y="1181.9951">URCReady</text></g><g id="Event:CellularSimProcedure"><rect fill="#FEFECE" filter="url(#f1nwecmqn105lg)" height="50" rx="12.5" ry="12.5" style="stroke:#A80036;stroke-width:1.5;" width="211" x="801" y="7"/><line style="stroke:#A80036;stroke-width:1.5;" x1="801" x2="1012" y1="33.2969" y2="33.2969"/><text fill="#000000" font-family="sans-serif" font-size="14" lengthAdjust="spacingAndGlyphs" textLength="191" x="811" y="24.9951">Event:CellularSimProcedure</text></g><g id="SimSelect"><rect fill="#FEFECE" filter="url(#f1nwecmqn105lg)" height="50" rx="12.5" ry="12.5" style="stroke:#A80036;stroke-width:1.5;" width="88" x="862.5" y="149"/><line style="stroke:#A80036;stroke-width:1.5;" x1="862.5" x2="950.5" y1="175.2969" y2="175.2969"/><text fill="#000000" font-family="sans-serif" font-size="14" lengthAdjust="spacingAndGlyphs" textLength="68" x="872.5" y="166.9951">SimSelect</text></g><g id="Event:SIM_READY"><rect fill="#FEFECE" filter="url(#f1nwecmqn105lg)" height="50" rx="12.5" ry="12.5" style="stroke:#A80036;stroke-width:1.5;" width="143" x="1516" y="672"/><line style="stroke:#A80036;stroke-width:1.5;" x1="1516" x2="1659" y1="698.2969" y2="698.2969"/><text fill="#000000" font-family="sans-serif" font-size="14" lengthAdjust="spacingAndGlyphs" textLength="123" x="1526" y="689.9951">Event:SIM_READY</text></g><g id="SimInit"><rect fill="#FEFECE" filter="url(#f1nwecmqn105lg)" height="50" rx="12.5" ry="12.5" style="stroke:#A80036;stroke-width:1.5;" width="65" x="1555" y="799"/><line style="stroke:#A80036;stroke-width:1.5;" x1="1555" x2="1620" y1="825.2969" y2="825.2969"/><text fill="#000000" font-family="sans-serif" font-size="14" lengthAdjust="spacingAndGlyphs" textLength="45" x="1565" y="816.9951">SimInit</text></g><g id="Ready"><rect fill="#FEFECE" filter="url(#f1nwecmqn105lg)" height="50" rx="12.5" ry="12.5" style="stroke:#A80036;stroke-width:1.5;" width="63" x="1574" y="926"/><line style="stroke:#A80036;stroke-width:1.5;" x1="1574" x2="1637" y1="952.2969" y2="952.2969"/><text fill="#000000" font-family="sans-serif" font-size="14" lengthAdjust="spacingAndGlyphs" textLength="43" x="1584" y="943.9951">Ready</text></g><g id="Event:PowerDownDeregistering"><rect fill="#FEFECE" filter="url(#f1nwecmqn105lg)" height="50" rx="12.5" ry="12.5" style="stroke:#A80036;stroke-width:1.5;" width="241" x="1047" y="7"/><line style="stroke:#A80036;stroke-width:1.5;" x1="1047" x2="1288" y1="33.2969" y2="33.2969"/><text fill="#000000" font-family="sans-serif" font-size="14" lengthAdjust="spacingAndGlyphs" textLength="221" x="1057" y="24.9951">Event:PowerDownDeregistering</text></g><g id="PowerDownStarted"><rect fill="#FEFECE" filter="url(#f1nwecmqn105lg)" height="50" rx="12.5" ry="12.5" style="stroke:#A80036;stroke-width:1.5;" width="153" x="1091" y="149"/><line style="stroke:#A80036;stroke-width:1.5;" x1="1091" x2="1244" y1="175.2969" y2="175.2969"/><text fill="#000000" font-family="sans-serif" font-size="14" lengthAdjust="spacingAndGlyphs" textLength="133" x="1101" y="166.9951">PowerDownStarted</text></g><g id="Event:PowerDownDeregistered"><rect fill="#FEFECE" filter="url(#f1nwecmqn105lg)" height="50" rx="12.5" ry="12.5" style="stroke:#A80036;stroke-width:1.5;" width="238" x="414.5" y="799"/><line style="stroke:#A80036;stroke-width:1.5;" x1="414.5" x2="652.5" y1="825.2969" y2="825.2969"/><text fill="#000000" font-family="sans-serif" font-size="14" lengthAdjust="spacingAndGlyphs" textLength="218" x="424.5" y="816.9951">Event:PowerDownDeregistered</text></g><g id="PowerDownWaiting"><rect fill="#FEFECE" filter="url(#f1nwecmqn105lg)" height="50" rx="12.5" ry="12.5" style="stroke:#A80036;stroke-width:1.5;" width="153" x="457" y="926"/><line style="stroke:#A80036;stroke-width:1.5;" x1="457" x2="610" y1="952.2969" y2="952.2969"/><text fill="#000000" font-family="sans-serif" font-size="14" lengthAdjust="spacingAndGlyphs" textLength="133" x="467" y="943.9951">PowerDownWaiting</text></g><g id="Event:PowerDownRequest"><rect fill="#FEFECE" filter="url(#f1nwecmqn105lg)" height="50" rx="12.5" ry="12.5" style="stroke:#A80036;stroke-width:1.5;" width="206" x="215.5" y="926"/><line style="stroke:#A80036;stroke-width:1.5;" x1="215.5" x2="421.5" y1="952.2969" y2="952.2969"/><text fill="#000000" font-family="sans-serif" font-size="14" lengthAdjust="spacingAndGlyphs" textLength="186" x="225.5" y="943.9951">Event:PowerDownRequest</text></g><g id="Event:PowerUpProcedureComplete"><rect fill="#FEFECE" filter="url(#f1nwecmqn105lg)" height="50" rx="12.5" ry="12.5" style="stroke:#A80036;stroke-width:1.5;" width="265" x="1115" y="545"/><line style="stroke:#A80036;stroke-width:1.5;" x1="1115" x2="1380" y1="571.2969" y2="571.2969"/><text fill="#000000" font-family="sans-serif" font-size="14" lengthAdjust="spacingAndGlyphs" textLength="245" x="1125" y="562.9951">Event:PowerUpProcedureComplete</text></g><g id="Event:modemActive"><rect fill="#FEFECE" filter="url(#f1nwecmqn105lg)" height="50" rx="12.5" ry="12.5" style="stroke:#A80036;stroke-width:1.5;" width="158" x="607.5" y="7"/><line style="stroke:#A80036;stroke-width:1.5;" x1="607.5" x2="765.5" y1="33.2969" y2="33.2969"/><text fill="#000000" font-family="sans-serif" font-size="14" lengthAdjust="spacingAndGlyphs" textLength="138" x="617.5" y="24.9951">Event:modemActive</text></g><g id="Event:powerDownRequest"><rect fill="#FEFECE" filter="url(#f1nwecmqn105lg)" height="50" rx="12.5" ry="12.5" style="stroke:#A80036;stroke-width:1.5;" width="206" x="284.5" y="7"/><line style="stroke:#A80036;stroke-width:1.5;" x1="284.5" x2="490.5" y1="33.2969" y2="33.2969"/><text fill="#000000" font-family="sans-serif" font-size="14" lengthAdjust="spacingAndGlyphs" textLength="186" x="294.5" y="24.9951">Event:powerDownRequest</text></g><!--MD5=[f915ac7c515e4418b9971fc24141bfa8]
link *start to WaitForStartPermission--><path d="M96.5,42.19 C96.5,62.43 96.5,111.61 96.5,143.57 " fill="none" id="*start-to-WaitForStartPermission" style="stroke:#A80036;stroke-width:1.0;"/><polygon fill="#A80036" points="96.5,148.93,100.5,139.93,96.5,143.93,92.5,139.93,96.5,148.93" style="stroke:#A80036;stroke-width:1.0;"/><!--MD5=[88ab108be6f5d0bf533f01e1c35c5b74]
link WaitForStartPermission to PowerDown--><path d="M186.1,174 C272.69,174 401.22,174 474.62,174 " fill="none" id="WaitForStartPermission-to-PowerDown" style="stroke:#A80036;stroke-width:1.0;"/><polygon fill="#A80036" points="479.81,174,470.81,170,474.81,174,470.81,178,479.81,174" style="stroke:#A80036;stroke-width:1.0;"/><text fill="#000000" font-family="sans-serif" font-size="13" lengthAdjust="spacingAndGlyphs" textLength="257" x="204.5" y="167.0669">PowerDownRequest &amp;&amp; !isModemActive</text><!--MD5=[0c907647073cf18eded21f91f1f8f134]
link WaitForStartPermission to PowerUpRequest--><path d="M172.68,199.06 C227.43,216.33 303,240.15 369.5,261 C401.42,271.01 436.66,282.02 466.96,291.47 " fill="none" id="WaitForStartPermission-to-PowerUpRequest" style="stroke:#A80036;stroke-width:1.0;"/><polygon fill="#A80036" points="471.78,292.97,464.3761,286.4752,467.0061,291.4835,461.9977,294.1135,471.78,292.97" style="stroke:#A80036;stroke-width:1.0;"/><text fill="#000000" font-family="sans-serif" font-size="13" lengthAdjust="spacingAndGlyphs" textLength="108" x="370.5" y="249.5669">PowerUpRequest</text><!--MD5=[584390472df753eb5ace16f97522b8e7]
link PowerDown to PowerUpRequest--><path d="M583.2,175.34 C624.21,178.69 679.19,190.7 707.5,229 C736.39,268.08 674.33,290.93 618.24,303.13 " fill="none" id="PowerDown-to-PowerUpRequest" style="stroke:#A80036;stroke-width:1.0;"/><polygon fill="#A80036" points="613.18,304.21,622.8155,306.2489,618.0705,303.1692,621.1502,298.4241,613.18,304.21" style="stroke:#A80036;stroke-width:1.0;"/><text fill="#000000" font-family="sans-serif" font-size="13" lengthAdjust="spacingAndGlyphs" textLength="108" x="716.5" y="249.5669">PowerUpRequest</text><!--MD5=[584390472df753eb5ace16f97522b8e7]
link PowerDown to PowerUpRequest--><path d="M507.91,199.09 C500.91,207.81 494.14,218.18 490.5,229 C485.96,242.48 485.18,247.81 490.5,261 C494.39,270.65 500.92,279.53 508.06,287.19 " fill="none" id="PowerDown-to-PowerUpRequest-1" style="stroke:#A80036;stroke-width:1.0;"/><polygon fill="#A80036" points="511.61,290.85,508.2238,281.6016,508.1322,287.2577,502.4761,287.1661,511.61,290.85" style="stroke:#A80036;stroke-width:1.0;"/><text fill="#000000" font-family="sans-serif" font-size="13" lengthAdjust="spacingAndGlyphs" textLength="203" x="491.5" y="242.0669">nextPowerStateChangeAwaiting</text><text fill="#000000" font-family="sans-serif" font-size="13" lengthAdjust="spacingAndGlyphs" textLength="173" x="510.5" y="257.1997">&amp;&amp; nextPowerState == on</text><!--MD5=[fd7c4f6a4c6d13e246c834aa3ba49585]
link PowerUpRequest to PowerUpProcedure--><path d="M593.02,341.1 C637.87,362.5 703.28,393.71 749.45,415.74 " fill="none" id="PowerUpRequest-to-PowerUpProcedure" style="stroke:#A80036;stroke-width:1.0;"/><polygon fill="#A80036" points="754.14,417.97,747.7441,410.4805,749.6286,415.8142,744.2949,417.6987,754.14,417.97" style="stroke:#A80036;stroke-width:1.0;"/><text fill="#000000" font-family="sans-serif" font-size="13" lengthAdjust="spacingAndGlyphs" textLength="127" x="690.5" y="384.0669">board == T3 | Linux</text><!--MD5=[1f58f805457b87f5122cad7e5f47ae2e]
link PowerUpRequest to StatusCheck--><path d="M542.5,341.1 C542.5,361.59 542.5,391.08 542.5,412.88 " fill="none" id="PowerUpRequest-to-StatusCheck" style="stroke:#A80036;stroke-width:1.0;"/><polygon fill="#A80036" points="542.5,417.97,546.5,408.97,542.5,412.97,538.5,408.97,542.5,417.97" style="stroke:#A80036;stroke-width:1.0;"/><text fill="#000000" font-family="sans-serif" font-size="13" lengthAdjust="spacingAndGlyphs" textLength="82" x="543.5" y="384.0669">board == T4</text><!--MD5=[d831c87685770c4b5421553c9e07c620]
link StatusCheck to PowerUpInPorgress--><path d="M588.44,468.02 C614.79,481.78 648.5,499.38 678.5,515 C695.74,523.97 714.59,533.77 731.45,542.52 " fill="none" id="StatusCheck-to-PowerUpInPorgress" style="stroke:#A80036;stroke-width:1.0;"/><polygon fill="#A80036" points="736.15,544.96,730.0065,537.2621,731.7127,542.6555,726.3193,544.3617,736.15,544.96" style="stroke:#A80036;stroke-width:1.0;"/><text fill="#000000" font-family="sans-serif" font-size="13" lengthAdjust="spacingAndGlyphs" textLength="89" x="679.5" y="511.0669">modemActive</text><!--MD5=[5076860d7ea1929d04394078621bcf05]
link StatusCheck to PowerUpProcedure--><path d="M596.79,443 C632.93,443 681.12,443 721.97,443 " fill="none" id="StatusCheck-to-PowerUpProcedure" style="stroke:#A80036;stroke-width:1.0;"/><polygon fill="#A80036" points="727.43,443,718.43,439,722.43,443,718.43,447,727.43,443" style="stroke:#A80036;stroke-width:1.0;"/><text fill="#000000" font-family="sans-serif" font-size="13" lengthAdjust="spacingAndGlyphs" textLength="94" x="615" y="436.0669">!modemActive</text><!--MD5=[d397ed2e524c17c524214a6bc49619b6]
link PowerUpProcedure to CellularConfProcedure--><path d="M881.71,448.95 C921.88,455.19 969.37,468.77 1002.5,498 C1037.47,528.85 1011.91,559.8 1042.5,595 C1071.09,627.89 1113.14,652.85 1148.5,669.73 " fill="none" id="PowerUpProcedure-to-CellularConfProcedure" style="stroke:#A80036;stroke-width:1.0;"/><polygon fill="#A80036" points="1153.22,671.96,1146.7764,664.5115,1148.6949,669.8331,1143.3733,671.7516,1153.22,671.96" style="stroke:#A80036;stroke-width:1.0;"/><text fill="#000000" font-family="sans-serif" font-size="13" lengthAdjust="spacingAndGlyphs" textLength="53" x="1043.5" y="574.5669">hotStart</text><!--MD5=[c78ef4752e5fc097b033474b61fe6478]
link PowerUpProcedure to PowerUpInPorgress--><path d="M790.57,468.21 C786.11,477.26 781.74,487.81 779.5,498 C776.52,511.51 776.73,526.8 777.9,539.73 " fill="none" id="PowerUpProcedure-to-PowerUpInPorgress" style="stroke:#A80036;stroke-width:1.0;"/><polygon fill="#A80036" points="778.42,544.74,781.4993,535.3849,777.9197,539.7651,773.5394,536.1855,778.42,544.74" style="stroke:#A80036;stroke-width:1.0;"/><text fill="#000000" font-family="sans-serif" font-size="13" lengthAdjust="spacingAndGlyphs" textLength="217" x="780.5" y="511.0669">coldStart || event: modem ACTIVE</text><!--MD5=[727c9e726932860737726ca6f5028085]
link PowerUpInPorgress to BaudDetect--><path d="M805.25,595.1 C825,616.03 853.61,646.32 874.31,668.25 " fill="none" id="PowerUpInPorgress-to-BaudDetect" style="stroke:#A80036;stroke-width:1.0;"/><polygon fill="#A80036" points="877.82,671.97,874.5645,662.6747,874.3932,668.329,868.7389,668.1577,877.82,671.97" style="stroke:#A80036;stroke-width:1.0;"/><!--MD5=[f6b42f2832973fdffd6f80cf1316681b]
link BaudDetect to CellularConfProcedure--><path d="M952.35,697 C998.33,697 1066.59,697 1121.93,697 " fill="none" id="BaudDetect-to-CellularConfProcedure" style="stroke:#A80036;stroke-width:1.0;"/><polygon fill="#A80036" points="1127.24,697,1118.24,693,1122.24,697,1118.24,701,1127.24,697" style="stroke:#A80036;stroke-width:1.0;"/><text fill="#000000" font-family="sans-serif" font-size="13" lengthAdjust="spacingAndGlyphs" textLength="53" x="1013.25" y="690.0669">Success</text><!--MD5=[fb0ab7093ebe96a0eb9a906c1d94f36d]
link BaudDetect to ModemFatalFailure--><path d="M929.41,722.09 C953.71,745.2 984.5,782.47 984.5,823 C984.5,823 984.5,823 984.5,1063 C984.5,1095.62 984.5,1133.03 984.5,1158.35 " fill="none" id="BaudDetect-to-ModemFatalFailure" style="stroke:#A80036;stroke-width:1.0;"/><polygon fill="#A80036" points="984.5,1163.57,988.5,1154.57,984.5,1158.57,980.5,1154.57,984.5,1163.57" style="stroke:#A80036;stroke-width:1.0;"/><text fill="#000000" font-family="sans-serif" font-size="13" lengthAdjust="spacingAndGlyphs" textLength="42" x="985.5" y="955.5669">Failure</text><!--MD5=[68f100448ff22dc026a7f78db7e4edea]
link CellularConfProcedure to AudioConfigurationProcedure--><path d="M1214.5,722.1 C1214.5,742.59 1214.5,772.08 1214.5,793.88 " fill="none" id="CellularConfProcedure-to-AudioConfigurationProcedure" style="stroke:#A80036;stroke-width:1.0;"/><polygon fill="#A80036" points="1214.5,798.97,1218.5,789.97,1214.5,793.97,1210.5,789.97,1214.5,798.97" style="stroke:#A80036;stroke-width:1.0;"/><text fill="#000000" font-family="sans-serif" font-size="13" lengthAdjust="spacingAndGlyphs" textLength="53" x="1215.5" y="765.0669">Success</text><!--MD5=[5d7ae24bf63e4aed2a4253c65e46f11f]
link CellularConfProcedure to Failed--><path d="M1290.33,722.13 C1330.65,738.3 1378.38,763.28 1410.5,799 C1441.62,833.61 1454.71,887.59 1460.04,920.77 " fill="none" id="CellularConfProcedure-to-Failed" style="stroke:#A80036;stroke-width:1.0;"/><polygon fill="#A80036" points="1460.83,925.91,1463.4212,916.4081,1460.0729,920.9676,1455.5134,917.6194,1460.83,925.91" style="stroke:#A80036;stroke-width:1.0;"/><text fill="#000000" font-family="sans-serif" font-size="13" lengthAdjust="spacingAndGlyphs" textLength="37" x="1440.5" y="828.5669">Failed</text><!--MD5=[8bec8aa94f11da26fdaa532b9e927b58]
link AudioConfigurationProcedure to AudioConfigurationProcedure--><path d="M1326.28,813.01 C1346.69,814.4 1361,818.07 1361,824 C1361,829.42 1349.04,832.95 1331.4,834.58 " fill="none" id="AudioConfigurationProcedure-to-AudioConfigurationProcedure" style="stroke:#A80036;stroke-width:1.0;"/><polygon fill="#A80036" points="1326.28,834.99,1335.5617,838.2839,1331.2651,834.6043,1334.9447,830.3077,1326.28,834.99" style="stroke:#A80036;stroke-width:1.0;"/><text fill="#000000" font-family="sans-serif" font-size="13" lengthAdjust="spacingAndGlyphs" textLength="37" x="1367" y="828.5669">Failed</text><!--MD5=[f66ed35969f9ee770eed229d3a3a3084]
link AudioConfigurationProcedure to Failed--><path d="M1254.8,849.06 C1279.27,863.33 1311.3,881.41 1340.5,896 C1369.64,910.56 1403.6,925.31 1428.45,935.71 " fill="none" id="AudioConfigurationProcedure-to-Failed" style="stroke:#A80036;stroke-width:1.0;"/><polygon fill="#A80036" points="1433.29,937.73,1426.5286,930.5687,1428.6767,935.8019,1423.4436,937.95,1433.29,937.73" style="stroke:#A80036;stroke-width:1.0;"/><text fill="#000000" font-family="sans-serif" font-size="13" lengthAdjust="spacingAndGlyphs" textLength="95" x="1341.5" y="892.0669">Baud setup fail</text><!--MD5=[82b15964c7ea4c9e08a8f2c3031886b6]
link AudioConfigurationProcedure to Idle--><path d="M1229.21,849.08 C1234.3,858.2 1239.68,868.84 1243.5,879 C1263.09,931.07 1275.29,995.09 1281.2,1031.66 " fill="none" id="AudioConfigurationProcedure-to-Idle" style="stroke:#A80036;stroke-width:1.0;"/><polygon fill="#A80036" points="1282.03,1036.85,1284.5407,1027.3265,1281.2311,1031.9142,1276.6434,1028.6047,1282.03,1036.85" style="stroke:#A80036;stroke-width:1.0;"/><text fill="#000000" font-family="sans-serif" font-size="13" lengthAdjust="spacingAndGlyphs" textLength="74" x="1270.5" y="955.5669">reset called</text><!--MD5=[0510a649553933047eef813e676d387c]
link AudioConfigurationProcedure to APNConfProcedure--><path d="M1200.04,849.1 C1187.64,869.77 1169.76,899.57 1156.64,921.43 " fill="none" id="AudioConfigurationProcedure-to-APNConfProcedure" style="stroke:#A80036;stroke-width:1.0;"/><polygon fill="#A80036" points="1153.92,925.97,1161.9943,920.3303,1156.503,921.6888,1155.1444,916.1975,1153.92,925.97" style="stroke:#A80036;stroke-width:1.0;"/><text fill="#000000" font-family="sans-serif" font-size="13" lengthAdjust="spacingAndGlyphs" textLength="53" x="1181.5" y="892.0669">Success</text><!--MD5=[7ef9c75e84b5805cea2dd0fad20a72d8]
link APNConfProcedure to SanityCheck--><path d="M1139.5,976.19 C1139.5,992.56 1139.5,1014.28 1139.5,1031.64 " fill="none" id="APNConfProcedure-to-SanityCheck" style="stroke:#A80036;stroke-width:1.0;"/><polygon fill="#A80036" points="1139.5,1036.88,1143.5,1027.88,1139.5,1031.88,1135.5,1027.88,1139.5,1036.88" style="stroke:#A80036;stroke-width:1.0;"/><!--MD5=[8c0f7218f4a51008def03317319fcc3d]
link SanityCheck to ModemOn--><path d="M1139.69,1087.1 C1139.86,1107.59 1140.09,1137.08 1140.27,1158.88 " fill="none" id="SanityCheck-to-ModemOn" style="stroke:#A80036;stroke-width:1.0;"/><polygon fill="#A80036" points="1140.31,1163.97,1144.2327,1154.936,1140.2671,1158.9702,1136.233,1155.0046,1140.31,1163.97" style="stroke:#A80036;stroke-width:1.0;"/><text fill="#000000" font-family="sans-serif" font-size="13" lengthAdjust="spacingAndGlyphs" textLength="53" x="1141.5" y="1130.0669">Success</text><!--MD5=[33f60799b5f26f20f5dd174f2ed7c1a3]
link SanityCheck to ModemFatalFailure--><path d="M1109.61,1087.1 C1083.45,1108.2 1045.48,1138.83 1018.23,1160.8 " fill="none" id="SanityCheck-to-ModemFatalFailure" style="stroke:#A80036;stroke-width:1.0;"/><polygon fill="#A80036" points="1014.29,1163.97,1023.8132,1161.4585,1018.1902,1160.8413,1018.8073,1155.2182,1014.29,1163.97" style="stroke:#A80036;stroke-width:1.0;"/><text fill="#000000" font-family="sans-serif" font-size="13" lengthAdjust="spacingAndGlyphs" textLength="42" x="1072.5" y="1130.0669">Failure</text><!--MD5=[3905e8178637947b22a281c6f6af1a81]
link ModemOn to URCReady--><path d="M1187,1189 C1196.85,1189 1206.7,1189 1216.55,1189 " fill="none" id="ModemOn-to-URCReady" style="stroke:#A80036;stroke-width:1.0;"/><polygon fill="#A80036" points="1221.7,1189,1212.7,1185,1216.7,1189,1212.7,1193,1221.7,1189" style="stroke:#A80036;stroke-width:1.0;"/><!--MD5=[25bdad021a3357d0304ecf42b5cd666e]
link Event:CellularSimProcedure to SimSelect--><path d="M906.5,57.07 C906.5,81.01 906.5,117.78 906.5,143.47 " fill="none" id="Event:CellularSimProcedure-to-SimSelect" style="stroke:#A80036;stroke-width:1.0;"/><polygon fill="#A80036" points="906.5,148.78,910.5,139.78,906.5,143.78,902.5,139.78,906.5,148.78" style="stroke:#A80036;stroke-width:1.0;"/><!--MD5=[70270a8730f9b46f42f00f8c6cb6b504]
link Event:SIM_READY to SimInit--><path d="M1587.5,722.1 C1587.5,742.59 1587.5,772.08 1587.5,793.88 " fill="none" id="Event:SIM_READY-to-SimInit" style="stroke:#A80036;stroke-width:1.0;"/><polygon fill="#A80036" points="1587.5,798.97,1591.5,789.97,1587.5,793.97,1583.5,789.97,1587.5,798.97" style="stroke:#A80036;stroke-width:1.0;"/><!--MD5=[b86a93dae48bca6b30f35403ce1d8717]
link SimInit to Failed--><path d="M1563.59,849.1 C1542.83,870.03 1512.78,900.32 1491.02,922.25 " fill="none" id="SimInit-to-Failed" style="stroke:#A80036;stroke-width:1.0;"/><polygon fill="#A80036" points="1487.34,925.97,1496.5181,922.3974,1490.8612,922.4202,1490.8384,916.7634,1487.34,925.97" style="stroke:#A80036;stroke-width:1.0;"/><text fill="#000000" font-family="sans-serif" font-size="13" lengthAdjust="spacingAndGlyphs" textLength="42" x="1533.5" y="892.0669">Failure</text><!--MD5=[b5461c294bec50186077517b36d4e59b]
link SimInit to Ready--><path d="M1590.97,849.1 C1593.92,869.59 1598.17,899.08 1601.31,920.88 " fill="none" id="SimInit-to-Ready" style="stroke:#A80036;stroke-width:1.0;"/><polygon fill="#A80036" points="1602.04,925.97,1604.7117,916.4904,1601.3249,921.0214,1596.7939,917.6346,1602.04,925.97" style="stroke:#A80036;stroke-width:1.0;"/><text fill="#000000" font-family="sans-serif" font-size="13" lengthAdjust="spacingAndGlyphs" textLength="53" x="1598.5" y="892.0669">Success</text><!--MD5=[413a005fcb8ce8860adb73228c80b7ef]
link Event:PowerDownDeregistering to PowerDownStarted--><path d="M1167.5,57.07 C1167.5,81.01 1167.5,117.78 1167.5,143.47 " fill="none" id="Event:PowerDownDeregistering-to-PowerDownStarted" style="stroke:#A80036;stroke-width:1.0;"/><polygon fill="#A80036" points="1167.5,148.78,1171.5,139.78,1167.5,143.78,1163.5,139.78,1167.5,148.78" style="stroke:#A80036;stroke-width:1.0;"/><text fill="#000000" font-family="sans-serif" font-size="13" lengthAdjust="spacingAndGlyphs" textLength="176" x="1168.5" y="107.5669">state != PowerDownWaiting</text><!--MD5=[b6a5c31cebdae095f367e2e47186e206]
link Event:PowerDownDeregistered to PowerDownWaiting--><path d="M533.5,849.1 C533.5,869.59 533.5,899.08 533.5,920.88 " fill="none" id="Event:PowerDownDeregistered-to-PowerDownWaiting" style="stroke:#A80036;stroke-width:1.0;"/><polygon fill="#A80036" points="533.5,925.97,537.5,916.97,533.5,920.97,529.5,916.97,533.5,925.97" style="stroke:#A80036;stroke-width:1.0;"/><!--MD5=[24c673904b079bd1ceff7ed1ad2637b1]
link Event:PowerDownRequest to PowerDownWaiting--><path d="M421.8,951 C431.71,951 441.62,951 451.53,951 " fill="none" id="Event:PowerDownRequest-to-PowerDownWaiting" style="stroke:#A80036;stroke-width:1.0;"/><polygon fill="#A80036" points="456.71,951,447.71,947,451.71,951,447.71,955,456.71,951" style="stroke:#A80036;stroke-width:1.0;"/><!--MD5=[bd7f44948400696f1debeec448c84662]
link PowerDownWaiting to PowerDown--><path d="M456.81,926.97 C410.94,907.93 361.5,875.66 361.5,825 C361.5,315 361.5,315 361.5,315 C361.5,255 425.39,215.95 474.83,194.71 " fill="none" id="PowerDownWaiting-to-PowerDown" style="stroke:#A80036;stroke-width:1.0;"/><polygon fill="#A80036" points="479.57,192.71,469.7231,192.516,474.9618,194.6503,472.8275,199.8891,479.57,192.71" style="stroke:#A80036;stroke-width:1.0;"/><text fill="#000000" font-family="sans-serif" font-size="13" lengthAdjust="spacingAndGlyphs" textLength="116" x="380" y="567.0669">(If T3 &amp;&amp; timeout)</text><text fill="#000000" font-family="sans-serif" font-size="13" lengthAdjust="spacingAndGlyphs" textLength="151" x="366.5" y="582.1997">|| Event:modemInactive</text><!--MD5=[538f577aff9d45ee5f10c76efb758677]
link BaudDetect to PowerDownWaiting--><path d="M864.05,722.08 C833.38,742.41 788.42,772.38 749.5,799 C686.88,841.82 614.77,892.52 571.72,922.92 " fill="none" id="BaudDetect-to-PowerDownWaiting" style="stroke:#A80036;stroke-width:1.0;"/><polygon fill="#A80036" points="567.39,925.98,577.0489,924.0551,571.474,923.0955,572.4337,917.5206,567.39,925.98" style="stroke:#A80036;stroke-width:1.0;"/><text fill="#000000" font-family="sans-serif" font-size="13" lengthAdjust="spacingAndGlyphs" textLength="203" x="750.5" y="821.0669">nextPowerStateChangeAwaiting</text><text fill="#000000" font-family="sans-serif" font-size="13" lengthAdjust="spacingAndGlyphs" textLength="173" x="769.5" y="836.1997">&amp;&amp; nextPowerState == off</text><!--MD5=[0efad0401ca8edd085e226b25311ae33]
link Event:PowerUpProcedureComplete to CellularConfProcedure--><path d="M1241.14,595.1 C1235.73,615.59 1227.94,645.08 1222.19,666.88 " fill="none" id="Event:PowerUpProcedureComplete-to-CellularConfProcedure" style="stroke:#A80036;stroke-width:1.0;"/><polygon fill="#A80036" points="1220.84,671.97,1227.0211,664.3023,1222.1265,667.1384,1219.2904,662.2438,1220.84,671.97" style="stroke:#A80036;stroke-width:1.0;"/><text fill="#000000" font-family="sans-serif" font-size="13" lengthAdjust="spacingAndGlyphs" textLength="131" x="1233.5" y="638.0669">board == T3 || Linux</text><!--MD5=[18dc0415e66d1a4a3ab66d026941b242]
link Event:modemActive to PowerDown--><path d="M680.53,57.18 C674.8,76.06 664.46,101.87 647.5,119 C631.08,135.58 608.6,147.65 587.8,156.11 " fill="none" id="Event:modemActive-to-PowerDown" style="stroke:#A80036;stroke-width:1.0;"/><polygon fill="#A80036" points="583.12,157.97,592.9604,158.3779,587.7692,156.1303,590.0168,150.9391,583.12,157.97" style="stroke:#A80036;stroke-width:1.0;"/><text fill="#000000" font-family="sans-serif" font-size="13" lengthAdjust="spacingAndGlyphs" textLength="178" x="670.5" y="107.5669">state != PowerUpProcedure</text><!--MD5=[8ce29d3611eab794d01643cc4f798f18]
link Event:powerDownRequest to PowerDown--><path d="M379.4,57.08 C374.75,75.66 372.02,101.11 384.5,119 C404.81,148.1 442.62,161.56 474.81,167.77 " fill="none" id="Event:powerDownRequest-to-PowerDown" style="stroke:#A80036;stroke-width:1.0;"/><polygon fill="#A80036" points="479.92,168.71,471.785,163.1583,475.0013,167.8118,470.3479,171.0282,479.92,168.71" style="stroke:#A80036;stroke-width:1.0;"/><text fill="#000000" font-family="sans-serif" font-size="13" lengthAdjust="spacingAndGlyphs" textLength="257" x="385.5" y="100.0669">state != PowerDown,PowerDownWaiting,</text><text fill="#000000" font-family="sans-serif" font-size="13" lengthAdjust="spacingAndGlyphs" textLength="248" x="392" y="115.1997">PowerUpProcedure,PowerUpInProgress</text><!--MD5=[9b7c7df649ad4c52f08ebef10d9c7447]
@startuml

[*] - -> WaitForStartPermission

WaitForStartPermission -> PowerDown : PowerDownRequest && !isModemActive

WaitForStartPermission - -> PowerUpRequest : PowerUpRequest

PowerDown - -> PowerUpRequest : PowerUpRequest

PowerUpRequest - -> PowerUpProcedure : board == T3 | Linux

PowerUpRequest -> StatusCheck : board == T4

StatusCheck - -> PowerUpInPorgress : modemActive

StatusCheck -> PowerUpProcedure : !modemActive

PowerUpProcedure - -> CellularConfProcedure : hotStart

PowerUpProcedure - -> PowerUpInPorgress : coldStart || event: modem ACTIVE

PowerUpInPorgress - -> BaudDetect

BaudDetect -> CellularConfProcedure : Success

BaudDetect - -> ModemFatalFailure : Failure

CellularConfProcedure - -> AudioConfigurationProcedure : Success

CellularConfProcedure -> Failed : Failed

AudioConfigurationProcedure -> AudioConfigurationProcedure : Failed

AudioConfigurationProcedure - -> Failed : Baud setup fail

AudioConfigurationProcedure - - -> Idle : reset called

AudioConfigurationProcedure - -> APNConfProcedure : Success

APNConfProcedure - -> SanityCheck

SanityCheck - -> ModemOn : Success

SanityCheck - -> ModemFatalFailure : Failure

ModemOn -> URCReady

Event:CellularSimProcedure - -> SimSelect 

Event:SIM_READY - -> SimInit

SimInit - -> Failed : Failure

SimInit - -> Ready : Success

Event:PowerDownDeregistering - -> PowerDownStarted : state != PowerDownWaiting

Event:PowerDownDeregistered - -> PowerDownWaiting

Event:PowerDownRequest -> PowerDownWaiting

PowerDownWaiting - - -> PowerDown : (If T3 && timeout) \n || Event:modemInactive

PowerDown - -> PowerUpRequest : nextPowerStateChangeAwaiting \n && nextPowerState == on

BaudDetect - - -> PowerDownWaiting : nextPowerStateChangeAwaiting \n && nextPowerState == off

Event:PowerUpProcedureComplete - -> CellularConfProcedure : board == T3 || Linux

Event:modemActive - -> PowerDown : state != PowerUpProcedure

Event:powerDownRequest - -> PowerDown : state != PowerDown,PowerDownWaiting,\n PowerUpProcedure,PowerUpInProgress

@enduml

PlantUML version 1.2020.22(Sun Dec 06 10:36:27 CET 2020)
(GPL source distribution)
Java Runtime: OpenJDK Runtime Environment
JVM: OpenJDK 64-Bit Server VM
Default Encoding: UTF-8
Language: pl
Country: PL
--></g></svg>