<?xml version="1.0" encoding="UTF-8" standalone="no"?><svg xmlns="http://www.w3.org/2000/svg" xmlns:xlink="http://www.w3.org/1999/xlink" contentScriptType="application/ecmascript" contentStyleType="text/css" height="717px" preserveAspectRatio="none" style="width:895px;height:717px;" version="1.1" viewBox="0 0 895 717" width="895px" zoomAndPan="magnify"><defs><filter height="300%" id="f9zn9nm1ckmmn" width="300%" x="-1" y="-1"><feGaussianBlur result="blurOut" stdDeviation="2.0"/><feColorMatrix in="blurOut" result="blurOut2" type="matrix" values="0 0 0 0 0 0 0 0 0 0 0 0 0 0 0 0 0 0 .4 0"/><feOffset dx="4.0" dy="4.0" in="blurOut2" result="blurOut3"/><feBlend in="SourceGraphic" in2="blurOut3" mode="normal"/></filter></defs><g><rect fill="#FFFFFF" filter="url(#f9zn9nm1ckmmn)" height="593.9844" style="stroke:#A80036;stroke-width:1.0;" width="10" x="204" y="71.4297"/><rect fill="#FFFFFF" filter="url(#f9zn9nm1ckmmn)" height="74.4297" style="stroke:#A80036;stroke-width:1.0;" width="10" x="489.5" y="311.6563"/><rect fill="#FFFFFF" filter="url(#f9zn9nm1ckmmn)" height="234.1953" style="stroke:#A80036;stroke-width:1.0;" width="10" x="624" y="415.2188"/><rect fill="#FFFFFF" filter="url(#f9zn9nm1ckmmn)" height="73.3984" style="stroke:#A80036;stroke-width:1.0;" width="10" x="730" y="444.3516"/><rect fill="#FFFFFF" filter="url(#f9zn9nm1ckmmn)" height="29.1328" style="stroke:#A80036;stroke-width:1.0;" width="10" x="730" y="546.8828"/><rect fill="#FFFFFF" filter="url(#f9zn9nm1ckmmn)" height="442.2891" style="stroke:#000000;stroke-width:2.0;" width="871" x="10" y="215.125"/><line style="stroke:#A80036;stroke-width:1.0;stroke-dasharray:5.0,5.0;" x1="100" x2="100" y1="40.2969" y2="674.4141"/><line style="stroke:#A80036;stroke-width:1.0;stroke-dasharray:5.0,5.0;" x1="209" x2="209" y1="40.2969" y2="674.4141"/><line style="stroke:#A80036;stroke-width:1.0;stroke-dasharray:5.0,5.0;" x1="381" x2="381" y1="141.2109" y2="674.4141"/><line style="stroke:#A80036;stroke-width:1.0;stroke-dasharray:5.0,5.0;" x1="494" x2="494" y1="40.2969" y2="674.4141"/><line style="stroke:#A80036;stroke-width:1.0;stroke-dasharray:5.0,5.0;" x1="628.5" x2="628.5" y1="352.3047" y2="674.4141"/><line style="stroke:#A80036;stroke-width:1.0;stroke-dasharray:5.0,5.0;" x1="735" x2="735" y1="40.2969" y2="674.4141"/><rect fill="#FEFECE" filter="url(#f9zn9nm1ckmmn)" height="30.2969" style="stroke:#A80036;stroke-width:1.5;" width="114" x="41" y="5"/><text fill="#000000" font-family="sans-serif" font-size="14" lengthAdjust="spacing" textLength="100" x="48" y="24.9951">ServiceCellular</text><rect fill="#FEFECE" filter="url(#f9zn9nm1ckmmn)" height="30.2969" style="stroke:#A80036;stroke-width:1.5;" width="114" x="41" y="673.4141"/><text fill="#000000" font-family="sans-serif" font-size="14" lengthAdjust="spacing" textLength="100" x="48" y="693.4092">ServiceCellular</text><rect fill="#FEFECE" filter="url(#f9zn9nm1ckmmn)" height="30.2969" style="stroke:#A80036;stroke-width:1.5;" width="68" x="173" y="5"/><text fill="#000000" font-family="sans-serif" font-size="14" lengthAdjust="spacing" textLength="54" x="180" y="24.9951">TS0710</text><rect fill="#FEFECE" filter="url(#f9zn9nm1ckmmn)" height="30.2969" style="stroke:#A80036;stroke-width:1.5;" width="68" x="173" y="673.4141"/><text fill="#000000" font-family="sans-serif" font-size="14" lengthAdjust="spacing" textLength="54" x="180" y="693.4092">TS0710</text><rect fill="#FEFECE" filter="url(#f9zn9nm1ckmmn)" height="30.2969" style="stroke:#A80036;stroke-width:1.5;" width="112" x="323" y="673.4141"/><text fill="#000000" font-family="sans-serif" font-size="14" lengthAdjust="spacing" textLength="98" x="330" y="693.4092">WorkerThread</text><rect fill="#FEFECE" filter="url(#f9zn9nm1ckmmn)" height="30.2969" style="stroke:#A80036;stroke-width:1.5;" width="87" x="449" y="5"/><text fill="#000000" font-family="sans-serif" font-size="14" lengthAdjust="spacing" textLength="73" x="456" y="24.9951">UrcFactory</text><rect fill="#FEFECE" filter="url(#f9zn9nm1ckmmn)" height="30.2969" style="stroke:#A80036;stroke-width:1.5;" width="87" x="449" y="673.4141"/><text fill="#000000" font-family="sans-serif" font-size="14" lengthAdjust="spacing" textLength="73" x="456" y="693.4092">UrcFactory</text><rect fill="#FEFECE" filter="url(#f9zn9nm1ckmmn)" height="30.2969" style="stroke:#A80036;stroke-width:1.5;" width="37" x="608.5" y="673.4141"/><text fill="#000000" font-family="sans-serif" font-size="14" lengthAdjust="spacing" textLength="23" x="615.5" y="693.4092">Urc</text><rect fill="#FEFECE" filter="url(#f9zn9nm1ckmmn)" height="30.2969" style="stroke:#A80036;stroke-width:1.5;" width="140" x="663" y="5"/><text fill="#000000" font-family="sans-serif" font-size="14" lengthAdjust="spacing" textLength="126" x="670" y="24.9951">CellularUrcHandler</text><rect fill="#FEFECE" filter="url(#f9zn9nm1ckmmn)" height="30.2969" style="stroke:#A80036;stroke-width:1.5;" width="140" x="663" y="673.4141"/><text fill="#000000" font-family="sans-serif" font-size="14" lengthAdjust="spacing" textLength="126" x="670" y="693.4092">CellularUrcHandler</text><rect fill="#FFFFFF" filter="url(#f9zn9nm1ckmmn)" height="593.9844" style="stroke:#A80036;stroke-width:1.0;" width="10" x="204" y="71.4297"/><rect fill="#FFFFFF" filter="url(#f9zn9nm1ckmmn)" height="74.4297" style="stroke:#A80036;stroke-width:1.0;" width="10" x="489.5" y="311.6563"/><rect fill="#FFFFFF" filter="url(#f9zn9nm1ckmmn)" height="234.1953" style="stroke:#A80036;stroke-width:1.0;" width="10" x="624" y="415.2188"/><rect fill="#FFFFFF" filter="url(#f9zn9nm1ckmmn)" height="73.3984" style="stroke:#A80036;stroke-width:1.0;" width="10" x="730" y="444.3516"/><rect fill="#FFFFFF" filter="url(#f9zn9nm1ckmmn)" height="29.1328" style="stroke:#A80036;stroke-width:1.0;" width="10" x="730" y="546.8828"/><polygon fill="#A80036" points="192,67.4297,202,71.4297,192,75.4297,196,71.4297" style="stroke:#A80036;stroke-width:1.0;"/><line style="stroke:#A80036;stroke-width:1.0;" x1="100" x2="198" y1="71.4297" y2="71.4297"/><text fill="#000000" font-family="sans-serif" font-size="13" lengthAdjust="spacing" textLength="85" x="107" y="66.3638">&lt;&lt;create&gt;&gt;</text><polygon fill="#A80036" points="192,96.5625,202,100.5625,192,104.5625,196,100.5625" style="stroke:#A80036;stroke-width:1.0;"/><line style="stroke:#A80036;stroke-width:1.0;" x1="100" x2="198" y1="100.5625" y2="100.5625"/><text fill="#000000" font-family="sans-serif" font-size="13" lengthAdjust="spacing" textLength="73" x="107" y="95.4966">setCallback</text><polygon fill="#A80036" points="311,125.6953,321,129.6953,311,133.6953,315,129.6953" style="stroke:#A80036;stroke-width:1.0;"/><line style="stroke:#A80036;stroke-width:1.0;" x1="214" x2="317" y1="129.6953" y2="129.6953"/><text fill="#000000" font-family="sans-serif" font-size="13" lengthAdjust="spacing" textLength="85" x="221" y="124.6294">&lt;&lt;create&gt;&gt;</text><rect fill="#FEFECE" filter="url(#f9zn9nm1ckmmn)" height="30.2969" style="stroke:#A80036;stroke-width:1.5;" width="112" x="323" y="108.5625"/><text fill="#000000" font-family="sans-serif" font-size="14" lengthAdjust="spacing" textLength="98" x="330" y="128.5576">WorkerThread</text><path d="M386,158.8594 L386,198.8594 L810,198.8594 L810,168.8594 L800,158.8594 L386,158.8594 " fill="#FBFB77" filter="url(#f9zn9nm1ckmmn)" style="stroke:#A80036;stroke-width:1.0;"/><path d="M800,158.8594 L800,168.8594 L810,168.8594 L800,158.8594 " fill="#FBFB77" style="stroke:#A80036;stroke-width:1.0;"/><text fill="#000000" font-family="sans-serif" font-size="13" lengthAdjust="spacing" textLength="403" x="392" y="175.9263">processing of the incoming data takes place is separate thread</text><text fill="#000000" font-family="sans-serif" font-size="13" lengthAdjust="spacing" textLength="324" x="392" y="191.0591">utilizing the callback function set by ServiceCellular</text><path d="M10,215.125 L87,215.125 L87,222.125 L77,232.125 L10,232.125 L10,215.125 " fill="#EEEEEE" style="stroke:#000000;stroke-width:1.0;"/><rect fill="none" height="442.2891" style="stroke:#000000;stroke-width:2.0;" width="871" x="10" y="215.125"/><text fill="#000000" font-family="sans-serif" font-size="13" font-weight="bold" lengthAdjust="spacing" textLength="32" x="25" y="228.1919">loop</text><text fill="#000000" font-family="sans-serif" font-size="11" font-weight="bold" lengthAdjust="spacing" textLength="36" x="102" y="227.3354">[true]</text><polygon fill="#A80036" points="369,249.3906,379,253.3906,369,257.3906,373,253.3906" style="stroke:#A80036;stroke-width:1.0;"/><line style="stroke:#A80036;stroke-width:1.0;" x1="299" x2="375" y1="253.3906" y2="253.3906"/><text fill="#000000" font-family="sans-serif" font-size="13" lengthAdjust="spacing" textLength="58" x="306" y="248.3247">new data</text><polygon fill="#A80036" points="111,278.5234,101,282.5234,111,286.5234,107,282.5234" style="stroke:#A80036;stroke-width:1.0;"/><line style="stroke:#A80036;stroke-width:1.0;" x1="105" x2="380" y1="282.5234" y2="282.5234"/><text fill="#000000" font-family="sans-serif" font-size="13" lengthAdjust="spacing" textLength="51" x="117" y="277.4575">callback</text><polygon fill="#A80036" points="477.5,307.6563,487.5,311.6563,477.5,315.6563,481.5,311.6563" style="stroke:#A80036;stroke-width:1.0;"/><line style="stroke:#A80036;stroke-width:1.0;" x1="100" x2="483.5" y1="311.6563" y2="311.6563"/><text fill="#000000" font-family="sans-serif" font-size="13" lengthAdjust="spacing" textLength="43" x="107" y="306.5903">Create</text><polygon fill="#A80036" points="596.5,336.7891,606.5,340.7891,596.5,344.7891,600.5,340.7891" style="stroke:#A80036;stroke-width:1.0;"/><line style="stroke:#A80036;stroke-width:1.0;" x1="499.5" x2="602.5" y1="340.7891" y2="340.7891"/><text fill="#000000" font-family="sans-serif" font-size="13" lengthAdjust="spacing" textLength="85" x="506.5" y="335.7231">&lt;&lt;create&gt;&gt;</text><rect fill="#FEFECE" filter="url(#f9zn9nm1ckmmn)" height="30.2969" style="stroke:#A80036;stroke-width:1.5;" width="37" x="608.5" y="319.6563"/><text fill="#000000" font-family="sans-serif" font-size="14" lengthAdjust="spacing" textLength="23" x="615.5" y="339.6514">Urc</text><polygon fill="#A80036" points="111,382.0859,101,386.0859,111,390.0859,107,386.0859" style="stroke:#A80036;stroke-width:1.0;"/><line style="stroke:#A80036;stroke-width:1.0;stroke-dasharray:2.0,2.0;" x1="105" x2="493.5" y1="386.0859" y2="386.0859"/><text fill="#000000" font-family="sans-serif" font-size="13" lengthAdjust="spacing" textLength="83" x="117" y="381.02">&lt;&lt;return&gt;&gt;</text><polygon fill="#A80036" points="612,411.2188,622,415.2188,612,419.2188,616,415.2188" style="stroke:#A80036;stroke-width:1.0;"/><line style="stroke:#A80036;stroke-width:1.0;" x1="100" x2="618" y1="415.2188" y2="415.2188"/><text fill="#000000" font-family="sans-serif" font-size="13" lengthAdjust="spacing" textLength="174" x="107" y="410.1528">Handle(CellularUrcHandler)</text><polygon fill="#A80036" points="718,440.3516,728,444.3516,718,448.3516,722,444.3516" style="stroke:#A80036;stroke-width:1.0;"/><line style="stroke:#A80036;stroke-width:1.0;" x1="634" x2="724" y1="444.3516" y2="444.3516"/><text fill="#000000" font-family="sans-serif" font-size="13" lengthAdjust="spacing" textLength="77" x="641" y="439.2856">Handle(Urc)</text><polygon fill="#A80036" points="872,484.6172,882,488.6172,872,492.6172,876,488.6172" style="stroke:#A80036;stroke-width:1.0;"/><line style="stroke:#A80036;stroke-width:1.0;" x1="740" x2="878" y1="488.6172" y2="488.6172"/><text fill="#000000" font-family="sans-serif" font-size="13" lengthAdjust="spacing" textLength="120" x="747" y="468.4185">&lt;&lt;specific system</text><text fill="#000000" font-family="sans-serif" font-size="13" lengthAdjust="spacing" textLength="68" x="747" y="483.5513">actions&gt;&gt;</text><polygon fill="#A80036" points="746,513.75,736,517.75,746,521.75,742,517.75" style="stroke:#A80036;stroke-width:1.0;"/><line style="stroke:#A80036;stroke-width:1.0;" x1="740" x2="838" y1="517.75" y2="517.75"/><text fill="#000000" font-family="sans-serif" font-size="13" lengthAdjust="spacing" textLength="80" x="752" y="512.6841">&lt;&lt;result&gt;&gt;</text><polygon fill="#A80036" points="718,542.8828,728,546.8828,718,550.8828,722,546.8828" style="stroke:#A80036;stroke-width:1.0;"/><line style="stroke:#A80036;stroke-width:1.0;" x1="100" x2="724" y1="546.8828" y2="546.8828"/><text fill="#000000" font-family="sans-serif" font-size="13" lengthAdjust="spacing" textLength="83" x="107" y="541.8169">getResponse</text><polygon fill="#A80036" points="111,572.0156,101,576.0156,111,580.0156,107,576.0156" style="stroke:#A80036;stroke-width:1.0;"/><line style="stroke:#A80036;stroke-width:1.0;stroke-dasharray:2.0,2.0;" x1="105" x2="734" y1="576.0156" y2="576.0156"/><text fill="#000000" font-family="sans-serif" font-size="13" lengthAdjust="spacing" textLength="103" x="117" y="570.9497">&lt;&lt;response&gt;&gt;</text><polygon fill="#A80036" points="18,616.2813,8,620.2813,18,624.2813,14,620.2813" style="stroke:#A80036;stroke-width:1.0;"/><line style="stroke:#A80036;stroke-width:1.0;stroke-dasharray:2.0,2.0;" x1="12" x2="99" y1="620.2813" y2="620.2813"/><text fill="#000000" font-family="sans-serif" font-size="13" lengthAdjust="spacing" textLength="69" x="24" y="600.0825">""multicast</text><text fill="#000000" font-family="sans-serif" font-size="13" lengthAdjust="spacing" textLength="69" x="24" y="615.2153">response""</text><polygon fill="#A80036" points="617,645.4141,627,649.4141,617,653.4141,621,649.4141" style="stroke:#A80036;stroke-width:1.0;"/><line style="stroke:#A80036;stroke-width:1.0;" x1="100" x2="623" y1="649.4141" y2="649.4141"/><text fill="#000000" font-family="sans-serif" font-size="13" lengthAdjust="spacing" textLength="40" x="107" y="644.3481">delete</text><line style="stroke:#A80036;stroke-width:2.0;" x1="620" x2="638" y1="640.4141" y2="658.4141"/><line style="stroke:#A80036;stroke-width:2.0;" x1="620" x2="638" y1="658.4141" y2="640.4141"/><!--MD5=[38e3838875216213e2be62ff3a06c39b]
@startuml
participant ServiceCellular as cellular
participant TS0710 as ts
participant WorkerThread as worker
participant UrcFactory as factory
participant Urc as urc
participant CellularUrcHandler as handler


cellular -> ts + : <<create>>
cellular -> ts  : setCallback
ts -> worker * : <<create>>
note right worker 
processing of the incoming data takes place is separate thread
utilizing the callback function set by ServiceCellular
end note
loop true
?-> worker : new data
worker -> cellular : callback
cellular -> factory + : Create
factory -> urc ** : <<create>>
return <<return>>
cellular -> urc +: Handle(CellularUrcHandler)
urc -> handler + : Handle(Urc)
handler->? : <<specific system\nactions>>
handler<-? - : <<result>>
cellular -> handler + : getResponse
handler - -> cellular - : <<response>>
?<- -    cellular - - : ""multicast\nresponse""
cellular -> urc !! : delete
end
@enduml

PlantUML version 1.2021.00(Sun Jan 10 11:25:05 CET 2021)
(GPL source distribution)
Java Runtime: OpenJDK Runtime Environment
JVM: OpenJDK 64-Bit Server VM
Default Encoding: UTF-8
Language: en
Country: US
--></g></svg>